%TF.GenerationSoftware,KiCad,Pcbnew,8.0.5*%
%TF.CreationDate,2024-11-27T19:54:23+01:00*%
%TF.ProjectId,escPCB,65736350-4342-42e6-9b69-6361645f7063,1.0*%
%TF.SameCoordinates,Original*%
%TF.FileFunction,Copper,L2,Bot*%
%TF.FilePolarity,Positive*%
%FSLAX46Y46*%
G04 Gerber Fmt 4.6, Leading zero omitted, Abs format (unit mm)*
G04 Created by KiCad (PCBNEW 8.0.5) date 2024-11-27 19:54:23*
%MOMM*%
%LPD*%
G01*
G04 APERTURE LIST*
G04 Aperture macros list*
%AMRoundRect*
0 Rectangle with rounded corners*
0 $1 Rounding radius*
0 $2 $3 $4 $5 $6 $7 $8 $9 X,Y pos of 4 corners*
0 Add a 4 corners polygon primitive as box body*
4,1,4,$2,$3,$4,$5,$6,$7,$8,$9,$2,$3,0*
0 Add four circle primitives for the rounded corners*
1,1,$1+$1,$2,$3*
1,1,$1+$1,$4,$5*
1,1,$1+$1,$6,$7*
1,1,$1+$1,$8,$9*
0 Add four rect primitives between the rounded corners*
20,1,$1+$1,$2,$3,$4,$5,0*
20,1,$1+$1,$4,$5,$6,$7,0*
20,1,$1+$1,$6,$7,$8,$9,0*
20,1,$1+$1,$8,$9,$2,$3,0*%
G04 Aperture macros list end*
%TA.AperFunction,ComponentPad*%
%ADD10RoundRect,0.250000X0.625000X-0.350000X0.625000X0.350000X-0.625000X0.350000X-0.625000X-0.350000X0*%
%TD*%
%TA.AperFunction,ComponentPad*%
%ADD11O,1.750000X1.200000*%
%TD*%
%TA.AperFunction,ComponentPad*%
%ADD12C,0.648000*%
%TD*%
%TA.AperFunction,ComponentPad*%
%ADD13O,2.500000X1.300000*%
%TD*%
%TA.AperFunction,ComponentPad*%
%ADD14O,3.200000X1.300000*%
%TD*%
%TA.AperFunction,ComponentPad*%
%ADD15R,3.960000X1.980000*%
%TD*%
%TA.AperFunction,ComponentPad*%
%ADD16O,3.960000X1.980000*%
%TD*%
%TA.AperFunction,ComponentPad*%
%ADD17C,6.000000*%
%TD*%
%TA.AperFunction,ComponentPad*%
%ADD18R,6.000000X6.000000*%
%TD*%
%TA.AperFunction,ComponentPad*%
%ADD19R,1.524000X1.524000*%
%TD*%
%TA.AperFunction,ComponentPad*%
%ADD20C,1.524000*%
%TD*%
%TA.AperFunction,ComponentPad*%
%ADD21RoundRect,0.250000X-0.625000X0.350000X-0.625000X-0.350000X0.625000X-0.350000X0.625000X0.350000X0*%
%TD*%
%TA.AperFunction,ViaPad*%
%ADD22C,0.700000*%
%TD*%
%TA.AperFunction,ViaPad*%
%ADD23C,0.600000*%
%TD*%
%TA.AperFunction,Conductor*%
%ADD24C,0.400000*%
%TD*%
%TA.AperFunction,Conductor*%
%ADD25C,0.800000*%
%TD*%
%TA.AperFunction,Conductor*%
%ADD26C,1.000000*%
%TD*%
%TA.AperFunction,Conductor*%
%ADD27C,0.600000*%
%TD*%
%TA.AperFunction,Conductor*%
%ADD28C,0.200000*%
%TD*%
%ADD29C,0.350000*%
%ADD30C,0.300000*%
%ADD31O,1.600000X0.700000*%
%ADD32O,2.000000X0.700000*%
G04 APERTURE END LIST*
D10*
%TO.P,J4,1,Pin_1*%
%TO.N,RP_UART_TX*%
X111050000Y-76000000D03*
D11*
%TO.P,J4,2,Pin_2*%
%TO.N,RP_UART_RX*%
X111050000Y-74000000D03*
%TO.P,J4,3,Pin_3*%
%TO.N,GND*%
X111050000Y-72000000D03*
%TD*%
D12*
%TO.P,J2,A1,GND1*%
%TO.N,GND*%
X112510000Y-64295000D03*
%TO.P,J2,A4,VBUS1*%
%TO.N,unconnected-(J2-VBUS1-PadA4)*%
X112510000Y-63445000D03*
%TO.P,J2,A5,CC1*%
%TO.N,Net-(J2-CC1)*%
X112510000Y-62595000D03*
%TO.P,J2,A6,DA+*%
%TO.N,USB_D+*%
X112510000Y-61745000D03*
%TO.P,J2,A7,DA-*%
%TO.N,USB_D-*%
X112510000Y-60895000D03*
%TO.P,J2,A8,SBU1*%
%TO.N,unconnected-(J2-SBU1-PadA8)*%
X112510000Y-60045000D03*
%TO.P,J2,A9,VBUS2*%
%TO.N,unconnected-(J2-VBUS2-PadA9)*%
X112510000Y-59195000D03*
%TO.P,J2,A12,GND2*%
%TO.N,GND*%
X112510000Y-58345000D03*
%TO.P,J2,B1,GND3*%
X113860000Y-58345000D03*
%TO.P,J2,B4,VBUS3*%
%TO.N,unconnected-(J2-VBUS3-PadB4)*%
X113860000Y-59195000D03*
%TO.P,J2,B5,CC2*%
%TO.N,Net-(J2-CC2)*%
X113860000Y-60045000D03*
%TO.P,J2,B6,DB+*%
%TO.N,USB_D+*%
X113860000Y-60895000D03*
%TO.P,J2,B7,DB-*%
%TO.N,USB_D-*%
X113860000Y-61745000D03*
%TO.P,J2,B8,SBU2*%
%TO.N,unconnected-(J2-SBU2-PadB8)*%
X113860000Y-62595000D03*
%TO.P,J2,B9,VBUS4*%
%TO.N,unconnected-(J2-VBUS4-PadB9)*%
X113860000Y-63445000D03*
%TO.P,J2,B12,GND4*%
%TO.N,GND*%
X113860000Y-64295000D03*
D13*
%TO.P,J2,SH1,SHIELD1*%
X117160000Y-65640000D03*
%TO.P,J2,SH2,SHIELD2*%
X117160000Y-57000000D03*
D14*
%TO.P,J2,SH3,SHIELD3*%
X113010000Y-65640000D03*
%TO.P,J2,SH4,SHIELD4*%
X113010000Y-57000000D03*
%TD*%
D15*
%TO.P,J1,1,Pin_1*%
%TO.N,L1*%
X67000000Y-122705000D03*
D16*
%TO.P,J1,2,Pin_2*%
%TO.N,L2*%
X67000000Y-127705000D03*
%TO.P,J1,3,Pin_3*%
%TO.N,L3*%
X67000000Y-132705000D03*
%TD*%
D17*
%TO.P,J3,N,NEG*%
%TO.N,GND*%
X65000000Y-100100000D03*
D18*
%TO.P,J3,P,POS*%
%TO.N,+BATT*%
X65000000Y-92900000D03*
%TD*%
D19*
%TO.P,CR1,1,GROUND*%
%TO.N,GND*%
X109810000Y-97620000D03*
D20*
%TO.P,CR1,2,NONINVERTINGINPUT*%
%TO.N,Net-(CR1-NONINVERTINGINPUT)*%
X109810000Y-95080000D03*
%TO.P,CR1,3,INVERTINGINPUT*%
%TO.N,Net-(CR1-INVERTINGINPUT)*%
X109810000Y-92540000D03*
%TO.P,CR1,4,VCC-*%
%TO.N,GND*%
X109810000Y-90000000D03*
%TO.P,CR1,5,BALANCE*%
%TO.N,unconnected-(CR1-BALANCE-Pad5)*%
X102190000Y-90000000D03*
%TO.P,CR1,6,STROBE/BALANCE*%
%TO.N,unconnected-(CR1-STROBE{slash}BALANCE-Pad6)*%
X102190000Y-92540000D03*
%TO.P,CR1,7,OUTPUT*%
%TO.N,PHASED*%
X102190000Y-95080000D03*
%TO.P,CR1,8,VCC+*%
%TO.N,+BATT*%
X102190000Y-97620000D03*
%TD*%
D21*
%TO.P,J6,1,Pin_1*%
%TO.N,Net-(J6-Pin_1)*%
X67000000Y-79500000D03*
D11*
%TO.P,J6,2,Pin_2*%
%TO.N,GND*%
X67000000Y-81500000D03*
%TD*%
D10*
%TO.P,J5,1,Pin_1*%
%TO.N,SWCLK*%
X111050000Y-85000000D03*
D11*
%TO.P,J5,2,Pin_2*%
%TO.N,SWD*%
X111050000Y-83000000D03*
%TO.P,J5,3,Pin_3*%
%TO.N,GND*%
X111050000Y-81000000D03*
%TD*%
D22*
%TO.N,GND*%
X89000000Y-145750000D03*
X72250000Y-142500000D03*
X70500000Y-145000000D03*
D23*
%TO.N,+BATT*%
X98500000Y-99000000D03*
X65100000Y-84400000D03*
X89000000Y-92000000D03*
X88500000Y-84500000D03*
X79000000Y-107000000D03*
X76160975Y-97650000D03*
X67200000Y-86300000D03*
X76000000Y-86000000D03*
X66300000Y-87700000D03*
X65800000Y-86500000D03*
X66500000Y-85000000D03*
X91500000Y-114500000D03*
X70860662Y-105880331D03*
X64900000Y-87600000D03*
X80000000Y-83500000D03*
X64700000Y-85600000D03*
X75500000Y-102500000D03*
X84000000Y-83000000D03*
X93500000Y-128000000D03*
X75500000Y-71000000D03*
%TO.N,AH_Gate*%
X71000000Y-92500000D03*
X78500000Y-103500000D03*
D22*
%TO.N,GND*%
X71200000Y-57600000D03*
X107000000Y-84100000D03*
X108200000Y-129800000D03*
X109000000Y-57500000D03*
X114800000Y-118400000D03*
X62500000Y-140000000D03*
X66700000Y-141300000D03*
X118100000Y-139200000D03*
X77300000Y-70900000D03*
X87700000Y-51600000D03*
X92800000Y-140200000D03*
X118500000Y-125500000D03*
X112700000Y-120400000D03*
X106200000Y-79200000D03*
X118600000Y-131800000D03*
X97900000Y-72400000D03*
X65100000Y-82200000D03*
X91600000Y-112700000D03*
X118500000Y-89000000D03*
X96000000Y-68000000D03*
X97100000Y-114000000D03*
X94600000Y-138800000D03*
X107000000Y-56500000D03*
X91800000Y-70600000D03*
X94700000Y-130800000D03*
X66900000Y-107000000D03*
X113000000Y-86500000D03*
X109900000Y-56200000D03*
X103750000Y-60750000D03*
X84800000Y-79500000D03*
X109800000Y-52500000D03*
X118400000Y-109000000D03*
X112300000Y-142400000D03*
X114800000Y-104800000D03*
X109000000Y-143000000D03*
X112700000Y-54900000D03*
X118000000Y-59500000D03*
X64300000Y-60300000D03*
X93400000Y-54400000D03*
X68700000Y-60400000D03*
X84000000Y-106600000D03*
X82200000Y-101600000D03*
X104200000Y-97000000D03*
X61800000Y-57900000D03*
X63500000Y-108000000D03*
X118400000Y-91400000D03*
X118400000Y-114000000D03*
X83000000Y-107900000D03*
X82900000Y-121200000D03*
X96400000Y-97800000D03*
X112600000Y-129000000D03*
X103600000Y-127800000D03*
X107700000Y-53500000D03*
X108500000Y-71500000D03*
X62000000Y-117500000D03*
X112000000Y-70500000D03*
X102400000Y-58800000D03*
X116400000Y-61600000D03*
X105800000Y-98200000D03*
X104300000Y-81700000D03*
X96250000Y-72250000D03*
X96900000Y-142000000D03*
X99400000Y-114100000D03*
X112000000Y-112000000D03*
X83200000Y-81400000D03*
X105800000Y-83400000D03*
X118400000Y-61400000D03*
X76500000Y-142500000D03*
X96700000Y-51100000D03*
X104500000Y-69300000D03*
X104900000Y-78000000D03*
X90500000Y-116100000D03*
X74500000Y-64000000D03*
X94200000Y-80600000D03*
X118400000Y-141300000D03*
X118500000Y-104500000D03*
X62100000Y-124300000D03*
X84000000Y-58500000D03*
X91200000Y-142300000D03*
X76800000Y-65400000D03*
X84800000Y-73200000D03*
X117000000Y-68500000D03*
X98100000Y-147500000D03*
X63400000Y-131800000D03*
X96000000Y-70700000D03*
X116100000Y-86400000D03*
X62000000Y-62500000D03*
X102000000Y-81800000D03*
X69000000Y-139000000D03*
X102800000Y-74400000D03*
X105800000Y-94200000D03*
X100400000Y-68000000D03*
X105800000Y-92200000D03*
X114800000Y-101400000D03*
X112600000Y-139900000D03*
X98800000Y-68000000D03*
X116500000Y-80500000D03*
X110500000Y-60100000D03*
X108000000Y-65000000D03*
X116500000Y-63500000D03*
X103200000Y-52400000D03*
X100200000Y-92600000D03*
X118500000Y-73500000D03*
X87500000Y-144000000D03*
X94200000Y-92400000D03*
X78750000Y-143250000D03*
X118000000Y-135500000D03*
X87000000Y-102000000D03*
X69800000Y-78900000D03*
X90000000Y-73500000D03*
X106500000Y-77500000D03*
X95000000Y-51000000D03*
X103250000Y-70200000D03*
X104500000Y-85500000D03*
X100000000Y-89500000D03*
X82800000Y-66400000D03*
X100100000Y-99100000D03*
X106500000Y-75000000D03*
X99600000Y-141900000D03*
X110500000Y-120400000D03*
X112800000Y-79700000D03*
X99200000Y-84800000D03*
D23*
X105900000Y-142000000D03*
D22*
X105000000Y-75100000D03*
X106100000Y-85500000D03*
X108400000Y-112000000D03*
X94000000Y-114500000D03*
X80200000Y-79700000D03*
X74500000Y-68600000D03*
X118500000Y-79000000D03*
X94000000Y-141500000D03*
X61600000Y-74900000D03*
X97500000Y-53000000D03*
X72000000Y-59500000D03*
X118500000Y-117000000D03*
X84000000Y-102000000D03*
X115000000Y-74000000D03*
X118400000Y-102800000D03*
X73526092Y-94153295D03*
X71500000Y-64800000D03*
X108600000Y-116600000D03*
X118400000Y-123800000D03*
X106300000Y-55100000D03*
X103750000Y-58750000D03*
X68000000Y-113000000D03*
X81000000Y-98000000D03*
X118600000Y-127600000D03*
X110100000Y-147400000D03*
X95200000Y-129000000D03*
X82000000Y-143750000D03*
X61800000Y-82400000D03*
X85500000Y-98500000D03*
X118400000Y-95200000D03*
X105500000Y-53500000D03*
X88000000Y-88500000D03*
X91300000Y-147200000D03*
X80800000Y-147200000D03*
X94400000Y-78800000D03*
X100300000Y-52500000D03*
X89500000Y-63000000D03*
X72800000Y-50400000D03*
X64200000Y-68700000D03*
X103400000Y-114100000D03*
X115800000Y-112200000D03*
X80500000Y-123600000D03*
X108300000Y-77300000D03*
X72800000Y-63500000D03*
X64100000Y-118600000D03*
X84100000Y-147200000D03*
X62100000Y-130000000D03*
X95500000Y-52500000D03*
X104200000Y-95000000D03*
X94200000Y-60900000D03*
X108000000Y-79000000D03*
X73600000Y-57600000D03*
X92500000Y-53250000D03*
X85900000Y-51600000D03*
X91700000Y-60300000D03*
X85700000Y-80900000D03*
X67200000Y-111200000D03*
X75750000Y-140750000D03*
X62000000Y-133500000D03*
X118400000Y-119600000D03*
X103000000Y-80500000D03*
X108500000Y-55000000D03*
X75700000Y-58800000D03*
X113000000Y-126000000D03*
X101400000Y-147400000D03*
X95000000Y-126500000D03*
X74000000Y-140000000D03*
X116200000Y-83100000D03*
X82000000Y-65400000D03*
X74000000Y-79500000D03*
X82400000Y-60800000D03*
X73500000Y-142000000D03*
X93600000Y-86400000D03*
X109600000Y-101400000D03*
X62100000Y-127000000D03*
X78900000Y-108800000D03*
X91100000Y-51600000D03*
X100400000Y-69500000D03*
X100800000Y-127800000D03*
X70500000Y-138000000D03*
X108600000Y-144800000D03*
X111400000Y-101400000D03*
X89600000Y-87200000D03*
X114800000Y-120000000D03*
X118600000Y-129800000D03*
X62600000Y-87800000D03*
X92300000Y-103100000D03*
X62500000Y-86200000D03*
X92800000Y-51600000D03*
X110500000Y-54500000D03*
X77800000Y-112200000D03*
X85500000Y-60400000D03*
X73500000Y-91000000D03*
X107700000Y-58300000D03*
X114600000Y-141500000D03*
X66600000Y-76000000D03*
X99700000Y-81000000D03*
X95500000Y-96500000D03*
X105500000Y-60500000D03*
X117700000Y-137600000D03*
X68000000Y-115000000D03*
X89800000Y-60300000D03*
X104200000Y-91000000D03*
X102600000Y-142100000D03*
D23*
X76750000Y-99920094D03*
D22*
X103100000Y-68900000D03*
X108000000Y-51500000D03*
X89500000Y-64500000D03*
X109500000Y-66000000D03*
X111900000Y-53700000D03*
X93800000Y-147600000D03*
X102700000Y-85500000D03*
X62000000Y-105500000D03*
X115400000Y-139000000D03*
X88600000Y-78800000D03*
X111500000Y-144500000D03*
X82200000Y-58900000D03*
X90000000Y-78800000D03*
X118400000Y-121800000D03*
X86900000Y-73500000D03*
X109500000Y-64500000D03*
X100000000Y-91000000D03*
X90900000Y-101700000D03*
X91500000Y-62000000D03*
X66500000Y-117200000D03*
X101500000Y-51500000D03*
X74200000Y-62300000D03*
X114800000Y-103000000D03*
X85000000Y-143750000D03*
X118400000Y-98800000D03*
X113500000Y-77500000D03*
X70700000Y-146900000D03*
X67900000Y-146900000D03*
X88400000Y-67400000D03*
X118400000Y-87000000D03*
X107600000Y-93400000D03*
X61700000Y-59500000D03*
X78400000Y-66400000D03*
X116500000Y-140500000D03*
X114800000Y-116600000D03*
D23*
X65000000Y-137500000D03*
D22*
X73800000Y-65200000D03*
X77200000Y-58800000D03*
X91000000Y-64500000D03*
X61700000Y-76400000D03*
X65400000Y-139300000D03*
X70000000Y-94000000D03*
X62500000Y-68000000D03*
X79500000Y-82000000D03*
X71700000Y-62100000D03*
X97300000Y-68000000D03*
X114800000Y-106600000D03*
X72500000Y-138750000D03*
X68500000Y-142000000D03*
X65300000Y-78300000D03*
X89400000Y-129500000D03*
X100400000Y-70800000D03*
X118500000Y-70000000D03*
X62000000Y-121000000D03*
X118400000Y-107000000D03*
X80900000Y-51400000D03*
X69700000Y-82400000D03*
X82100000Y-106500000D03*
X110000000Y-112000000D03*
X104900000Y-59400000D03*
X108200000Y-87200000D03*
X69200000Y-105400000D03*
X68600000Y-75900000D03*
X61600000Y-72600000D03*
X110200000Y-116600000D03*
X83500000Y-53000000D03*
X76900000Y-110800000D03*
X115000000Y-125100000D03*
X86900000Y-82000000D03*
X61700000Y-78100000D03*
X76200000Y-50800000D03*
X108000000Y-85600000D03*
X68700000Y-61800000D03*
X62100000Y-137500000D03*
X75600000Y-57200000D03*
X91000000Y-53500000D03*
X96800000Y-84800000D03*
D23*
X111500000Y-98000000D03*
D22*
X107600000Y-95200000D03*
X111000000Y-129000000D03*
X77300000Y-147100000D03*
X69500000Y-115700000D03*
X86750000Y-145500000D03*
X84900000Y-78200000D03*
X64200000Y-62000000D03*
X107600000Y-91000000D03*
X118500000Y-67500000D03*
X80300000Y-120900000D03*
X104200000Y-93200000D03*
X107600000Y-97200000D03*
X74000000Y-59000000D03*
X91500000Y-58000000D03*
X92000000Y-127000000D03*
X118500000Y-111000000D03*
X62700000Y-122600000D03*
D23*
X104300000Y-147600000D03*
D22*
X89400000Y-51600000D03*
X89800000Y-58500000D03*
X74500000Y-87500000D03*
D23*
X87200000Y-147200000D03*
D22*
X109500000Y-129000000D03*
X78000000Y-57400000D03*
X118500000Y-63200000D03*
X96000000Y-69300000D03*
X94500000Y-58700000D03*
X95000000Y-102000000D03*
X64600000Y-109300000D03*
X108500000Y-72700000D03*
X76300000Y-106300000D03*
X77200000Y-113800000D03*
X62500000Y-84700000D03*
X97700000Y-77000000D03*
X80100000Y-102800000D03*
D23*
X81500000Y-81000000D03*
D22*
X105800000Y-96200000D03*
X108200000Y-126200000D03*
X116000000Y-59500000D03*
X98600000Y-127700000D03*
X108500000Y-70000000D03*
X106600000Y-127700000D03*
X101500000Y-99500000D03*
X113500000Y-71500000D03*
X84000000Y-60000000D03*
X106000000Y-64500000D03*
X98700000Y-51200000D03*
X90300000Y-144400000D03*
X107500000Y-146500000D03*
X67500000Y-105500000D03*
X93500000Y-112500000D03*
X112000000Y-68500000D03*
X93000000Y-71400000D03*
X82000000Y-71000000D03*
X103600000Y-87000000D03*
X62000000Y-66400000D03*
X62500000Y-70100000D03*
X61500000Y-64500000D03*
X66200000Y-73900000D03*
X82800000Y-51900000D03*
X118500000Y-84500000D03*
X74250000Y-147250000D03*
X94800000Y-116700000D03*
X118500000Y-97000000D03*
X118500000Y-93500000D03*
X113200000Y-101400000D03*
X62500000Y-110000000D03*
X111800000Y-116600000D03*
X70900000Y-143300000D03*
X104700000Y-51300000D03*
X115300000Y-123500000D03*
D23*
X71000000Y-141000000D03*
D22*
X65500000Y-108000000D03*
X93600000Y-84200000D03*
X94000000Y-82600000D03*
X105800000Y-90000000D03*
X84200000Y-71200000D03*
X80000000Y-65300000D03*
X80500000Y-101000000D03*
X116500000Y-77000000D03*
X82500000Y-62400000D03*
X80200000Y-110400000D03*
X114100000Y-83000000D03*
X93900000Y-56600000D03*
X116500000Y-71500000D03*
X118400000Y-100800000D03*
X80000000Y-73000000D03*
X112000000Y-94000000D03*
X103000000Y-72000000D03*
D23*
%TO.N,AL_Gate*%
X93500000Y-100500000D03*
X115255000Y-109540000D03*
%TO.N,BH_Gate*%
X83474952Y-116824952D03*
X70860662Y-107024468D03*
%TO.N,BL_Gate*%
X87000000Y-99500000D03*
X87479406Y-92979406D03*
X115500000Y-121500000D03*
%TO.N,+3.3V*%
X96000000Y-92000000D03*
X92500000Y-69500000D03*
X70000000Y-71000000D03*
X103000000Y-65500000D03*
X95000000Y-55500000D03*
%TO.N,Net-(JP3-A)*%
X66000000Y-71200000D03*
X66500000Y-61200000D03*
%TO.N,+1V1*%
X100565686Y-65065686D03*
X94500000Y-63000000D03*
X100500000Y-77000000D03*
D22*
%TO.N,CH_Gate*%
X79000000Y-132000000D03*
X68500000Y-117500000D03*
D23*
%TO.N,CL_Gate*%
X115065000Y-137000000D03*
X90500000Y-99500000D03*
%TO.N,PHASED*%
X98000000Y-93550000D03*
D22*
X104500000Y-72987500D03*
D23*
%TO.N,Net-(U1-RUN)*%
X101500000Y-79500000D03*
X103500000Y-77000000D03*
%TD*%
D24*
%TO.N,+BATT*%
X98500000Y-99000000D02*
X95500000Y-99000000D01*
D25*
X84000000Y-83000000D02*
X82200000Y-83000000D01*
D26*
X67800000Y-85700000D02*
X75700000Y-85700000D01*
X64900000Y-85600000D02*
X65800000Y-86500000D01*
D24*
X76000000Y-86000000D02*
X75750000Y-85750000D01*
D25*
X82200000Y-85900000D02*
X82300000Y-86000000D01*
D26*
X66500000Y-85000000D02*
X66500000Y-87500000D01*
X75700000Y-85700000D02*
X76000000Y-86000000D01*
X66500000Y-85000000D02*
X66500000Y-86000000D01*
X66300000Y-87700000D02*
X65000000Y-87700000D01*
X66500000Y-86000000D02*
X64900000Y-87600000D01*
X66500000Y-85000000D02*
X66300000Y-85000000D01*
X67200000Y-86300000D02*
X67200000Y-85700000D01*
X65700000Y-85600000D02*
X65800000Y-85700000D01*
D24*
X89000000Y-92500000D02*
X89000000Y-92000000D01*
D26*
X75000000Y-85000000D02*
X76000000Y-86000000D01*
X66300000Y-87200000D02*
X67200000Y-86300000D01*
X65000000Y-87700000D02*
X64900000Y-87600000D01*
X82300000Y-86000000D02*
X87000000Y-86000000D01*
X87000000Y-86000000D02*
X88500000Y-84500000D01*
D24*
X91500000Y-114500000D02*
X86500000Y-114500000D01*
D26*
X65900000Y-84400000D02*
X66500000Y-85000000D01*
X65100000Y-84400000D02*
X65900000Y-84400000D01*
X67200000Y-86300000D02*
X67800000Y-85700000D01*
D24*
X70860662Y-105657785D02*
X70860662Y-105880331D01*
X93500000Y-128000000D02*
X93500000Y-116500000D01*
D26*
X67200000Y-85700000D02*
X66500000Y-85000000D01*
X66300000Y-87700000D02*
X66300000Y-87200000D01*
X64700000Y-85600000D02*
X64700000Y-87400000D01*
D24*
X86500000Y-114500000D02*
X79000000Y-107000000D01*
D26*
X64700000Y-85600000D02*
X64900000Y-85600000D01*
D25*
X82200000Y-83000000D02*
X80500000Y-83000000D01*
D26*
X66300000Y-85000000D02*
X65700000Y-85600000D01*
X76000000Y-86000000D02*
X82300000Y-86000000D01*
D24*
X95500000Y-99000000D02*
X89000000Y-92500000D01*
D26*
X75750000Y-71250000D02*
X75500000Y-71000000D01*
X66500000Y-85000000D02*
X75000000Y-85000000D01*
D24*
X76000000Y-86000000D02*
X76000000Y-97489025D01*
D25*
X80500000Y-83000000D02*
X80000000Y-83500000D01*
D26*
X66500000Y-87500000D02*
X66300000Y-87700000D01*
D25*
X82200000Y-83000000D02*
X82200000Y-85900000D01*
D26*
X64700000Y-87400000D02*
X64900000Y-87600000D01*
X64700000Y-85600000D02*
X64700000Y-84800000D01*
X75750000Y-85750000D02*
X75750000Y-71250000D01*
D24*
X87560661Y-92000000D02*
X89000000Y-92000000D01*
X76000000Y-97489025D02*
X76160975Y-97650000D01*
X75500000Y-103500000D02*
X75500000Y-102500000D01*
D26*
X65300000Y-85000000D02*
X64700000Y-85600000D01*
D24*
X74018447Y-102500000D02*
X70860662Y-105657785D01*
D26*
X65800000Y-85700000D02*
X65800000Y-86500000D01*
D24*
X75500000Y-102500000D02*
X74018447Y-102500000D01*
D26*
X66500000Y-85000000D02*
X65300000Y-85000000D01*
D24*
X79000000Y-107000000D02*
X75500000Y-103500000D01*
X81560661Y-86000000D02*
X87560661Y-92000000D01*
X76000000Y-86000000D02*
X81560661Y-86000000D01*
X93500000Y-116500000D02*
X91500000Y-114500000D01*
D26*
X64700000Y-84800000D02*
X65100000Y-84400000D01*
D24*
%TO.N,AH_Gate*%
X76748528Y-98400000D02*
X78500000Y-100151472D01*
X75751472Y-98400000D02*
X76748528Y-98400000D01*
X78500000Y-100151472D02*
X78500000Y-103500000D01*
X71000000Y-93648528D02*
X75751472Y-98400000D01*
X71000000Y-92500000D02*
X71000000Y-93648528D01*
D26*
%TO.N,GND*%
X113010000Y-65640000D02*
X117160000Y-65640000D01*
X113010000Y-57000000D02*
X117160000Y-57000000D01*
D24*
%TO.N,AL_Gate*%
X106215000Y-100500000D02*
X115255000Y-109540000D01*
X93500000Y-100500000D02*
X106215000Y-100500000D01*
%TO.N,BH_Gate*%
X71385130Y-106500000D02*
X70860662Y-107024468D01*
X83474952Y-115474952D02*
X74500000Y-106500000D01*
X74500000Y-106500000D02*
X71385130Y-106500000D01*
X83474952Y-116824952D02*
X83474952Y-115474952D01*
%TO.N,BL_Gate*%
X88000000Y-93500000D02*
X87479406Y-92979406D01*
X87000000Y-99500000D02*
X109000000Y-121500000D01*
X87000000Y-99500000D02*
X88000000Y-98500000D01*
X109000000Y-121500000D02*
X115500000Y-121500000D01*
X88000000Y-98500000D02*
X88000000Y-93500000D01*
D27*
%TO.N,+3.3V*%
X86900000Y-59100000D02*
X86900000Y-69650000D01*
D24*
X96000000Y-92000000D02*
X96000000Y-73750000D01*
D27*
X95000000Y-57500000D02*
X95000000Y-55500000D01*
X92350000Y-69650000D02*
X86900000Y-69650000D01*
D24*
X96000000Y-73750000D02*
X95000000Y-72750000D01*
X95000000Y-72750000D02*
X95000000Y-72000000D01*
D27*
X92500000Y-69500000D02*
X92350000Y-69650000D01*
X95000000Y-55500000D02*
X90500000Y-55500000D01*
X103000000Y-65500000D02*
X95000000Y-57500000D01*
D24*
X95000000Y-72000000D02*
X92500000Y-69500000D01*
D27*
X71350000Y-69650000D02*
X70000000Y-71000000D01*
X86900000Y-69650000D02*
X71350000Y-69650000D01*
X90500000Y-55500000D02*
X86900000Y-59100000D01*
D26*
%TO.N,Net-(JP3-A)*%
X66000000Y-71200000D02*
X66000000Y-61700000D01*
X66000000Y-61700000D02*
X66500000Y-61200000D01*
D28*
%TO.N,+1V1*%
X98500000Y-63000000D02*
X100565686Y-65065686D01*
X102000000Y-75500000D02*
X100500000Y-77000000D01*
X102000000Y-66500000D02*
X102000000Y-75500000D01*
X100565686Y-65065686D02*
X102000000Y-66500000D01*
X94500000Y-63000000D02*
X98500000Y-63000000D01*
D27*
%TO.N,CH_Gate*%
X72600000Y-117500000D02*
X79000000Y-123900000D01*
X79000000Y-123900000D02*
X79000000Y-132000000D01*
X68500000Y-117500000D02*
X72600000Y-117500000D01*
D24*
%TO.N,CL_Gate*%
X116500000Y-115500000D02*
X116500000Y-125500000D01*
X115000000Y-114000000D02*
X116500000Y-115500000D01*
X115000000Y-136935000D02*
X115065000Y-137000000D01*
X115000000Y-127000000D02*
X115000000Y-136935000D01*
X105000000Y-114000000D02*
X115000000Y-114000000D01*
X90500000Y-99500000D02*
X105000000Y-114000000D01*
X116500000Y-125500000D02*
X115000000Y-127000000D01*
D28*
%TO.N,USB_D-*%
X112977530Y-60895000D02*
X113827530Y-61745000D01*
X113827530Y-61745000D02*
X113860000Y-61745000D01*
X112510000Y-60895000D02*
X112977530Y-60895000D01*
D24*
%TO.N,PHASED*%
X98000000Y-80560661D02*
X104500000Y-74060661D01*
D28*
X102190000Y-95080000D02*
X99530000Y-95080000D01*
X99530000Y-95080000D02*
X98000000Y-93550000D01*
D24*
X104500000Y-74060661D02*
X104500000Y-72987500D01*
X98000000Y-93550000D02*
X98000000Y-80560661D01*
D28*
%TO.N,Net-(U1-RUN)*%
X103500000Y-77000000D02*
X102500000Y-78000000D01*
X102500000Y-78000000D02*
X102500000Y-78500000D01*
X102500000Y-78500000D02*
X101500000Y-79500000D01*
%TD*%
%TA.AperFunction,Conductor*%
%TO.N,GND*%
G36*
X112182778Y-63978547D02*
G01*
X112286923Y-64033207D01*
X112434172Y-64069500D01*
X112586691Y-64069500D01*
X112653730Y-64089185D01*
X112674372Y-64105819D01*
X113015553Y-64447000D01*
X113136000Y-64447000D01*
X113203039Y-64466685D01*
X113248794Y-64519489D01*
X113260000Y-64571000D01*
X113260000Y-64713176D01*
X113264313Y-64753308D01*
X113260000Y-64767995D01*
X113260000Y-65290000D01*
X112760000Y-65290000D01*
X112760000Y-64898553D01*
X112116665Y-64255218D01*
X112310000Y-64255218D01*
X112310000Y-64334782D01*
X112340448Y-64408291D01*
X112396709Y-64464552D01*
X112470218Y-64495000D01*
X112549782Y-64495000D01*
X112623291Y-64464552D01*
X112679552Y-64408291D01*
X112710000Y-64334782D01*
X112710000Y-64255218D01*
X112679552Y-64181709D01*
X112623291Y-64125448D01*
X112549782Y-64095000D01*
X112470218Y-64095000D01*
X112396709Y-64125448D01*
X112340448Y-64181709D01*
X112310000Y-64255218D01*
X112116665Y-64255218D01*
X112037471Y-64176024D01*
X112003986Y-64114701D01*
X112008970Y-64045009D01*
X112050842Y-63989076D01*
X112116306Y-63964659D01*
X112182778Y-63978547D01*
G37*
%TD.AperFunction*%
%TA.AperFunction,Conductor*%
G36*
X114320779Y-63990314D02*
G01*
X114361723Y-64046929D01*
X114365560Y-64116694D01*
X114332525Y-64176025D01*
X113947680Y-64560871D01*
X113886357Y-64594356D01*
X113816666Y-64589372D01*
X113772318Y-64560871D01*
X113594127Y-64382680D01*
X113560642Y-64321357D01*
X113565372Y-64255218D01*
X113660000Y-64255218D01*
X113660000Y-64334782D01*
X113690448Y-64408291D01*
X113746709Y-64464552D01*
X113820218Y-64495000D01*
X113899782Y-64495000D01*
X113973291Y-64464552D01*
X114029552Y-64408291D01*
X114060000Y-64334782D01*
X114060000Y-64255218D01*
X114029552Y-64181709D01*
X113973291Y-64125448D01*
X113899782Y-64095000D01*
X113820218Y-64095000D01*
X113746709Y-64125448D01*
X113690448Y-64181709D01*
X113660000Y-64255218D01*
X113565372Y-64255218D01*
X113565626Y-64251665D01*
X113594127Y-64207317D01*
X113695627Y-64105818D01*
X113756951Y-64072334D01*
X113783308Y-64069500D01*
X113935828Y-64069500D01*
X114083077Y-64033207D01*
X114187221Y-63978547D01*
X114255725Y-63964822D01*
X114320779Y-63990314D01*
G37*
%TD.AperFunction*%
%TA.AperFunction,Conductor*%
G36*
X113903332Y-58050627D02*
G01*
X113947680Y-58079128D01*
X114332527Y-58463974D01*
X114366012Y-58525297D01*
X114361028Y-58594988D01*
X114319157Y-58650922D01*
X114253692Y-58675339D01*
X114187221Y-58661452D01*
X114083075Y-58606792D01*
X113935828Y-58570500D01*
X113784172Y-58570500D01*
X113783309Y-58570500D01*
X113716270Y-58550815D01*
X113695628Y-58534181D01*
X113594128Y-58432681D01*
X113560643Y-58371358D01*
X113565373Y-58305218D01*
X113660000Y-58305218D01*
X113660000Y-58384782D01*
X113690448Y-58458291D01*
X113746709Y-58514552D01*
X113820218Y-58545000D01*
X113899782Y-58545000D01*
X113973291Y-58514552D01*
X114029552Y-58458291D01*
X114060000Y-58384782D01*
X114060000Y-58305218D01*
X114029552Y-58231709D01*
X113973291Y-58175448D01*
X113899782Y-58145000D01*
X113820218Y-58145000D01*
X113746709Y-58175448D01*
X113690448Y-58231709D01*
X113660000Y-58305218D01*
X113565373Y-58305218D01*
X113565627Y-58301666D01*
X113594128Y-58257319D01*
X113772318Y-58079128D01*
X113833641Y-58045643D01*
X113903332Y-58050627D01*
G37*
%TD.AperFunction*%
%TA.AperFunction,Conductor*%
G36*
X113260000Y-57890595D02*
G01*
X113264315Y-57930730D01*
X113260000Y-57945426D01*
X113260000Y-58069000D01*
X113240315Y-58136039D01*
X113187511Y-58181794D01*
X113136000Y-58193000D01*
X113015552Y-58193000D01*
X112674371Y-58534181D01*
X112613048Y-58567666D01*
X112586690Y-58570500D01*
X112434172Y-58570500D01*
X112286926Y-58606792D01*
X112286925Y-58606792D01*
X112286923Y-58606793D01*
X112182775Y-58661454D01*
X112114268Y-58675179D01*
X112049215Y-58649686D01*
X112008271Y-58593070D01*
X112004436Y-58523306D01*
X112037470Y-58463976D01*
X112196228Y-58305218D01*
X112310000Y-58305218D01*
X112310000Y-58384782D01*
X112340448Y-58458291D01*
X112396709Y-58514552D01*
X112470218Y-58545000D01*
X112549782Y-58545000D01*
X112623291Y-58514552D01*
X112679552Y-58458291D01*
X112710000Y-58384782D01*
X112710000Y-58305218D01*
X112679552Y-58231709D01*
X112623291Y-58175448D01*
X112549782Y-58145000D01*
X112470218Y-58145000D01*
X112396709Y-58175448D01*
X112340448Y-58231709D01*
X112310000Y-58305218D01*
X112196228Y-58305218D01*
X112510000Y-57991447D01*
X112759999Y-57741447D01*
X112760000Y-57741446D01*
X112760000Y-57350000D01*
X113260000Y-57350000D01*
X113260000Y-57890595D01*
G37*
%TD.AperFunction*%
%TA.AperFunction,Conductor*%
G36*
X119442539Y-49520185D02*
G01*
X119488294Y-49572989D01*
X119499500Y-49624500D01*
X119499500Y-148375500D01*
X119479815Y-148442539D01*
X119427011Y-148488294D01*
X119375500Y-148499500D01*
X60624500Y-148499500D01*
X60557461Y-148479815D01*
X60511706Y-148427011D01*
X60500500Y-148375500D01*
X60500500Y-144878711D01*
X61649500Y-144878711D01*
X61649500Y-145121288D01*
X61681161Y-145361785D01*
X61743947Y-145596104D01*
X61754379Y-145621288D01*
X61836776Y-145820212D01*
X61958064Y-146030289D01*
X61958066Y-146030292D01*
X61958067Y-146030293D01*
X62105733Y-146222736D01*
X62105739Y-146222743D01*
X62277256Y-146394260D01*
X62277262Y-146394265D01*
X62469711Y-146541936D01*
X62679788Y-146663224D01*
X62903900Y-146756054D01*
X63138211Y-146818838D01*
X63318586Y-146842584D01*
X63378711Y-146850500D01*
X63378712Y-146850500D01*
X63621289Y-146850500D01*
X63669388Y-146844167D01*
X63861789Y-146818838D01*
X64096100Y-146756054D01*
X64320212Y-146663224D01*
X64530289Y-146541936D01*
X64722738Y-146394265D01*
X64894265Y-146222738D01*
X65041936Y-146030289D01*
X65163224Y-145820212D01*
X65256054Y-145596100D01*
X65314304Y-145378711D01*
X114649500Y-145378711D01*
X114649500Y-145621288D01*
X114681161Y-145861785D01*
X114743947Y-146096104D01*
X114796400Y-146222736D01*
X114836776Y-146320212D01*
X114958064Y-146530289D01*
X114958066Y-146530292D01*
X114958067Y-146530293D01*
X115105733Y-146722736D01*
X115105739Y-146722743D01*
X115277256Y-146894260D01*
X115277262Y-146894265D01*
X115469711Y-147041936D01*
X115679788Y-147163224D01*
X115903900Y-147256054D01*
X116138211Y-147318838D01*
X116318586Y-147342584D01*
X116378711Y-147350500D01*
X116378712Y-147350500D01*
X116621289Y-147350500D01*
X116669388Y-147344167D01*
X116861789Y-147318838D01*
X117096100Y-147256054D01*
X117320212Y-147163224D01*
X117530289Y-147041936D01*
X117722738Y-146894265D01*
X117894265Y-146722738D01*
X118041936Y-146530289D01*
X118163224Y-146320212D01*
X118256054Y-146096100D01*
X118318838Y-145861789D01*
X118350500Y-145621288D01*
X118350500Y-145378712D01*
X118318838Y-145138211D01*
X118256054Y-144903900D01*
X118163224Y-144679788D01*
X118041936Y-144469711D01*
X117894265Y-144277262D01*
X117894260Y-144277256D01*
X117722743Y-144105739D01*
X117722736Y-144105733D01*
X117530293Y-143958067D01*
X117530292Y-143958066D01*
X117530289Y-143958064D01*
X117320212Y-143836776D01*
X117320205Y-143836773D01*
X117096104Y-143743947D01*
X116861785Y-143681161D01*
X116621289Y-143649500D01*
X116621288Y-143649500D01*
X116378712Y-143649500D01*
X116378711Y-143649500D01*
X116138214Y-143681161D01*
X115903895Y-143743947D01*
X115679794Y-143836773D01*
X115679785Y-143836777D01*
X115469706Y-143958067D01*
X115277263Y-144105733D01*
X115277256Y-144105739D01*
X115105739Y-144277256D01*
X115105733Y-144277263D01*
X114958067Y-144469706D01*
X114836777Y-144679785D01*
X114836773Y-144679794D01*
X114743947Y-144903895D01*
X114681161Y-145138214D01*
X114649500Y-145378711D01*
X65314304Y-145378711D01*
X65318838Y-145361789D01*
X65350500Y-145121288D01*
X65350500Y-144878712D01*
X65318838Y-144638211D01*
X65256054Y-144403900D01*
X65163224Y-144179788D01*
X65041936Y-143969711D01*
X64894265Y-143777262D01*
X64894260Y-143777256D01*
X64722743Y-143605739D01*
X64722736Y-143605733D01*
X64530293Y-143458067D01*
X64530292Y-143458066D01*
X64530289Y-143458064D01*
X64320212Y-143336776D01*
X64320205Y-143336773D01*
X64096104Y-143243947D01*
X63861785Y-143181161D01*
X63621289Y-143149500D01*
X63621288Y-143149500D01*
X63378712Y-143149500D01*
X63378711Y-143149500D01*
X63138214Y-143181161D01*
X62903895Y-143243947D01*
X62679794Y-143336773D01*
X62679785Y-143336777D01*
X62469706Y-143458067D01*
X62277263Y-143605733D01*
X62277256Y-143605739D01*
X62105739Y-143777256D01*
X62105733Y-143777263D01*
X61958067Y-143969706D01*
X61836777Y-144179785D01*
X61836773Y-144179794D01*
X61743947Y-144403895D01*
X61681161Y-144638214D01*
X61649500Y-144878711D01*
X60500500Y-144878711D01*
X60500500Y-132603435D01*
X64719500Y-132603435D01*
X64719500Y-132806564D01*
X64751277Y-133007194D01*
X64751277Y-133007197D01*
X64814045Y-133200377D01*
X64906268Y-133381372D01*
X65025656Y-133545697D01*
X65025660Y-133545702D01*
X65169297Y-133689339D01*
X65169302Y-133689343D01*
X65312635Y-133793480D01*
X65333631Y-133808734D01*
X65514620Y-133900953D01*
X65514622Y-133900954D01*
X65707803Y-133963722D01*
X65707804Y-133963722D01*
X65707807Y-133963723D01*
X65908435Y-133995500D01*
X65908436Y-133995500D01*
X68091564Y-133995500D01*
X68091565Y-133995500D01*
X68292193Y-133963723D01*
X68292196Y-133963722D01*
X68292197Y-133963722D01*
X68485377Y-133900954D01*
X68485377Y-133900953D01*
X68485380Y-133900953D01*
X68666369Y-133808734D01*
X68830704Y-133689338D01*
X68974338Y-133545704D01*
X69093734Y-133381369D01*
X69185953Y-133200380D01*
X69248723Y-133007193D01*
X69280500Y-132806565D01*
X69280500Y-132603435D01*
X69248723Y-132402807D01*
X69248722Y-132402803D01*
X69248722Y-132402802D01*
X69185954Y-132209622D01*
X69159049Y-132156818D01*
X69093734Y-132028631D01*
X69072932Y-131999999D01*
X68974343Y-131864302D01*
X68974339Y-131864297D01*
X68830702Y-131720660D01*
X68830697Y-131720656D01*
X68666372Y-131601268D01*
X68666371Y-131601267D01*
X68666369Y-131601266D01*
X68575874Y-131555156D01*
X68485377Y-131509045D01*
X68292196Y-131446277D01*
X68141722Y-131422444D01*
X68091565Y-131414500D01*
X65908435Y-131414500D01*
X65841559Y-131425092D01*
X65707805Y-131446277D01*
X65707802Y-131446277D01*
X65514622Y-131509045D01*
X65333627Y-131601268D01*
X65169302Y-131720656D01*
X65169297Y-131720660D01*
X65025660Y-131864297D01*
X65025656Y-131864302D01*
X64906268Y-132028627D01*
X64814045Y-132209622D01*
X64751277Y-132402802D01*
X64751277Y-132402805D01*
X64719500Y-132603435D01*
X60500500Y-132603435D01*
X60500500Y-127603435D01*
X64719500Y-127603435D01*
X64719500Y-127806564D01*
X64751277Y-128007194D01*
X64751277Y-128007197D01*
X64814045Y-128200377D01*
X64906268Y-128381372D01*
X65025656Y-128545697D01*
X65025660Y-128545702D01*
X65169297Y-128689339D01*
X65169302Y-128689343D01*
X65312635Y-128793480D01*
X65333631Y-128808734D01*
X65514620Y-128900953D01*
X65514622Y-128900954D01*
X65707803Y-128963722D01*
X65707804Y-128963722D01*
X65707807Y-128963723D01*
X65908435Y-128995500D01*
X65908436Y-128995500D01*
X68091564Y-128995500D01*
X68091565Y-128995500D01*
X68292193Y-128963723D01*
X68292196Y-128963722D01*
X68292197Y-128963722D01*
X68485377Y-128900954D01*
X68485377Y-128900953D01*
X68485380Y-128900953D01*
X68666369Y-128808734D01*
X68830704Y-128689338D01*
X68974338Y-128545704D01*
X69093734Y-128381369D01*
X69185953Y-128200380D01*
X69248723Y-128007193D01*
X69280500Y-127806565D01*
X69280500Y-127603435D01*
X69248723Y-127402807D01*
X69248722Y-127402803D01*
X69248722Y-127402802D01*
X69185954Y-127209622D01*
X69166272Y-127170995D01*
X69093734Y-127028631D01*
X69078480Y-127007635D01*
X68974343Y-126864302D01*
X68974339Y-126864297D01*
X68830702Y-126720660D01*
X68830697Y-126720656D01*
X68666372Y-126601268D01*
X68666371Y-126601267D01*
X68666369Y-126601266D01*
X68575874Y-126555156D01*
X68485377Y-126509045D01*
X68292196Y-126446277D01*
X68141722Y-126422444D01*
X68091565Y-126414500D01*
X65908435Y-126414500D01*
X65841559Y-126425092D01*
X65707805Y-126446277D01*
X65707802Y-126446277D01*
X65514622Y-126509045D01*
X65333627Y-126601268D01*
X65169302Y-126720656D01*
X65169297Y-126720660D01*
X65025660Y-126864297D01*
X65025656Y-126864302D01*
X64906268Y-127028627D01*
X64814045Y-127209622D01*
X64751277Y-127402802D01*
X64751277Y-127402805D01*
X64719500Y-127603435D01*
X60500500Y-127603435D01*
X60500500Y-121670131D01*
X64719500Y-121670131D01*
X64719500Y-123739856D01*
X64719502Y-123739882D01*
X64722413Y-123764987D01*
X64722415Y-123764991D01*
X64767793Y-123867764D01*
X64767794Y-123867765D01*
X64847235Y-123947206D01*
X64950009Y-123992585D01*
X64975135Y-123995500D01*
X69024864Y-123995499D01*
X69024879Y-123995497D01*
X69024882Y-123995497D01*
X69049987Y-123992586D01*
X69049988Y-123992585D01*
X69049991Y-123992585D01*
X69152765Y-123947206D01*
X69232206Y-123867765D01*
X69277585Y-123764991D01*
X69280500Y-123739865D01*
X69280499Y-121670136D01*
X69280497Y-121670117D01*
X69277586Y-121645012D01*
X69277585Y-121645010D01*
X69277585Y-121645009D01*
X69232206Y-121542235D01*
X69152765Y-121462794D01*
X69152763Y-121462793D01*
X69049992Y-121417415D01*
X69024865Y-121414500D01*
X64975143Y-121414500D01*
X64975117Y-121414502D01*
X64950012Y-121417413D01*
X64950008Y-121417415D01*
X64847235Y-121462793D01*
X64767794Y-121542234D01*
X64722415Y-121645006D01*
X64722415Y-121645008D01*
X64719500Y-121670131D01*
X60500500Y-121670131D01*
X60500500Y-117499999D01*
X67844722Y-117499999D01*
X67844722Y-117500000D01*
X67863762Y-117656818D01*
X67919780Y-117804523D01*
X68009517Y-117934530D01*
X68127760Y-118039283D01*
X68127762Y-118039284D01*
X68267634Y-118112696D01*
X68421014Y-118150500D01*
X68421015Y-118150500D01*
X68578985Y-118150500D01*
X68732365Y-118112696D01*
X68739377Y-118110037D01*
X68740069Y-118111862D01*
X68786166Y-118100500D01*
X72299903Y-118100500D01*
X72366942Y-118120185D01*
X72387584Y-118136819D01*
X78363181Y-124112416D01*
X78396666Y-124173739D01*
X78399500Y-124200097D01*
X78399500Y-131726227D01*
X78391442Y-131770198D01*
X78363763Y-131843181D01*
X78344722Y-131999999D01*
X78344722Y-132000000D01*
X78363762Y-132156818D01*
X78419780Y-132304523D01*
X78509517Y-132434530D01*
X78627760Y-132539283D01*
X78627762Y-132539284D01*
X78767634Y-132612696D01*
X78921014Y-132650500D01*
X78921015Y-132650500D01*
X79078985Y-132650500D01*
X79232365Y-132612696D01*
X79250010Y-132603435D01*
X79372240Y-132539283D01*
X79490483Y-132434530D01*
X79580220Y-132304523D01*
X79636237Y-132156818D01*
X79655278Y-132000000D01*
X79636237Y-131843182D01*
X79608558Y-131770198D01*
X79600500Y-131726227D01*
X79600500Y-123989060D01*
X79600501Y-123989047D01*
X79600501Y-123820945D01*
X79600501Y-123820943D01*
X79559577Y-123668215D01*
X79480520Y-123531284D01*
X73087589Y-117138354D01*
X73087588Y-117138352D01*
X72968717Y-117019481D01*
X72968712Y-117019477D01*
X72853877Y-116953178D01*
X72831785Y-116940423D01*
X72679057Y-116899499D01*
X72520943Y-116899499D01*
X72513347Y-116899499D01*
X72513331Y-116899500D01*
X68786166Y-116899500D01*
X68740069Y-116888137D01*
X68739377Y-116889963D01*
X68732365Y-116887303D01*
X68578986Y-116849500D01*
X68578985Y-116849500D01*
X68421015Y-116849500D01*
X68421014Y-116849500D01*
X68267634Y-116887303D01*
X68127762Y-116960715D01*
X68009516Y-117065471D01*
X67919781Y-117195475D01*
X67919780Y-117195476D01*
X67863762Y-117343181D01*
X67844722Y-117499999D01*
X60500500Y-117499999D01*
X60500500Y-105880329D01*
X70254980Y-105880329D01*
X70254980Y-105880332D01*
X70275617Y-106037091D01*
X70275618Y-106037093D01*
X70336126Y-106183172D01*
X70432380Y-106308613D01*
X70432381Y-106308614D01*
X70491560Y-106354023D01*
X70532763Y-106410451D01*
X70536918Y-106480197D01*
X70502706Y-106541117D01*
X70491561Y-106550774D01*
X70432382Y-106596183D01*
X70336125Y-106721628D01*
X70275618Y-106867705D01*
X70275617Y-106867707D01*
X70254980Y-107024466D01*
X70254980Y-107024469D01*
X70275617Y-107181228D01*
X70275618Y-107181230D01*
X70336126Y-107327309D01*
X70432380Y-107452750D01*
X70557821Y-107549004D01*
X70703900Y-107609512D01*
X70782281Y-107619831D01*
X70860661Y-107630150D01*
X70860662Y-107630150D01*
X70860663Y-107630150D01*
X70912916Y-107623270D01*
X71017424Y-107609512D01*
X71163503Y-107549004D01*
X71288944Y-107452750D01*
X71385198Y-107327309D01*
X71445706Y-107181230D01*
X71445706Y-107181222D01*
X71447811Y-107173374D01*
X71449755Y-107173895D01*
X71473629Y-107119924D01*
X71480624Y-107112319D01*
X71556126Y-107036818D01*
X71617450Y-107003334D01*
X71643807Y-107000500D01*
X74241324Y-107000500D01*
X74308363Y-107020185D01*
X74329005Y-107036819D01*
X82938133Y-115645947D01*
X82971618Y-115707270D01*
X82974452Y-115733628D01*
X82974452Y-116448694D01*
X82954767Y-116515733D01*
X82951025Y-116521055D01*
X82950417Y-116522108D01*
X82889908Y-116668189D01*
X82889907Y-116668191D01*
X82869270Y-116824950D01*
X82869270Y-116824953D01*
X82889907Y-116981712D01*
X82889908Y-116981714D01*
X82950416Y-117127793D01*
X83046670Y-117253234D01*
X83172111Y-117349488D01*
X83318190Y-117409996D01*
X83396571Y-117420315D01*
X83474951Y-117430634D01*
X83474952Y-117430634D01*
X83474953Y-117430634D01*
X83527206Y-117423754D01*
X83631714Y-117409996D01*
X83777793Y-117349488D01*
X83903234Y-117253234D01*
X83999488Y-117127793D01*
X84059996Y-116981714D01*
X84080634Y-116824952D01*
X84059996Y-116668190D01*
X83999488Y-116522111D01*
X83999486Y-116522108D01*
X83995424Y-116515071D01*
X83997165Y-116514065D01*
X83975882Y-116459009D01*
X83975452Y-116448694D01*
X83975452Y-115409062D01*
X83975451Y-115409058D01*
X83948056Y-115306814D01*
X83941344Y-115281766D01*
X83875452Y-115167638D01*
X83782266Y-115074452D01*
X74807314Y-106099500D01*
X74750250Y-106066554D01*
X74693187Y-106033608D01*
X74629539Y-106016554D01*
X74565892Y-105999500D01*
X74565891Y-105999500D01*
X71590344Y-105999500D01*
X71523305Y-105979815D01*
X71477550Y-105927011D01*
X71469099Y-105888167D01*
X71467405Y-105888391D01*
X71466344Y-105880331D01*
X71460316Y-105834549D01*
X71471080Y-105765518D01*
X71495571Y-105730688D01*
X74189442Y-103036819D01*
X74250765Y-103003334D01*
X74277123Y-103000500D01*
X74875500Y-103000500D01*
X74942539Y-103020185D01*
X74988294Y-103072989D01*
X74999500Y-103124500D01*
X74999500Y-103565891D01*
X75033608Y-103693187D01*
X75066554Y-103750250D01*
X75099500Y-103807314D01*
X75099502Y-103807316D01*
X78380038Y-107087852D01*
X78413523Y-107149175D01*
X78414641Y-107155588D01*
X78414954Y-107156758D01*
X78425090Y-107181228D01*
X78475464Y-107302841D01*
X78571718Y-107428282D01*
X78697159Y-107524536D01*
X78843238Y-107585044D01*
X78843243Y-107585044D01*
X78851094Y-107587149D01*
X78850572Y-107589093D01*
X78904544Y-107612967D01*
X78912148Y-107619962D01*
X86192686Y-114900500D01*
X86306814Y-114966392D01*
X86434108Y-115000500D01*
X86565893Y-115000500D01*
X91123743Y-115000500D01*
X91190782Y-115020185D01*
X91196099Y-115023924D01*
X91197157Y-115024534D01*
X91197159Y-115024536D01*
X91197160Y-115024536D01*
X91197163Y-115024538D01*
X91270198Y-115054790D01*
X91343238Y-115085044D01*
X91343244Y-115085044D01*
X91351094Y-115087149D01*
X91350572Y-115089093D01*
X91404544Y-115112967D01*
X91412148Y-115119962D01*
X92963181Y-116670995D01*
X92996666Y-116732318D01*
X92999500Y-116758676D01*
X92999500Y-127623742D01*
X92979815Y-127690781D01*
X92976073Y-127696103D01*
X92975465Y-127697156D01*
X92914956Y-127843237D01*
X92914955Y-127843239D01*
X92894318Y-127999998D01*
X92894318Y-128000001D01*
X92914955Y-128156760D01*
X92914956Y-128156762D01*
X92975464Y-128302841D01*
X93071718Y-128428282D01*
X93197159Y-128524536D01*
X93343238Y-128585044D01*
X93421619Y-128595363D01*
X93499999Y-128605682D01*
X93500000Y-128605682D01*
X93500001Y-128605682D01*
X93552254Y-128598802D01*
X93656762Y-128585044D01*
X93802841Y-128524536D01*
X93928282Y-128428282D01*
X94024536Y-128302841D01*
X94085044Y-128156762D01*
X94105682Y-128000000D01*
X94085044Y-127843238D01*
X94024536Y-127697159D01*
X94024534Y-127697156D01*
X94020472Y-127690119D01*
X94022213Y-127689113D01*
X94000930Y-127634057D01*
X94000500Y-127623742D01*
X94000500Y-116434109D01*
X94000500Y-116434108D01*
X93994294Y-116410948D01*
X93966392Y-116306814D01*
X93900500Y-116192686D01*
X92119962Y-114412148D01*
X92086477Y-114350825D01*
X92085361Y-114344423D01*
X92085044Y-114343243D01*
X92085044Y-114343238D01*
X92024536Y-114197159D01*
X91928282Y-114071718D01*
X91802841Y-113975464D01*
X91773187Y-113963181D01*
X91656762Y-113914956D01*
X91656760Y-113914955D01*
X91500001Y-113894318D01*
X91499999Y-113894318D01*
X91343239Y-113914955D01*
X91343234Y-113914957D01*
X91197163Y-113975461D01*
X91190124Y-113979526D01*
X91189117Y-113977783D01*
X91134068Y-113999069D01*
X91123743Y-113999500D01*
X86758676Y-113999500D01*
X86691637Y-113979815D01*
X86670995Y-113963181D01*
X79619962Y-106912148D01*
X79586477Y-106850825D01*
X79585361Y-106844423D01*
X79585044Y-106843243D01*
X79585044Y-106843238D01*
X79524536Y-106697159D01*
X79428282Y-106571718D01*
X79302841Y-106475464D01*
X79302839Y-106475463D01*
X79156758Y-106414954D01*
X79148911Y-106412852D01*
X79149430Y-106410911D01*
X79095443Y-106387023D01*
X79087852Y-106380038D01*
X76036819Y-103329005D01*
X76003334Y-103267682D01*
X76000500Y-103241324D01*
X76000500Y-102876257D01*
X76020185Y-102809218D01*
X76023924Y-102803900D01*
X76024532Y-102802845D01*
X76024536Y-102802841D01*
X76085044Y-102656762D01*
X76105682Y-102500000D01*
X76085044Y-102343238D01*
X76024536Y-102197159D01*
X75928282Y-102071718D01*
X75802841Y-101975464D01*
X75656762Y-101914956D01*
X75656760Y-101914955D01*
X75500001Y-101894318D01*
X75499999Y-101894318D01*
X75343239Y-101914955D01*
X75343234Y-101914957D01*
X75197163Y-101975461D01*
X75190124Y-101979526D01*
X75189117Y-101977783D01*
X75134068Y-101999069D01*
X75123743Y-101999500D01*
X73952554Y-101999500D01*
X73825259Y-102033608D01*
X73711133Y-102099500D01*
X73711130Y-102099502D01*
X70460164Y-105350468D01*
X70460162Y-105350471D01*
X70394269Y-105464599D01*
X70394269Y-105464600D01*
X70385371Y-105497807D01*
X70363974Y-105541196D01*
X70336126Y-105577489D01*
X70275618Y-105723568D01*
X70275617Y-105723570D01*
X70254980Y-105880329D01*
X60500500Y-105880329D01*
X60500500Y-100099999D01*
X61495197Y-100099999D01*
X61495197Y-100100000D01*
X61514397Y-100466353D01*
X61571784Y-100828684D01*
X61571784Y-100828686D01*
X61666736Y-101183051D01*
X61798204Y-101525535D01*
X61920410Y-101765375D01*
X62844576Y-100841208D01*
X62955237Y-101108366D01*
X63104348Y-101366634D01*
X63285895Y-101603230D01*
X63496770Y-101814105D01*
X63733366Y-101995652D01*
X63991634Y-102144763D01*
X64258789Y-102255422D01*
X63334622Y-103179588D01*
X63574464Y-103301795D01*
X63916948Y-103433263D01*
X64271314Y-103528215D01*
X64633646Y-103585602D01*
X64999999Y-103604803D01*
X65000001Y-103604803D01*
X65366353Y-103585602D01*
X65728684Y-103528215D01*
X65728686Y-103528215D01*
X66083051Y-103433263D01*
X66425535Y-103301795D01*
X66665376Y-103179588D01*
X65741210Y-102255422D01*
X66008366Y-102144763D01*
X66266634Y-101995652D01*
X66503230Y-101814105D01*
X66714105Y-101603230D01*
X66895652Y-101366634D01*
X67044763Y-101108366D01*
X67155422Y-100841210D01*
X68079588Y-101765376D01*
X68201795Y-101525535D01*
X68333263Y-101183051D01*
X68428215Y-100828686D01*
X68428215Y-100828684D01*
X68485602Y-100466353D01*
X68504803Y-100100000D01*
X68504803Y-100099999D01*
X68485602Y-99733646D01*
X68428215Y-99371315D01*
X68428215Y-99371313D01*
X68333263Y-99016948D01*
X68201795Y-98674464D01*
X68079588Y-98434622D01*
X67155422Y-99358788D01*
X67044763Y-99091634D01*
X66895652Y-98833366D01*
X66714105Y-98596770D01*
X66503230Y-98385895D01*
X66266634Y-98204348D01*
X66008366Y-98055237D01*
X65741208Y-97944576D01*
X66665375Y-97020410D01*
X66425535Y-96898204D01*
X66083051Y-96766736D01*
X65728685Y-96671784D01*
X65366353Y-96614397D01*
X65000001Y-96595197D01*
X64999999Y-96595197D01*
X64633646Y-96614397D01*
X64271315Y-96671784D01*
X64271313Y-96671784D01*
X63916948Y-96766736D01*
X63574464Y-96898204D01*
X63334623Y-97020410D01*
X64258790Y-97944577D01*
X63991634Y-98055237D01*
X63733366Y-98204348D01*
X63496770Y-98385895D01*
X63285895Y-98596770D01*
X63104348Y-98833366D01*
X62955237Y-99091634D01*
X62844577Y-99358790D01*
X61920410Y-98434623D01*
X61798204Y-98674464D01*
X61666736Y-99016948D01*
X61571784Y-99371313D01*
X61571784Y-99371315D01*
X61514397Y-99733646D01*
X61495197Y-100099999D01*
X60500500Y-100099999D01*
X60500500Y-89855131D01*
X61699500Y-89855131D01*
X61699500Y-95944856D01*
X61699502Y-95944882D01*
X61702413Y-95969987D01*
X61702415Y-95969991D01*
X61747793Y-96072764D01*
X61747794Y-96072765D01*
X61827235Y-96152206D01*
X61930009Y-96197585D01*
X61955135Y-96200500D01*
X68044864Y-96200499D01*
X68044879Y-96200497D01*
X68044882Y-96200497D01*
X68069987Y-96197586D01*
X68069988Y-96197585D01*
X68069991Y-96197585D01*
X68172765Y-96152206D01*
X68252206Y-96072765D01*
X68297585Y-95969991D01*
X68300500Y-95944865D01*
X68300499Y-89855136D01*
X68300497Y-89855117D01*
X68297586Y-89830012D01*
X68297585Y-89830010D01*
X68297585Y-89830009D01*
X68252206Y-89727235D01*
X68172765Y-89647794D01*
X68169714Y-89646447D01*
X68069992Y-89602415D01*
X68044865Y-89599500D01*
X61955143Y-89599500D01*
X61955117Y-89599502D01*
X61930012Y-89602413D01*
X61930008Y-89602415D01*
X61827235Y-89647793D01*
X61747794Y-89727234D01*
X61702415Y-89830006D01*
X61702415Y-89830008D01*
X61699500Y-89855131D01*
X60500500Y-89855131D01*
X60500500Y-84721153D01*
X63899500Y-84721153D01*
X63899500Y-87478846D01*
X63930261Y-87633489D01*
X63930264Y-87633501D01*
X63990602Y-87779172D01*
X63990609Y-87779185D01*
X64078210Y-87910288D01*
X64078213Y-87910292D01*
X64178214Y-88010292D01*
X64278211Y-88110289D01*
X64378211Y-88210289D01*
X64489711Y-88321789D01*
X64620821Y-88409394D01*
X64723833Y-88452062D01*
X64766502Y-88469737D01*
X64921152Y-88500499D01*
X64921155Y-88500500D01*
X64921157Y-88500500D01*
X66378844Y-88500500D01*
X66378845Y-88500499D01*
X66533497Y-88469737D01*
X66679179Y-88409394D01*
X66810289Y-88321789D01*
X67121789Y-88010289D01*
X67209394Y-87879179D01*
X67269738Y-87733497D01*
X67300500Y-87578842D01*
X67300500Y-87421157D01*
X67300500Y-87382940D01*
X67320185Y-87315901D01*
X67336819Y-87295259D01*
X68095259Y-86536819D01*
X68156582Y-86503334D01*
X68182940Y-86500500D01*
X75317060Y-86500500D01*
X75384099Y-86520185D01*
X75404741Y-86536819D01*
X75463181Y-86595259D01*
X75496666Y-86656582D01*
X75499500Y-86682940D01*
X75499500Y-97140852D01*
X75479815Y-97207891D01*
X75427011Y-97253646D01*
X75357853Y-97263590D01*
X75294297Y-97234565D01*
X75287819Y-97228533D01*
X71536819Y-93477533D01*
X71503334Y-93416210D01*
X71500500Y-93389852D01*
X71500500Y-92876257D01*
X71520185Y-92809218D01*
X71523924Y-92803900D01*
X71524532Y-92802845D01*
X71524536Y-92802841D01*
X71585044Y-92656762D01*
X71605682Y-92500000D01*
X71585044Y-92343238D01*
X71524536Y-92197159D01*
X71428282Y-92071718D01*
X71302841Y-91975464D01*
X71156762Y-91914956D01*
X71156760Y-91914955D01*
X71000001Y-91894318D01*
X70999999Y-91894318D01*
X70843239Y-91914955D01*
X70843237Y-91914956D01*
X70697160Y-91975463D01*
X70571718Y-92071718D01*
X70475463Y-92197160D01*
X70414956Y-92343237D01*
X70414955Y-92343239D01*
X70394318Y-92499998D01*
X70394318Y-92500001D01*
X70414955Y-92656760D01*
X70414957Y-92656765D01*
X70475461Y-92802836D01*
X70479526Y-92809876D01*
X70477783Y-92810882D01*
X70499069Y-92865932D01*
X70499500Y-92876257D01*
X70499500Y-93714419D01*
X70533608Y-93841715D01*
X70540031Y-93852839D01*
X70599500Y-93955842D01*
X75444158Y-98800500D01*
X75558286Y-98866392D01*
X75685579Y-98900500D01*
X75685580Y-98900500D01*
X76489852Y-98900500D01*
X76556891Y-98920185D01*
X76577533Y-98936819D01*
X77963181Y-100322467D01*
X77996666Y-100383790D01*
X77999500Y-100410148D01*
X77999500Y-103123742D01*
X77979815Y-103190781D01*
X77976073Y-103196103D01*
X77975465Y-103197156D01*
X77914956Y-103343237D01*
X77914955Y-103343239D01*
X77894318Y-103499998D01*
X77894318Y-103500001D01*
X77914955Y-103656760D01*
X77914956Y-103656762D01*
X77975464Y-103802841D01*
X78071718Y-103928282D01*
X78197159Y-104024536D01*
X78343238Y-104085044D01*
X78421619Y-104095363D01*
X78499999Y-104105682D01*
X78500000Y-104105682D01*
X78500001Y-104105682D01*
X78552254Y-104098802D01*
X78656762Y-104085044D01*
X78802841Y-104024536D01*
X78928282Y-103928282D01*
X79024536Y-103802841D01*
X79085044Y-103656762D01*
X79098802Y-103552254D01*
X79105682Y-103500001D01*
X79105682Y-103499998D01*
X79085044Y-103343239D01*
X79085044Y-103343238D01*
X79024536Y-103197159D01*
X79024534Y-103197156D01*
X79020472Y-103190119D01*
X79022213Y-103189113D01*
X79000930Y-103134057D01*
X79000500Y-103123742D01*
X79000500Y-100085579D01*
X79000356Y-100085043D01*
X79000335Y-100084965D01*
X78984143Y-100024536D01*
X78966392Y-99958286D01*
X78900499Y-99844157D01*
X77055842Y-97999500D01*
X76961794Y-97945201D01*
X76941715Y-97933608D01*
X76892936Y-97920538D01*
X76841595Y-97906781D01*
X76781935Y-97870417D01*
X76751406Y-97807570D01*
X76750750Y-97770825D01*
X76766657Y-97650000D01*
X76762707Y-97620000D01*
X76746019Y-97493239D01*
X76746019Y-97493238D01*
X76685511Y-97347159D01*
X76589257Y-97221718D01*
X76589255Y-97221716D01*
X76589254Y-97221715D01*
X76549012Y-97190836D01*
X76507810Y-97134407D01*
X76500500Y-97092461D01*
X76500500Y-86924500D01*
X76520185Y-86857461D01*
X76572989Y-86811706D01*
X76624500Y-86800500D01*
X81601985Y-86800500D01*
X81669024Y-86820185D01*
X81689666Y-86836819D01*
X87150793Y-92297946D01*
X87184278Y-92359269D01*
X87179294Y-92428961D01*
X87138598Y-92484003D01*
X87051126Y-92551122D01*
X87051125Y-92551123D01*
X87051124Y-92551124D01*
X87019447Y-92592407D01*
X86954869Y-92676566D01*
X86894362Y-92822643D01*
X86894361Y-92822645D01*
X86873724Y-92979404D01*
X86873724Y-92979407D01*
X86894361Y-93136166D01*
X86894362Y-93136168D01*
X86917772Y-93192686D01*
X86954870Y-93282247D01*
X87051124Y-93407688D01*
X87176565Y-93503942D01*
X87322644Y-93564450D01*
X87322649Y-93564450D01*
X87330500Y-93566555D01*
X87329978Y-93568499D01*
X87383950Y-93592373D01*
X87391554Y-93599368D01*
X87463181Y-93670995D01*
X87496666Y-93732318D01*
X87499500Y-93758676D01*
X87499500Y-98241323D01*
X87479815Y-98308362D01*
X87463181Y-98329004D01*
X86912146Y-98880038D01*
X86850823Y-98913523D01*
X86844415Y-98914640D01*
X86843241Y-98914954D01*
X86697160Y-98975463D01*
X86571718Y-99071718D01*
X86475463Y-99197160D01*
X86414956Y-99343237D01*
X86414955Y-99343239D01*
X86394318Y-99499998D01*
X86394318Y-99500001D01*
X86414955Y-99656760D01*
X86414956Y-99656762D01*
X86475464Y-99802841D01*
X86571718Y-99928282D01*
X86697159Y-100024536D01*
X86843238Y-100085044D01*
X86843243Y-100085044D01*
X86851094Y-100087149D01*
X86850572Y-100089093D01*
X86904544Y-100112967D01*
X86912148Y-100119962D01*
X108599500Y-121807314D01*
X108692686Y-121900500D01*
X108692688Y-121900501D01*
X108692692Y-121900504D01*
X108716073Y-121914003D01*
X108716078Y-121914005D01*
X108806808Y-121966389D01*
X108806809Y-121966389D01*
X108806814Y-121966392D01*
X108934107Y-122000500D01*
X108934108Y-122000500D01*
X115123743Y-122000500D01*
X115190782Y-122020185D01*
X115196099Y-122023924D01*
X115197157Y-122024534D01*
X115197159Y-122024536D01*
X115197160Y-122024536D01*
X115197163Y-122024538D01*
X115270198Y-122054790D01*
X115343238Y-122085044D01*
X115421619Y-122095363D01*
X115499999Y-122105682D01*
X115500000Y-122105682D01*
X115500001Y-122105682D01*
X115552254Y-122098802D01*
X115656762Y-122085044D01*
X115802841Y-122024536D01*
X115802845Y-122024532D01*
X115809881Y-122020472D01*
X115811023Y-122022451D01*
X115865172Y-122001512D01*
X115933618Y-122015544D01*
X115983612Y-122064354D01*
X115999500Y-122125081D01*
X115999500Y-125241324D01*
X115979815Y-125308363D01*
X115963181Y-125329005D01*
X114599502Y-126692683D01*
X114599500Y-126692686D01*
X114533608Y-126806812D01*
X114499500Y-126934108D01*
X114499500Y-136771389D01*
X114490062Y-136818840D01*
X114479956Y-136843238D01*
X114479955Y-136843239D01*
X114459318Y-136999998D01*
X114459318Y-137000001D01*
X114479955Y-137156760D01*
X114479956Y-137156762D01*
X114540464Y-137302841D01*
X114636718Y-137428282D01*
X114762159Y-137524536D01*
X114908238Y-137585044D01*
X114986619Y-137595363D01*
X115064999Y-137605682D01*
X115065000Y-137605682D01*
X115065001Y-137605682D01*
X115117254Y-137598802D01*
X115221762Y-137585044D01*
X115367841Y-137524536D01*
X115493282Y-137428282D01*
X115589536Y-137302841D01*
X115650044Y-137156762D01*
X115670682Y-137000000D01*
X115650044Y-136843238D01*
X115589536Y-136697159D01*
X115589535Y-136697158D01*
X115589535Y-136697157D01*
X115526124Y-136614518D01*
X115500930Y-136549349D01*
X115500500Y-136539032D01*
X115500500Y-127258676D01*
X115520185Y-127191637D01*
X115536819Y-127170995D01*
X116198769Y-126509045D01*
X116900499Y-125807315D01*
X116966392Y-125693186D01*
X117000500Y-125565893D01*
X117000500Y-125434108D01*
X117000500Y-115434108D01*
X116993788Y-115409060D01*
X116966392Y-115306814D01*
X116900499Y-115192685D01*
X115307314Y-113599500D01*
X115250250Y-113566554D01*
X115193187Y-113533608D01*
X115129539Y-113516554D01*
X115065892Y-113499500D01*
X115065891Y-113499500D01*
X105258676Y-113499500D01*
X105191637Y-113479815D01*
X105170995Y-113463181D01*
X92207812Y-100499998D01*
X92894318Y-100499998D01*
X92894318Y-100500001D01*
X92914955Y-100656760D01*
X92914956Y-100656762D01*
X92975464Y-100802841D01*
X93071718Y-100928282D01*
X93197159Y-101024536D01*
X93343238Y-101085044D01*
X93421619Y-101095363D01*
X93499999Y-101105682D01*
X93500000Y-101105682D01*
X93500001Y-101105682D01*
X93552254Y-101098802D01*
X93656762Y-101085044D01*
X93802841Y-101024536D01*
X93802845Y-101024532D01*
X93809876Y-101020474D01*
X93810882Y-101022216D01*
X93865932Y-101000931D01*
X93876257Y-101000500D01*
X105956324Y-101000500D01*
X106023363Y-101020185D01*
X106044005Y-101036819D01*
X114635038Y-109627852D01*
X114668523Y-109689175D01*
X114669641Y-109695588D01*
X114669954Y-109696758D01*
X114669956Y-109696762D01*
X114730464Y-109842841D01*
X114826718Y-109968282D01*
X114952159Y-110064536D01*
X115098238Y-110125044D01*
X115176619Y-110135363D01*
X115254999Y-110145682D01*
X115255000Y-110145682D01*
X115255001Y-110145682D01*
X115307254Y-110138802D01*
X115411762Y-110125044D01*
X115557841Y-110064536D01*
X115683282Y-109968282D01*
X115779536Y-109842841D01*
X115840044Y-109696762D01*
X115860682Y-109540000D01*
X115840044Y-109383238D01*
X115779536Y-109237159D01*
X115683282Y-109111718D01*
X115557841Y-109015464D01*
X115557839Y-109015463D01*
X115411758Y-108954954D01*
X115403911Y-108952852D01*
X115404430Y-108950911D01*
X115350443Y-108927023D01*
X115342852Y-108920038D01*
X106522316Y-100099502D01*
X106522314Y-100099500D01*
X106465250Y-100066554D01*
X106408187Y-100033608D01*
X106344539Y-100016554D01*
X106280892Y-99999500D01*
X106280891Y-99999500D01*
X93876257Y-99999500D01*
X93809218Y-99979815D01*
X93803900Y-99976075D01*
X93802836Y-99975461D01*
X93656765Y-99914957D01*
X93656760Y-99914955D01*
X93500001Y-99894318D01*
X93499999Y-99894318D01*
X93343239Y-99914955D01*
X93343237Y-99914956D01*
X93197160Y-99975463D01*
X93071718Y-100071718D01*
X92975463Y-100197160D01*
X92914956Y-100343237D01*
X92914955Y-100343239D01*
X92894318Y-100499998D01*
X92207812Y-100499998D01*
X91119962Y-99412148D01*
X91086477Y-99350825D01*
X91085361Y-99344423D01*
X91085044Y-99343239D01*
X91085044Y-99343238D01*
X91024536Y-99197159D01*
X90928282Y-99071718D01*
X90802841Y-98975464D01*
X90656762Y-98914956D01*
X90656760Y-98914955D01*
X90500001Y-98894318D01*
X90499999Y-98894318D01*
X90343239Y-98914955D01*
X90343237Y-98914956D01*
X90197160Y-98975463D01*
X90071718Y-99071718D01*
X89975463Y-99197160D01*
X89914956Y-99343237D01*
X89914955Y-99343239D01*
X89894318Y-99499998D01*
X89894318Y-99500001D01*
X89914955Y-99656760D01*
X89914956Y-99656762D01*
X89975464Y-99802841D01*
X90071718Y-99928282D01*
X90197159Y-100024536D01*
X90343238Y-100085044D01*
X90343243Y-100085044D01*
X90351094Y-100087149D01*
X90350572Y-100089093D01*
X90404544Y-100112967D01*
X90412148Y-100119962D01*
X104692686Y-114400500D01*
X104806814Y-114466392D01*
X104934108Y-114500500D01*
X105065893Y-114500500D01*
X114741324Y-114500500D01*
X114808363Y-114520185D01*
X114829005Y-114536819D01*
X115963181Y-115670995D01*
X115996666Y-115732318D01*
X115999500Y-115758676D01*
X115999500Y-120874918D01*
X115979815Y-120941957D01*
X115927011Y-120987712D01*
X115857853Y-120997656D01*
X115810845Y-120977858D01*
X115809881Y-120979528D01*
X115802843Y-120975465D01*
X115802833Y-120975461D01*
X115656762Y-120914956D01*
X115656760Y-120914955D01*
X115500001Y-120894318D01*
X115499999Y-120894318D01*
X115343239Y-120914955D01*
X115343234Y-120914957D01*
X115197163Y-120975461D01*
X115190124Y-120979526D01*
X115189117Y-120977783D01*
X115134068Y-120999069D01*
X115123743Y-120999500D01*
X109258676Y-120999500D01*
X109191637Y-120979815D01*
X109170995Y-120963181D01*
X87795495Y-99587681D01*
X87762010Y-99526358D01*
X87766994Y-99456666D01*
X87795495Y-99412319D01*
X88051054Y-99156760D01*
X88400500Y-98807314D01*
X88466392Y-98693186D01*
X88500500Y-98565892D01*
X88500500Y-98434107D01*
X88500500Y-93434108D01*
X88466392Y-93306814D01*
X88400500Y-93192686D01*
X88307314Y-93099500D01*
X88099368Y-92891554D01*
X88065883Y-92830231D01*
X88064767Y-92823829D01*
X88064450Y-92822650D01*
X88064450Y-92822644D01*
X88033649Y-92748284D01*
X88002032Y-92671952D01*
X87994563Y-92602483D01*
X88025838Y-92540004D01*
X88085927Y-92504352D01*
X88116593Y-92500500D01*
X88386830Y-92500500D01*
X88453869Y-92520185D01*
X88499624Y-92572989D01*
X88506603Y-92592402D01*
X88510162Y-92605682D01*
X88533608Y-92693187D01*
X88565419Y-92748284D01*
X88599500Y-92807314D01*
X95192686Y-99400500D01*
X95306814Y-99466392D01*
X95434107Y-99500500D01*
X95434108Y-99500500D01*
X98123743Y-99500500D01*
X98190782Y-99520185D01*
X98196099Y-99523924D01*
X98197157Y-99524534D01*
X98197159Y-99524536D01*
X98197160Y-99524536D01*
X98197163Y-99524538D01*
X98270198Y-99554790D01*
X98343238Y-99585044D01*
X98421619Y-99595363D01*
X98499999Y-99605682D01*
X98500000Y-99605682D01*
X98500001Y-99605682D01*
X98552254Y-99598802D01*
X98656762Y-99585044D01*
X98802841Y-99524536D01*
X98928282Y-99428282D01*
X99024536Y-99302841D01*
X99085044Y-99156762D01*
X99105682Y-99000000D01*
X99085044Y-98843238D01*
X99024536Y-98697159D01*
X98928282Y-98571718D01*
X98802841Y-98475464D01*
X98773187Y-98463181D01*
X98656762Y-98414956D01*
X98656760Y-98414955D01*
X98500001Y-98394318D01*
X98499999Y-98394318D01*
X98343239Y-98414955D01*
X98343234Y-98414957D01*
X98197163Y-98475461D01*
X98190124Y-98479526D01*
X98189117Y-98477783D01*
X98134068Y-98499069D01*
X98123743Y-98499500D01*
X95758676Y-98499500D01*
X95691637Y-98479815D01*
X95670995Y-98463181D01*
X94827814Y-97620000D01*
X101122359Y-97620000D01*
X101142872Y-97828284D01*
X101142873Y-97828286D01*
X101203628Y-98028569D01*
X101297584Y-98204348D01*
X101302291Y-98213153D01*
X101435063Y-98374936D01*
X101586845Y-98499500D01*
X101596850Y-98507711D01*
X101781431Y-98606372D01*
X101981714Y-98667127D01*
X102190000Y-98687641D01*
X102398286Y-98667127D01*
X102598569Y-98606372D01*
X102783150Y-98507711D01*
X102944936Y-98374936D01*
X103077711Y-98213150D01*
X103176372Y-98028569D01*
X103237127Y-97828286D01*
X103257641Y-97620000D01*
X103237127Y-97411714D01*
X103176372Y-97211431D01*
X103077711Y-97026850D01*
X103072426Y-97020410D01*
X102944936Y-96865063D01*
X102878030Y-96810155D01*
X108548000Y-96810155D01*
X108548000Y-97370000D01*
X109485263Y-97370000D01*
X109484799Y-97370464D01*
X109431295Y-97463135D01*
X109403600Y-97566496D01*
X109403600Y-97673504D01*
X109431295Y-97776865D01*
X109484799Y-97869536D01*
X109485263Y-97870000D01*
X108548000Y-97870000D01*
X108548000Y-98429844D01*
X108554401Y-98489372D01*
X108554403Y-98489379D01*
X108604645Y-98624086D01*
X108604649Y-98624093D01*
X108690809Y-98739187D01*
X108690812Y-98739190D01*
X108805906Y-98825350D01*
X108805913Y-98825354D01*
X108940620Y-98875596D01*
X108940627Y-98875598D01*
X109000155Y-98881999D01*
X109000172Y-98882000D01*
X109560000Y-98882000D01*
X109560000Y-97944737D01*
X109560464Y-97945201D01*
X109653135Y-97998705D01*
X109756496Y-98026400D01*
X109863504Y-98026400D01*
X109966865Y-97998705D01*
X110059536Y-97945201D01*
X110060000Y-97944737D01*
X110060000Y-98882000D01*
X110619828Y-98882000D01*
X110619844Y-98881999D01*
X110679372Y-98875598D01*
X110679379Y-98875596D01*
X110814086Y-98825354D01*
X110814093Y-98825350D01*
X110929187Y-98739190D01*
X110929190Y-98739187D01*
X111015350Y-98624093D01*
X111015354Y-98624086D01*
X111065596Y-98489379D01*
X111065598Y-98489372D01*
X111071999Y-98429844D01*
X111072000Y-98429827D01*
X111072000Y-97870000D01*
X110134737Y-97870000D01*
X110135201Y-97869536D01*
X110188705Y-97776865D01*
X110216400Y-97673504D01*
X110216400Y-97566496D01*
X110188705Y-97463135D01*
X110135201Y-97370464D01*
X110134737Y-97370000D01*
X111072000Y-97370000D01*
X111072000Y-96810172D01*
X111071999Y-96810155D01*
X111065598Y-96750627D01*
X111065596Y-96750620D01*
X111015354Y-96615913D01*
X111015350Y-96615906D01*
X110929190Y-96500812D01*
X110929187Y-96500809D01*
X110814093Y-96414649D01*
X110814086Y-96414645D01*
X110679379Y-96364403D01*
X110679372Y-96364401D01*
X110619844Y-96358000D01*
X110093140Y-96358000D01*
X110026101Y-96338315D01*
X109980346Y-96285511D01*
X109970402Y-96216353D01*
X109999427Y-96152797D01*
X110057144Y-96115339D01*
X110218569Y-96066372D01*
X110403150Y-95967711D01*
X110564936Y-95834936D01*
X110697711Y-95673150D01*
X110796372Y-95488569D01*
X110857127Y-95288286D01*
X110877641Y-95080000D01*
X110857127Y-94871714D01*
X110796372Y-94671431D01*
X110697711Y-94486850D01*
X110697708Y-94486846D01*
X110564936Y-94325063D01*
X110403153Y-94192291D01*
X110403151Y-94192290D01*
X110403150Y-94192289D01*
X110218569Y-94093628D01*
X110118427Y-94063250D01*
X110018284Y-94032872D01*
X109810000Y-94012359D01*
X109601715Y-94032872D01*
X109401428Y-94093629D01*
X109216846Y-94192291D01*
X109055063Y-94325063D01*
X108922291Y-94486846D01*
X108823629Y-94671428D01*
X108762872Y-94871715D01*
X108742359Y-95080000D01*
X108762872Y-95288284D01*
X108762873Y-95288286D01*
X108821180Y-95480500D01*
X108823629Y-95488571D01*
X108922291Y-95673153D01*
X109055063Y-95834936D01*
X109216846Y-95967708D01*
X109216850Y-95967711D01*
X109401431Y-96066372D01*
X109562855Y-96115339D01*
X109621294Y-96153637D01*
X109649750Y-96217449D01*
X109639190Y-96286516D01*
X109592966Y-96338910D01*
X109526860Y-96358000D01*
X109000155Y-96358000D01*
X108940627Y-96364401D01*
X108940620Y-96364403D01*
X108805913Y-96414645D01*
X108805906Y-96414649D01*
X108690812Y-96500809D01*
X108690809Y-96500812D01*
X108604649Y-96615906D01*
X108604645Y-96615913D01*
X108554403Y-96750620D01*
X108554401Y-96750627D01*
X108548000Y-96810155D01*
X102878030Y-96810155D01*
X102783153Y-96732291D01*
X102783151Y-96732290D01*
X102783150Y-96732289D01*
X102598569Y-96633628D01*
X102471879Y-96595197D01*
X102398284Y-96572872D01*
X102190000Y-96552359D01*
X101981715Y-96572872D01*
X101781428Y-96633629D01*
X101596846Y-96732291D01*
X101435063Y-96865063D01*
X101302291Y-97026846D01*
X101203629Y-97211428D01*
X101203628Y-97211430D01*
X101203628Y-97211431D01*
X101198440Y-97228533D01*
X101142872Y-97411715D01*
X101122359Y-97620000D01*
X94827814Y-97620000D01*
X89579056Y-92371242D01*
X89545571Y-92309919D01*
X89550555Y-92240227D01*
X89552154Y-92236164D01*
X89585044Y-92156762D01*
X89605682Y-92000000D01*
X89585044Y-91843238D01*
X89524536Y-91697159D01*
X89428282Y-91571718D01*
X89302841Y-91475464D01*
X89273187Y-91463181D01*
X89156762Y-91414956D01*
X89156760Y-91414955D01*
X89000001Y-91394318D01*
X88999999Y-91394318D01*
X88843239Y-91414955D01*
X88843234Y-91414957D01*
X88697163Y-91475461D01*
X88690124Y-91479526D01*
X88689117Y-91477783D01*
X88634068Y-91499069D01*
X88623743Y-91499500D01*
X87819337Y-91499500D01*
X87752298Y-91479815D01*
X87731656Y-91463181D01*
X83280656Y-87012181D01*
X83247171Y-86950858D01*
X83252155Y-86881166D01*
X83294027Y-86825233D01*
X83359491Y-86800816D01*
X83368337Y-86800500D01*
X87078844Y-86800500D01*
X87078845Y-86800499D01*
X87233497Y-86769737D01*
X87379179Y-86709394D01*
X87510289Y-86621789D01*
X89121788Y-85010290D01*
X89209393Y-84879179D01*
X89269737Y-84733498D01*
X89300500Y-84578843D01*
X89300500Y-84421158D01*
X89300500Y-84421155D01*
X89300499Y-84421153D01*
X89291847Y-84377656D01*
X89269737Y-84266503D01*
X89209393Y-84120821D01*
X89209391Y-84120818D01*
X89209389Y-84120814D01*
X89121788Y-83989711D01*
X89121785Y-83989707D01*
X89010292Y-83878214D01*
X89010288Y-83878211D01*
X88879185Y-83790610D01*
X88879175Y-83790605D01*
X88733497Y-83730263D01*
X88733489Y-83730261D01*
X88578845Y-83699500D01*
X88578842Y-83699500D01*
X88421157Y-83699500D01*
X88421154Y-83699500D01*
X88266509Y-83730261D01*
X88266501Y-83730263D01*
X88120824Y-83790605D01*
X88120814Y-83790610D01*
X87989709Y-83878211D01*
X87989706Y-83878214D01*
X86704741Y-85163181D01*
X86643418Y-85196666D01*
X86617060Y-85199500D01*
X83024500Y-85199500D01*
X82957461Y-85179815D01*
X82911706Y-85127011D01*
X82900500Y-85075500D01*
X82900500Y-83824500D01*
X82920185Y-83757461D01*
X82972989Y-83711706D01*
X83024500Y-83700500D01*
X84068995Y-83700500D01*
X84160041Y-83682389D01*
X84204328Y-83673580D01*
X84331811Y-83620775D01*
X84446542Y-83544114D01*
X84544114Y-83446542D01*
X84620775Y-83331811D01*
X84673580Y-83204328D01*
X84696581Y-83088695D01*
X84700500Y-83068995D01*
X84700500Y-82931004D01*
X84673581Y-82795677D01*
X84673580Y-82795676D01*
X84673580Y-82795672D01*
X84649415Y-82737332D01*
X84620778Y-82668195D01*
X84620771Y-82668182D01*
X84544114Y-82553458D01*
X84544111Y-82553454D01*
X84446545Y-82455888D01*
X84446541Y-82455885D01*
X84331817Y-82379228D01*
X84331804Y-82379221D01*
X84204332Y-82326421D01*
X84204322Y-82326418D01*
X84068995Y-82299500D01*
X84068993Y-82299500D01*
X82268993Y-82299500D01*
X80568994Y-82299500D01*
X80431006Y-82299500D01*
X80431004Y-82299500D01*
X80295677Y-82326418D01*
X80295667Y-82326421D01*
X80168192Y-82379222D01*
X80053454Y-82455887D01*
X79455887Y-83053454D01*
X79379222Y-83168192D01*
X79326421Y-83295667D01*
X79326418Y-83295677D01*
X79299500Y-83431003D01*
X79299500Y-83431006D01*
X79299500Y-83568994D01*
X79299500Y-83568996D01*
X79299499Y-83568996D01*
X79326418Y-83704322D01*
X79326421Y-83704332D01*
X79379222Y-83831807D01*
X79455887Y-83946545D01*
X79553454Y-84044112D01*
X79668192Y-84120777D01*
X79795667Y-84173578D01*
X79795672Y-84173580D01*
X79795676Y-84173580D01*
X79795677Y-84173581D01*
X79931003Y-84200500D01*
X79931006Y-84200500D01*
X80068996Y-84200500D01*
X80172983Y-84179815D01*
X80204328Y-84173580D01*
X80279268Y-84142539D01*
X80331807Y-84120777D01*
X80331808Y-84120776D01*
X80331811Y-84120775D01*
X80446543Y-84044114D01*
X80753838Y-83736819D01*
X80815161Y-83703334D01*
X80841519Y-83700500D01*
X81375500Y-83700500D01*
X81442539Y-83720185D01*
X81488294Y-83772989D01*
X81499500Y-83824500D01*
X81499500Y-85075500D01*
X81479815Y-85142539D01*
X81427011Y-85188294D01*
X81375500Y-85199500D01*
X76674500Y-85199500D01*
X76607461Y-85179815D01*
X76561706Y-85127011D01*
X76550500Y-85075500D01*
X76550500Y-71171161D01*
X76550500Y-71171158D01*
X76547637Y-71156762D01*
X76532138Y-71078846D01*
X76519738Y-71016506D01*
X76519736Y-71016500D01*
X76502062Y-70973833D01*
X76502061Y-70973830D01*
X76459397Y-70870828D01*
X76459396Y-70870827D01*
X76459394Y-70870821D01*
X76389688Y-70766498D01*
X76371790Y-70739712D01*
X76329235Y-70697157D01*
X76260289Y-70628211D01*
X76094259Y-70462181D01*
X76060775Y-70400858D01*
X76065759Y-70331166D01*
X76107631Y-70275233D01*
X76173095Y-70250816D01*
X76181941Y-70250500D01*
X86820943Y-70250500D01*
X92263331Y-70250500D01*
X92263347Y-70250501D01*
X92270943Y-70250501D01*
X92429056Y-70250501D01*
X92429057Y-70250501D01*
X92449518Y-70245018D01*
X92519365Y-70246677D01*
X92569296Y-70277110D01*
X94463181Y-72170995D01*
X94496666Y-72232318D01*
X94499500Y-72258676D01*
X94499500Y-72815891D01*
X94533608Y-72943187D01*
X94559192Y-72987499D01*
X94599500Y-73057314D01*
X94599502Y-73057316D01*
X95463181Y-73920995D01*
X95496666Y-73982318D01*
X95499500Y-74008676D01*
X95499500Y-91623742D01*
X95479815Y-91690781D01*
X95476073Y-91696103D01*
X95475465Y-91697156D01*
X95414956Y-91843237D01*
X95414955Y-91843239D01*
X95394318Y-91999998D01*
X95394318Y-92000001D01*
X95414955Y-92156760D01*
X95414956Y-92156762D01*
X95475464Y-92302841D01*
X95571718Y-92428282D01*
X95697159Y-92524536D01*
X95843238Y-92585044D01*
X95899166Y-92592407D01*
X95999999Y-92605682D01*
X96000000Y-92605682D01*
X96000001Y-92605682D01*
X96052254Y-92598802D01*
X96156762Y-92585044D01*
X96302841Y-92524536D01*
X96428282Y-92428282D01*
X96524536Y-92302841D01*
X96585044Y-92156762D01*
X96605682Y-92000000D01*
X96585044Y-91843238D01*
X96524536Y-91697159D01*
X96524534Y-91697156D01*
X96520472Y-91690119D01*
X96522213Y-91689113D01*
X96500930Y-91634057D01*
X96500500Y-91623742D01*
X96500500Y-73684110D01*
X96500500Y-73684108D01*
X96466392Y-73556814D01*
X96400500Y-73442686D01*
X96307314Y-73349500D01*
X95536819Y-72579005D01*
X95503334Y-72517682D01*
X95500500Y-72491324D01*
X95500500Y-71934110D01*
X95500500Y-71934108D01*
X95466392Y-71806814D01*
X95400500Y-71692686D01*
X95307314Y-71599500D01*
X93119962Y-69412148D01*
X93086477Y-69350825D01*
X93085360Y-69344416D01*
X93085044Y-69343238D01*
X93072964Y-69314075D01*
X93067749Y-69298714D01*
X93063079Y-69281286D01*
X93059577Y-69268215D01*
X93043788Y-69240868D01*
X93036618Y-69226330D01*
X93024536Y-69197159D01*
X93005308Y-69172100D01*
X92996302Y-69158621D01*
X92980519Y-69131284D01*
X92958199Y-69108964D01*
X92947504Y-69096769D01*
X92928283Y-69071719D01*
X92928282Y-69071718D01*
X92903221Y-69052488D01*
X92891041Y-69041806D01*
X92868716Y-69019481D01*
X92868715Y-69019480D01*
X92841373Y-69003694D01*
X92827888Y-68994683D01*
X92802847Y-68975468D01*
X92802843Y-68975466D01*
X92802841Y-68975464D01*
X92773665Y-68963378D01*
X92759121Y-68956205D01*
X92731790Y-68940425D01*
X92731780Y-68940421D01*
X92701288Y-68932250D01*
X92685934Y-68927038D01*
X92656767Y-68914957D01*
X92656763Y-68914956D01*
X92625458Y-68910834D01*
X92609557Y-68907671D01*
X92596545Y-68904184D01*
X92579057Y-68899499D01*
X92579056Y-68899499D01*
X92547480Y-68899499D01*
X92531295Y-68898438D01*
X92500001Y-68894318D01*
X92499999Y-68894318D01*
X92468705Y-68898438D01*
X92452520Y-68899499D01*
X92420943Y-68899499D01*
X92420935Y-68899500D01*
X92390442Y-68907670D01*
X92374541Y-68910834D01*
X92343235Y-68914956D01*
X92314065Y-68927038D01*
X92298718Y-68932248D01*
X92274370Y-68938773D01*
X92268215Y-68940423D01*
X92268214Y-68940423D01*
X92268212Y-68940424D01*
X92240873Y-68956208D01*
X92226331Y-68963380D01*
X92197158Y-68975464D01*
X92197157Y-68975464D01*
X92172108Y-68994685D01*
X92158628Y-69003693D01*
X92131280Y-69019482D01*
X92125554Y-69023877D01*
X92060385Y-69049070D01*
X92050069Y-69049500D01*
X87624500Y-69049500D01*
X87557461Y-69029815D01*
X87511706Y-68977011D01*
X87500500Y-68925500D01*
X87500500Y-59400097D01*
X87520185Y-59333058D01*
X87536819Y-59312416D01*
X90712416Y-56136819D01*
X90773739Y-56103334D01*
X90800097Y-56100500D01*
X94275500Y-56100500D01*
X94342539Y-56120185D01*
X94388294Y-56172989D01*
X94399500Y-56224500D01*
X94399500Y-57413330D01*
X94399499Y-57413348D01*
X94399499Y-57579054D01*
X94399498Y-57579054D01*
X94440423Y-57731785D01*
X94469358Y-57781900D01*
X94469359Y-57781904D01*
X94469360Y-57781904D01*
X94519479Y-57868714D01*
X94519481Y-57868717D01*
X94638349Y-57987585D01*
X94638355Y-57987590D01*
X100979782Y-64329017D01*
X101013267Y-64390340D01*
X101008283Y-64460032D01*
X100966411Y-64515965D01*
X100900947Y-64540382D01*
X100844648Y-64531259D01*
X100807725Y-64515965D01*
X100722448Y-64480642D01*
X100666263Y-64473245D01*
X100562171Y-64459541D01*
X100498275Y-64431274D01*
X100490676Y-64424283D01*
X98745915Y-62679522D01*
X98745913Y-62679520D01*
X98700250Y-62653156D01*
X98654589Y-62626793D01*
X98603657Y-62613146D01*
X98552727Y-62599500D01*
X98552726Y-62599500D01*
X95006580Y-62599500D01*
X94939541Y-62579815D01*
X94931093Y-62573876D01*
X94928283Y-62571720D01*
X94928282Y-62571718D01*
X94802841Y-62475464D01*
X94656762Y-62414956D01*
X94656760Y-62414955D01*
X94500001Y-62394318D01*
X94499999Y-62394318D01*
X94343239Y-62414955D01*
X94343237Y-62414956D01*
X94197160Y-62475463D01*
X94071718Y-62571718D01*
X93975463Y-62697160D01*
X93914956Y-62843237D01*
X93914955Y-62843239D01*
X93894318Y-62999998D01*
X93894318Y-63000001D01*
X93914955Y-63156760D01*
X93914956Y-63156762D01*
X93975464Y-63302841D01*
X94071718Y-63428282D01*
X94197159Y-63524536D01*
X94343238Y-63585044D01*
X94421619Y-63595363D01*
X94499999Y-63605682D01*
X94500000Y-63605682D01*
X94500001Y-63605682D01*
X94552254Y-63598802D01*
X94656762Y-63585044D01*
X94802841Y-63524536D01*
X94928282Y-63428282D01*
X94928283Y-63428279D01*
X94931093Y-63426124D01*
X94996263Y-63400930D01*
X95006580Y-63400500D01*
X98282745Y-63400500D01*
X98349784Y-63420185D01*
X98370426Y-63436819D01*
X99924283Y-64990676D01*
X99957768Y-65051999D01*
X99959541Y-65062171D01*
X99980642Y-65222447D01*
X99980642Y-65222448D01*
X100030674Y-65343237D01*
X100041150Y-65368527D01*
X100137404Y-65493968D01*
X100262845Y-65590222D01*
X100408924Y-65650730D01*
X100565686Y-65671368D01*
X100565687Y-65671367D01*
X100569199Y-65671830D01*
X100633096Y-65700096D01*
X100640695Y-65707088D01*
X101563181Y-66629574D01*
X101596666Y-66690897D01*
X101599500Y-66717255D01*
X101599500Y-75282744D01*
X101579815Y-75349783D01*
X101563181Y-75370425D01*
X100575008Y-76358597D01*
X100513685Y-76392082D01*
X100503513Y-76393855D01*
X100343238Y-76414956D01*
X100343237Y-76414956D01*
X100197160Y-76475463D01*
X100071718Y-76571718D01*
X99975463Y-76697160D01*
X99914956Y-76843237D01*
X99914955Y-76843239D01*
X99894318Y-76999998D01*
X99894318Y-77000001D01*
X99914955Y-77156760D01*
X99914956Y-77156762D01*
X99975464Y-77302841D01*
X100071717Y-77428281D01*
X100071719Y-77428283D01*
X100159191Y-77495402D01*
X100200394Y-77551830D01*
X100204549Y-77621576D01*
X100171386Y-77681459D01*
X97692686Y-80160161D01*
X97599502Y-80253344D01*
X97599500Y-80253347D01*
X97533608Y-80367473D01*
X97499500Y-80494769D01*
X97499500Y-93173742D01*
X97479815Y-93240781D01*
X97476073Y-93246103D01*
X97475465Y-93247156D01*
X97414956Y-93393237D01*
X97414955Y-93393239D01*
X97394318Y-93549998D01*
X97394318Y-93550001D01*
X97414955Y-93706760D01*
X97414956Y-93706762D01*
X97436459Y-93758676D01*
X97475464Y-93852841D01*
X97571718Y-93978282D01*
X97697159Y-94074536D01*
X97843238Y-94135044D01*
X98000000Y-94155682D01*
X98000001Y-94155681D01*
X98003513Y-94156144D01*
X98067410Y-94184410D01*
X98075009Y-94191402D01*
X99205179Y-95321571D01*
X99205189Y-95321582D01*
X99284088Y-95400481D01*
X99329750Y-95426843D01*
X99329752Y-95426845D01*
X99364421Y-95446861D01*
X99375412Y-95453207D01*
X99477273Y-95480501D01*
X99477276Y-95480501D01*
X99590323Y-95480501D01*
X99590339Y-95480500D01*
X101124993Y-95480500D01*
X101192032Y-95500185D01*
X101234351Y-95546047D01*
X101302289Y-95673151D01*
X101435063Y-95834936D01*
X101596846Y-95967708D01*
X101596850Y-95967711D01*
X101781431Y-96066372D01*
X101981714Y-96127127D01*
X102190000Y-96147641D01*
X102398286Y-96127127D01*
X102598569Y-96066372D01*
X102783150Y-95967711D01*
X102944936Y-95834936D01*
X103077711Y-95673150D01*
X103176372Y-95488569D01*
X103237127Y-95288286D01*
X103257641Y-95080000D01*
X103237127Y-94871714D01*
X103176372Y-94671431D01*
X103077711Y-94486850D01*
X103077708Y-94486846D01*
X102944936Y-94325063D01*
X102783153Y-94192291D01*
X102783151Y-94192290D01*
X102783150Y-94192289D01*
X102598569Y-94093628D01*
X102498427Y-94063250D01*
X102398284Y-94032872D01*
X102190000Y-94012359D01*
X101981715Y-94032872D01*
X101781428Y-94093629D01*
X101596846Y-94192291D01*
X101435063Y-94325063D01*
X101302289Y-94486848D01*
X101234351Y-94613953D01*
X101185389Y-94663798D01*
X101124993Y-94679500D01*
X99747254Y-94679500D01*
X99680215Y-94659815D01*
X99659573Y-94643181D01*
X98641402Y-93625009D01*
X98607917Y-93563686D01*
X98606144Y-93553513D01*
X98605681Y-93549998D01*
X98585044Y-93393238D01*
X98524536Y-93247159D01*
X98524534Y-93247156D01*
X98520472Y-93240119D01*
X98522213Y-93239113D01*
X98500930Y-93184057D01*
X98500500Y-93173742D01*
X98500500Y-92540000D01*
X101122359Y-92540000D01*
X101142872Y-92748284D01*
X101161356Y-92809218D01*
X101181692Y-92876257D01*
X101203629Y-92948571D01*
X101302291Y-93133153D01*
X101435063Y-93294936D01*
X101572452Y-93407688D01*
X101596850Y-93427711D01*
X101781431Y-93526372D01*
X101981714Y-93587127D01*
X102190000Y-93607641D01*
X102398286Y-93587127D01*
X102598569Y-93526372D01*
X102783150Y-93427711D01*
X102944936Y-93294936D01*
X103077711Y-93133150D01*
X103176372Y-92948569D01*
X103237127Y-92748286D01*
X103257641Y-92540000D01*
X103237127Y-92331714D01*
X103176372Y-92131431D01*
X103077711Y-91946850D01*
X103077708Y-91946846D01*
X102944936Y-91785063D01*
X102783153Y-91652291D01*
X102783151Y-91652290D01*
X102783150Y-91652289D01*
X102598569Y-91553628D01*
X102498427Y-91523250D01*
X102398284Y-91492872D01*
X102190000Y-91472359D01*
X101981715Y-91492872D01*
X101781428Y-91553629D01*
X101596846Y-91652291D01*
X101435063Y-91785063D01*
X101302291Y-91946846D01*
X101203629Y-92131428D01*
X101142872Y-92331715D01*
X101122359Y-92540000D01*
X98500500Y-92540000D01*
X98500500Y-90000000D01*
X101122359Y-90000000D01*
X101142872Y-90208284D01*
X101203629Y-90408571D01*
X101302291Y-90593153D01*
X101435063Y-90754936D01*
X101596846Y-90887708D01*
X101596850Y-90887711D01*
X101781431Y-90986372D01*
X101981714Y-91047127D01*
X102190000Y-91067641D01*
X102398286Y-91047127D01*
X102598569Y-90986372D01*
X102783150Y-90887711D01*
X102944936Y-90754936D01*
X103077711Y-90593150D01*
X103176372Y-90408569D01*
X103237127Y-90208286D01*
X103257641Y-90000000D01*
X103257641Y-89999999D01*
X108543179Y-89999999D01*
X108543179Y-90000000D01*
X108562424Y-90219976D01*
X108562426Y-90219986D01*
X108619575Y-90433270D01*
X108619580Y-90433284D01*
X108712898Y-90633405D01*
X108712901Y-90633411D01*
X108758258Y-90698187D01*
X108758259Y-90698188D01*
X109403600Y-90052847D01*
X109403600Y-90053504D01*
X109431295Y-90156865D01*
X109484799Y-90249536D01*
X109560464Y-90325201D01*
X109653135Y-90378705D01*
X109756496Y-90406400D01*
X109757153Y-90406400D01*
X109111810Y-91051740D01*
X109176590Y-91097099D01*
X109176592Y-91097100D01*
X109376715Y-91190419D01*
X109376729Y-91190424D01*
X109590013Y-91247573D01*
X109595348Y-91248514D01*
X109595126Y-91249771D01*
X109654430Y-91272957D01*
X109695418Y-91329541D01*
X109699309Y-91399302D01*
X109664866Y-91460092D01*
X109607315Y-91490354D01*
X109607543Y-91491105D01*
X109603633Y-91492290D01*
X109603025Y-91492611D01*
X109602779Y-91492660D01*
X109601725Y-91492869D01*
X109401428Y-91553629D01*
X109216846Y-91652291D01*
X109055063Y-91785063D01*
X108922291Y-91946846D01*
X108823629Y-92131428D01*
X108762872Y-92331715D01*
X108742359Y-92540000D01*
X108762872Y-92748284D01*
X108781356Y-92809218D01*
X108801692Y-92876257D01*
X108823629Y-92948571D01*
X108922291Y-93133153D01*
X109055063Y-93294936D01*
X109192452Y-93407688D01*
X109216850Y-93427711D01*
X109401431Y-93526372D01*
X109601714Y-93587127D01*
X109810000Y-93607641D01*
X110018286Y-93587127D01*
X110218569Y-93526372D01*
X110403150Y-93427711D01*
X110564936Y-93294936D01*
X110697711Y-93133150D01*
X110796372Y-92948569D01*
X110857127Y-92748286D01*
X110877641Y-92540000D01*
X110857127Y-92331714D01*
X110796372Y-92131431D01*
X110697711Y-91946850D01*
X110697708Y-91946846D01*
X110564936Y-91785063D01*
X110403153Y-91652291D01*
X110403151Y-91652290D01*
X110403150Y-91652289D01*
X110218569Y-91553628D01*
X110018286Y-91492873D01*
X110018285Y-91492872D01*
X110018279Y-91492871D01*
X110017223Y-91492661D01*
X110016721Y-91492398D01*
X110012457Y-91491105D01*
X110012702Y-91490295D01*
X109955315Y-91460268D01*
X109920748Y-91399549D01*
X109924496Y-91329780D01*
X109965369Y-91273112D01*
X110024863Y-91249711D01*
X110024652Y-91248514D01*
X110029986Y-91247573D01*
X110243270Y-91190424D01*
X110243284Y-91190419D01*
X110443407Y-91097100D01*
X110443417Y-91097094D01*
X110508188Y-91051741D01*
X109862848Y-90406400D01*
X109863504Y-90406400D01*
X109966865Y-90378705D01*
X110059536Y-90325201D01*
X110135201Y-90249536D01*
X110188705Y-90156865D01*
X110216400Y-90053504D01*
X110216400Y-90052847D01*
X110861741Y-90698188D01*
X110907094Y-90633417D01*
X110907100Y-90633407D01*
X111000419Y-90433284D01*
X111000424Y-90433270D01*
X111057573Y-90219986D01*
X111057575Y-90219976D01*
X111076821Y-90000000D01*
X111076821Y-89999999D01*
X111057575Y-89780023D01*
X111057573Y-89780013D01*
X111000424Y-89566729D01*
X111000420Y-89566720D01*
X110907096Y-89366586D01*
X110861741Y-89301811D01*
X110861740Y-89301810D01*
X110216400Y-89947151D01*
X110216400Y-89946496D01*
X110188705Y-89843135D01*
X110135201Y-89750464D01*
X110059536Y-89674799D01*
X109966865Y-89621295D01*
X109863504Y-89593600D01*
X109862848Y-89593600D01*
X110508188Y-88948259D01*
X110508187Y-88948258D01*
X110443411Y-88902901D01*
X110443405Y-88902898D01*
X110243284Y-88809580D01*
X110243270Y-88809575D01*
X110029986Y-88752426D01*
X110029976Y-88752424D01*
X109810001Y-88733179D01*
X109809999Y-88733179D01*
X109590023Y-88752424D01*
X109590013Y-88752426D01*
X109376729Y-88809575D01*
X109376720Y-88809579D01*
X109176590Y-88902901D01*
X109111811Y-88948258D01*
X109757153Y-89593600D01*
X109756496Y-89593600D01*
X109653135Y-89621295D01*
X109560464Y-89674799D01*
X109484799Y-89750464D01*
X109431295Y-89843135D01*
X109403600Y-89946496D01*
X109403600Y-89947153D01*
X108758258Y-89301811D01*
X108712901Y-89366590D01*
X108619579Y-89566720D01*
X108619575Y-89566729D01*
X108562426Y-89780013D01*
X108562424Y-89780023D01*
X108543179Y-89999999D01*
X103257641Y-89999999D01*
X103237127Y-89791714D01*
X103176372Y-89591431D01*
X103077711Y-89406850D01*
X103077708Y-89406846D01*
X102944936Y-89245063D01*
X102783153Y-89112291D01*
X102783151Y-89112290D01*
X102783150Y-89112289D01*
X102598569Y-89013628D01*
X102498427Y-88983250D01*
X102398284Y-88952872D01*
X102190000Y-88932359D01*
X101981715Y-88952872D01*
X101781428Y-89013629D01*
X101596846Y-89112291D01*
X101435063Y-89245063D01*
X101302291Y-89406846D01*
X101203629Y-89591428D01*
X101142872Y-89791715D01*
X101122359Y-90000000D01*
X98500500Y-90000000D01*
X98500500Y-80819337D01*
X98520185Y-80752298D01*
X98522038Y-80749999D01*
X109700884Y-80749999D01*
X109700885Y-80750000D01*
X110769670Y-80750000D01*
X110749925Y-80769745D01*
X110700556Y-80855255D01*
X110675000Y-80950630D01*
X110675000Y-81049370D01*
X110700556Y-81144745D01*
X110749925Y-81230255D01*
X110769670Y-81250000D01*
X109700885Y-81250000D01*
X109702085Y-81257584D01*
X109755591Y-81422255D01*
X109834195Y-81576524D01*
X109935967Y-81716602D01*
X110058397Y-81839032D01*
X110198475Y-81940804D01*
X110316833Y-82001110D01*
X110367629Y-82049084D01*
X110384424Y-82116905D01*
X110361887Y-82183040D01*
X110329430Y-82214697D01*
X110200961Y-82300538D01*
X110075538Y-82425961D01*
X110075535Y-82425965D01*
X109976990Y-82573446D01*
X109976983Y-82573459D01*
X109909106Y-82737332D01*
X109909103Y-82737341D01*
X109874500Y-82911304D01*
X109874500Y-83088695D01*
X109909103Y-83262658D01*
X109909106Y-83262667D01*
X109976983Y-83426540D01*
X109976990Y-83426553D01*
X110075535Y-83574034D01*
X110075538Y-83574038D01*
X110200961Y-83699461D01*
X110200965Y-83699464D01*
X110348446Y-83798009D01*
X110348458Y-83798016D01*
X110430049Y-83831811D01*
X110500372Y-83860939D01*
X110554776Y-83904779D01*
X110576841Y-83971073D01*
X110559562Y-84038773D01*
X110508425Y-84086383D01*
X110452920Y-84099500D01*
X110381898Y-84099500D01*
X110342853Y-84104188D01*
X110293438Y-84110122D01*
X110152656Y-84165639D01*
X110032077Y-84257077D01*
X109940639Y-84377656D01*
X109885122Y-84518438D01*
X109879351Y-84566498D01*
X109874500Y-84606898D01*
X109874500Y-85393102D01*
X109880126Y-85439954D01*
X109885122Y-85481561D01*
X109940639Y-85622343D01*
X110032077Y-85742922D01*
X110152656Y-85834360D01*
X110152657Y-85834360D01*
X110152658Y-85834361D01*
X110293436Y-85889877D01*
X110381898Y-85900500D01*
X110381903Y-85900500D01*
X111718097Y-85900500D01*
X111718102Y-85900500D01*
X111806564Y-85889877D01*
X111947342Y-85834361D01*
X112067922Y-85742922D01*
X112159361Y-85622342D01*
X112214877Y-85481564D01*
X112225500Y-85393102D01*
X112225500Y-84606898D01*
X112214877Y-84518436D01*
X112159361Y-84377658D01*
X112159360Y-84377657D01*
X112159360Y-84377656D01*
X112067922Y-84257077D01*
X111947343Y-84165639D01*
X111833674Y-84120814D01*
X111806564Y-84110123D01*
X111806563Y-84110122D01*
X111806561Y-84110122D01*
X111760926Y-84104642D01*
X111718102Y-84099500D01*
X111647080Y-84099500D01*
X111580041Y-84079815D01*
X111534286Y-84027011D01*
X111524342Y-83957853D01*
X111553367Y-83894297D01*
X111599627Y-83860939D01*
X111669960Y-83831807D01*
X111751541Y-83798016D01*
X111751544Y-83798014D01*
X111751547Y-83798013D01*
X111899035Y-83699464D01*
X112024464Y-83574035D01*
X112123013Y-83426547D01*
X112190894Y-83262666D01*
X112202498Y-83204332D01*
X112225499Y-83088695D01*
X112225500Y-83088693D01*
X112225500Y-82911306D01*
X112225499Y-82911304D01*
X112190896Y-82737341D01*
X112190893Y-82737332D01*
X112123016Y-82573459D01*
X112123009Y-82573446D01*
X112024464Y-82425965D01*
X112024461Y-82425961D01*
X111899038Y-82300538D01*
X111899034Y-82300535D01*
X111770570Y-82214697D01*
X111725765Y-82161084D01*
X111717058Y-82091759D01*
X111747213Y-82028732D01*
X111783167Y-82001110D01*
X111901522Y-81940805D01*
X112041602Y-81839032D01*
X112164032Y-81716602D01*
X112265804Y-81576524D01*
X112344408Y-81422255D01*
X112397914Y-81257584D01*
X112399115Y-81250000D01*
X111330330Y-81250000D01*
X111350075Y-81230255D01*
X111399444Y-81144745D01*
X111425000Y-81049370D01*
X111425000Y-80950630D01*
X111399444Y-80855255D01*
X111350075Y-80769745D01*
X111330330Y-80750000D01*
X112399115Y-80750000D01*
X112399115Y-80749999D01*
X112397914Y-80742415D01*
X112344408Y-80577744D01*
X112265804Y-80423475D01*
X112164032Y-80283397D01*
X112041602Y-80160967D01*
X111901524Y-80059195D01*
X111747257Y-79980591D01*
X111582584Y-79927085D01*
X111411571Y-79900000D01*
X111300000Y-79900000D01*
X111300000Y-80719670D01*
X111280255Y-80699925D01*
X111194745Y-80650556D01*
X111099370Y-80625000D01*
X111000630Y-80625000D01*
X110905255Y-80650556D01*
X110819745Y-80699925D01*
X110800000Y-80719670D01*
X110800000Y-79900000D01*
X110688429Y-79900000D01*
X110517415Y-79927085D01*
X110352742Y-79980591D01*
X110198475Y-80059195D01*
X110058397Y-80160967D01*
X109935967Y-80283397D01*
X109834195Y-80423475D01*
X109755591Y-80577744D01*
X109702085Y-80742415D01*
X109700884Y-80749999D01*
X98522038Y-80749999D01*
X98536819Y-80731656D01*
X99768477Y-79499998D01*
X100894318Y-79499998D01*
X100894318Y-79500001D01*
X100914955Y-79656760D01*
X100914956Y-79656762D01*
X100975464Y-79802841D01*
X101071718Y-79928282D01*
X101197159Y-80024536D01*
X101343238Y-80085044D01*
X101421619Y-80095363D01*
X101499999Y-80105682D01*
X101500000Y-80105682D01*
X101500001Y-80105682D01*
X101552254Y-80098802D01*
X101656762Y-80085044D01*
X101802841Y-80024536D01*
X101928282Y-79928282D01*
X102024536Y-79802841D01*
X102085044Y-79656762D01*
X102105682Y-79500000D01*
X102105681Y-79499997D01*
X102106144Y-79496485D01*
X102134410Y-79432589D01*
X102141391Y-79425000D01*
X102735703Y-78830687D01*
X102735708Y-78830684D01*
X102745911Y-78820480D01*
X102745913Y-78820480D01*
X102820480Y-78745913D01*
X102873207Y-78654587D01*
X102885121Y-78610123D01*
X102900501Y-78552727D01*
X102900501Y-78447273D01*
X102900501Y-78439678D01*
X102900500Y-78439660D01*
X102900500Y-78217254D01*
X102920185Y-78150215D01*
X102936819Y-78129573D01*
X103119119Y-77947273D01*
X103424991Y-77641400D01*
X103486312Y-77607917D01*
X103496485Y-77606144D01*
X103499997Y-77605681D01*
X103500000Y-77605682D01*
X103656762Y-77585044D01*
X103802841Y-77524536D01*
X103928282Y-77428282D01*
X104024536Y-77302841D01*
X104085044Y-77156762D01*
X104105682Y-77000000D01*
X104085044Y-76843238D01*
X104024536Y-76697159D01*
X103928282Y-76571718D01*
X103802841Y-76475464D01*
X103656762Y-76414956D01*
X103656760Y-76414955D01*
X103500001Y-76394318D01*
X103499999Y-76394318D01*
X103343239Y-76414955D01*
X103343237Y-76414956D01*
X103197160Y-76475463D01*
X103071718Y-76571718D01*
X102975463Y-76697160D01*
X102914956Y-76843237D01*
X102914956Y-76843238D01*
X102893855Y-77003513D01*
X102865588Y-77067409D01*
X102858597Y-77075008D01*
X102179522Y-77754084D01*
X102179518Y-77754090D01*
X102126792Y-77845412D01*
X102126793Y-77845413D01*
X102099500Y-77947273D01*
X102099500Y-78282744D01*
X102079815Y-78349783D01*
X102063181Y-78370425D01*
X101575008Y-78858597D01*
X101513685Y-78892082D01*
X101503513Y-78893855D01*
X101343238Y-78914956D01*
X101343237Y-78914956D01*
X101197160Y-78975463D01*
X101071718Y-79071718D01*
X100975463Y-79197160D01*
X100914956Y-79343237D01*
X100914955Y-79343239D01*
X100894318Y-79499998D01*
X99768477Y-79499998D01*
X101716645Y-77551830D01*
X104900500Y-74367975D01*
X104966392Y-74253847D01*
X105000500Y-74126554D01*
X105000500Y-73994769D01*
X105000500Y-73446157D01*
X105020185Y-73379118D01*
X105022450Y-73375717D01*
X105040546Y-73349500D01*
X105080220Y-73292023D01*
X105136237Y-73144318D01*
X105155278Y-72987500D01*
X105149898Y-72943187D01*
X105136237Y-72830681D01*
X105092972Y-72716602D01*
X105080220Y-72682977D01*
X104990483Y-72552970D01*
X104872240Y-72448217D01*
X104872238Y-72448216D01*
X104872237Y-72448215D01*
X104732365Y-72374803D01*
X104578986Y-72337000D01*
X104578985Y-72337000D01*
X104421015Y-72337000D01*
X104421014Y-72337000D01*
X104267634Y-72374803D01*
X104127762Y-72448215D01*
X104009516Y-72552971D01*
X103919781Y-72682975D01*
X103919780Y-72682976D01*
X103863762Y-72830681D01*
X103844722Y-72987499D01*
X103844722Y-72987500D01*
X103863762Y-73144318D01*
X103919780Y-73292023D01*
X103919780Y-73292024D01*
X103977550Y-73375717D01*
X103999433Y-73442071D01*
X103999500Y-73446157D01*
X103999500Y-73801985D01*
X103979815Y-73869024D01*
X103963181Y-73889666D01*
X102612181Y-75240666D01*
X102550858Y-75274151D01*
X102481166Y-75269167D01*
X102425233Y-75227295D01*
X102400816Y-75161831D01*
X102400500Y-75152985D01*
X102400500Y-71749999D01*
X109700884Y-71749999D01*
X109700885Y-71750000D01*
X110769670Y-71750000D01*
X110749925Y-71769745D01*
X110700556Y-71855255D01*
X110675000Y-71950630D01*
X110675000Y-72049370D01*
X110700556Y-72144745D01*
X110749925Y-72230255D01*
X110769670Y-72250000D01*
X109700885Y-72250000D01*
X109702085Y-72257584D01*
X109755591Y-72422255D01*
X109834195Y-72576524D01*
X109935967Y-72716602D01*
X110058397Y-72839032D01*
X110198475Y-72940804D01*
X110316833Y-73001110D01*
X110367629Y-73049084D01*
X110384424Y-73116905D01*
X110361887Y-73183040D01*
X110329430Y-73214697D01*
X110200961Y-73300538D01*
X110075538Y-73425961D01*
X110075535Y-73425965D01*
X109976990Y-73573446D01*
X109976983Y-73573459D01*
X109909106Y-73737332D01*
X109909103Y-73737341D01*
X109874500Y-73911304D01*
X109874500Y-74088695D01*
X109909103Y-74262658D01*
X109909106Y-74262667D01*
X109976983Y-74426540D01*
X109976990Y-74426553D01*
X110075535Y-74574034D01*
X110075538Y-74574038D01*
X110200961Y-74699461D01*
X110200965Y-74699464D01*
X110348446Y-74798009D01*
X110348458Y-74798016D01*
X110470134Y-74848414D01*
X110500372Y-74860939D01*
X110554776Y-74904779D01*
X110576841Y-74971073D01*
X110559562Y-75038773D01*
X110508425Y-75086383D01*
X110452920Y-75099500D01*
X110381898Y-75099500D01*
X110342853Y-75104188D01*
X110293438Y-75110122D01*
X110152656Y-75165639D01*
X110032077Y-75257077D01*
X109940639Y-75377656D01*
X109885122Y-75518438D01*
X109879188Y-75567853D01*
X109874500Y-75606898D01*
X109874500Y-76393102D01*
X109880126Y-76439954D01*
X109885122Y-76481561D01*
X109940639Y-76622343D01*
X110032077Y-76742922D01*
X110152656Y-76834360D01*
X110152657Y-76834360D01*
X110152658Y-76834361D01*
X110293436Y-76889877D01*
X110381898Y-76900500D01*
X110381903Y-76900500D01*
X111718097Y-76900500D01*
X111718102Y-76900500D01*
X111806564Y-76889877D01*
X111947342Y-76834361D01*
X112067922Y-76742922D01*
X112159361Y-76622342D01*
X112214877Y-76481564D01*
X112225500Y-76393102D01*
X112225500Y-75606898D01*
X112214877Y-75518436D01*
X112159361Y-75377658D01*
X112159360Y-75377657D01*
X112159360Y-75377656D01*
X112067922Y-75257077D01*
X111947343Y-75165639D01*
X111806561Y-75110122D01*
X111760926Y-75104642D01*
X111718102Y-75099500D01*
X111647080Y-75099500D01*
X111580041Y-75079815D01*
X111534286Y-75027011D01*
X111524342Y-74957853D01*
X111553367Y-74894297D01*
X111599627Y-74860939D01*
X111646663Y-74841456D01*
X111751541Y-74798016D01*
X111751544Y-74798014D01*
X111751547Y-74798013D01*
X111899035Y-74699464D01*
X112024464Y-74574035D01*
X112123013Y-74426547D01*
X112190894Y-74262666D01*
X112192649Y-74253847D01*
X112213964Y-74146682D01*
X112225500Y-74088691D01*
X112225500Y-73911309D01*
X112225500Y-73911306D01*
X112225499Y-73911304D01*
X112190896Y-73737341D01*
X112190893Y-73737332D01*
X112123016Y-73573459D01*
X112123009Y-73573446D01*
X112024464Y-73425965D01*
X112024461Y-73425961D01*
X111899038Y-73300538D01*
X111899034Y-73300535D01*
X111770570Y-73214697D01*
X111725765Y-73161084D01*
X111717058Y-73091759D01*
X111747213Y-73028732D01*
X111783167Y-73001110D01*
X111901522Y-72940805D01*
X112041602Y-72839032D01*
X112164032Y-72716602D01*
X112265804Y-72576524D01*
X112344408Y-72422255D01*
X112397914Y-72257584D01*
X112399115Y-72250000D01*
X111330330Y-72250000D01*
X111350075Y-72230255D01*
X111399444Y-72144745D01*
X111425000Y-72049370D01*
X111425000Y-71950630D01*
X111399444Y-71855255D01*
X111350075Y-71769745D01*
X111330330Y-71750000D01*
X112399115Y-71750000D01*
X112399115Y-71749999D01*
X112397914Y-71742415D01*
X112344408Y-71577744D01*
X112265804Y-71423475D01*
X112164032Y-71283397D01*
X112041602Y-71160967D01*
X111901524Y-71059195D01*
X111747257Y-70980591D01*
X111582584Y-70927085D01*
X111411571Y-70900000D01*
X111300000Y-70900000D01*
X111300000Y-71719670D01*
X111280255Y-71699925D01*
X111194745Y-71650556D01*
X111099370Y-71625000D01*
X111000630Y-71625000D01*
X110905255Y-71650556D01*
X110819745Y-71699925D01*
X110800000Y-71719670D01*
X110800000Y-70900000D01*
X110688429Y-70900000D01*
X110517415Y-70927085D01*
X110352742Y-70980591D01*
X110198475Y-71059195D01*
X110058397Y-71160967D01*
X109935967Y-71283397D01*
X109834195Y-71423475D01*
X109755591Y-71577744D01*
X109702085Y-71742415D01*
X109700884Y-71749999D01*
X102400500Y-71749999D01*
X102400500Y-66447275D01*
X102400500Y-66447273D01*
X102373207Y-66345413D01*
X102320480Y-66254087D01*
X102245913Y-66179520D01*
X101207088Y-65140695D01*
X101173603Y-65079372D01*
X101171830Y-65069199D01*
X101161492Y-64990676D01*
X101150730Y-64908924D01*
X101100111Y-64786721D01*
X101092643Y-64717254D01*
X101123918Y-64654774D01*
X101184007Y-64619122D01*
X101253832Y-64621615D01*
X101302354Y-64651589D01*
X102541799Y-65891034D01*
X102552493Y-65903228D01*
X102571717Y-65928281D01*
X102571718Y-65928282D01*
X102596769Y-65947504D01*
X102608964Y-65958199D01*
X102631284Y-65980519D01*
X102647706Y-65990000D01*
X102658618Y-65996300D01*
X102672104Y-66005311D01*
X102697158Y-66024535D01*
X102697159Y-66024536D01*
X102726335Y-66036620D01*
X102740873Y-66043790D01*
X102768215Y-66059576D01*
X102798704Y-66067745D01*
X102814060Y-66072958D01*
X102822654Y-66076517D01*
X102843238Y-66085044D01*
X102874541Y-66089165D01*
X102890449Y-66092329D01*
X102920942Y-66100500D01*
X102952513Y-66100500D01*
X102968697Y-66101560D01*
X103000000Y-66105682D01*
X103031302Y-66101560D01*
X103047487Y-66100500D01*
X103079057Y-66100500D01*
X103109552Y-66092328D01*
X103125439Y-66089167D01*
X103156762Y-66085044D01*
X103185939Y-66072957D01*
X103201295Y-66067744D01*
X103231784Y-66059576D01*
X103259121Y-66043793D01*
X103273655Y-66036624D01*
X103302841Y-66024536D01*
X103327900Y-66005306D01*
X103341382Y-65996300D01*
X103352294Y-65990000D01*
X103368716Y-65980519D01*
X103391047Y-65958186D01*
X103403230Y-65947504D01*
X103428282Y-65928282D01*
X103447506Y-65903226D01*
X103458186Y-65891047D01*
X103480519Y-65868716D01*
X103496300Y-65841382D01*
X103505306Y-65827900D01*
X103524536Y-65802841D01*
X103536624Y-65773655D01*
X103543797Y-65759113D01*
X103559575Y-65731785D01*
X103559576Y-65731784D01*
X103567744Y-65701295D01*
X103572959Y-65685935D01*
X103585044Y-65656762D01*
X103589167Y-65625439D01*
X103592328Y-65609552D01*
X103600500Y-65579057D01*
X103600500Y-65547487D01*
X103601561Y-65531301D01*
X103605682Y-65500000D01*
X103605682Y-65499998D01*
X103601561Y-65468697D01*
X103600500Y-65452512D01*
X103600500Y-65420943D01*
X103600499Y-65420939D01*
X103592329Y-65390448D01*
X103589164Y-65374536D01*
X103588661Y-65370714D01*
X103585044Y-65343238D01*
X103572958Y-65314060D01*
X103567744Y-65298700D01*
X103559575Y-65268213D01*
X103543793Y-65240879D01*
X103536620Y-65226335D01*
X103524536Y-65197159D01*
X103505311Y-65172104D01*
X103496300Y-65158618D01*
X103485952Y-65140695D01*
X103480519Y-65131284D01*
X103458199Y-65108964D01*
X103447504Y-65096769D01*
X103428281Y-65071717D01*
X103403228Y-65052493D01*
X103391034Y-65041799D01*
X95636819Y-57287584D01*
X95603334Y-57226261D01*
X95600500Y-57199903D01*
X95600500Y-56750000D01*
X110935261Y-56750000D01*
X112115025Y-56750000D01*
X112079930Y-56785095D01*
X112033852Y-56864905D01*
X112010000Y-56953922D01*
X112010000Y-57046078D01*
X112033852Y-57135095D01*
X112079930Y-57214905D01*
X112115025Y-57250000D01*
X110935261Y-57250000D01*
X110938315Y-57269285D01*
X110938318Y-57269295D01*
X110994250Y-57441441D01*
X110994252Y-57441447D01*
X111076434Y-57602734D01*
X111182823Y-57749169D01*
X111310830Y-57877176D01*
X111457265Y-57983565D01*
X111618550Y-58065745D01*
X111621412Y-58066931D01*
X111622333Y-58067673D01*
X111622894Y-58067959D01*
X111622833Y-58068076D01*
X111675817Y-58110771D01*
X111697884Y-58177064D01*
X111697284Y-58194455D01*
X111681461Y-58344999D01*
X111699567Y-58517264D01*
X111699568Y-58517267D01*
X111753091Y-58681995D01*
X111777380Y-58724066D01*
X111777414Y-58724070D01*
X111838649Y-58690633D01*
X111908340Y-58695617D01*
X111964274Y-58737487D01*
X111988692Y-58802952D01*
X111973841Y-58871225D01*
X111967060Y-58882237D01*
X111952971Y-58902649D01*
X111899192Y-59044449D01*
X111880913Y-59194999D01*
X111880913Y-59195000D01*
X111899192Y-59345550D01*
X111952971Y-59487351D01*
X111952974Y-59487357D01*
X111995910Y-59549561D01*
X112017793Y-59615915D01*
X112000327Y-59683567D01*
X111995910Y-59690439D01*
X111952974Y-59752642D01*
X111952971Y-59752648D01*
X111899192Y-59894449D01*
X111880913Y-60044999D01*
X111880913Y-60045000D01*
X111899192Y-60195550D01*
X111952971Y-60337351D01*
X111952974Y-60337357D01*
X111995910Y-60399561D01*
X112017793Y-60465915D01*
X112000327Y-60533567D01*
X111995910Y-60540439D01*
X111952974Y-60602642D01*
X111952971Y-60602648D01*
X111899192Y-60744449D01*
X111880913Y-60894999D01*
X111880913Y-60895000D01*
X111899192Y-61045550D01*
X111952971Y-61187351D01*
X111952974Y-61187357D01*
X111995910Y-61249561D01*
X112017793Y-61315915D01*
X112000327Y-61383567D01*
X111995910Y-61390439D01*
X111952974Y-61452642D01*
X111952971Y-61452648D01*
X111899192Y-61594449D01*
X111880913Y-61744999D01*
X111880913Y-61745000D01*
X111899192Y-61895550D01*
X111952971Y-62037351D01*
X111952974Y-62037357D01*
X111995910Y-62099561D01*
X112017793Y-62165915D01*
X112000327Y-62233567D01*
X111995910Y-62240439D01*
X111952974Y-62302642D01*
X111952971Y-62302648D01*
X111899192Y-62444449D01*
X111880913Y-62594999D01*
X111880913Y-62595000D01*
X111899192Y-62745550D01*
X111952971Y-62887351D01*
X111952974Y-62887357D01*
X111995910Y-62949561D01*
X112017793Y-63015915D01*
X112000327Y-63083567D01*
X111995910Y-63090439D01*
X111952974Y-63152642D01*
X111952971Y-63152648D01*
X111899192Y-63294449D01*
X111880913Y-63444999D01*
X111880913Y-63445000D01*
X111899192Y-63595550D01*
X111952971Y-63737351D01*
X111952972Y-63737352D01*
X111967056Y-63757757D01*
X111988939Y-63824112D01*
X111971473Y-63891764D01*
X111920205Y-63939233D01*
X111851412Y-63951450D01*
X111786935Y-63924534D01*
X111777385Y-63915932D01*
X111777380Y-63915932D01*
X111753091Y-63958004D01*
X111753091Y-63958005D01*
X111699568Y-64122732D01*
X111699567Y-64122735D01*
X111681461Y-64295000D01*
X111697284Y-64445545D01*
X111684714Y-64514274D01*
X111636982Y-64565298D01*
X111621425Y-64573063D01*
X111618562Y-64574248D01*
X111457264Y-64656434D01*
X111310830Y-64762823D01*
X111182823Y-64890830D01*
X111076434Y-65037265D01*
X110994252Y-65198552D01*
X110994250Y-65198558D01*
X110938318Y-65370704D01*
X110938315Y-65370714D01*
X110935261Y-65390000D01*
X112115025Y-65390000D01*
X112079930Y-65425095D01*
X112033852Y-65504905D01*
X112010000Y-65593922D01*
X112010000Y-65686078D01*
X112033852Y-65775095D01*
X112079930Y-65854905D01*
X112115025Y-65890000D01*
X110935261Y-65890000D01*
X110938315Y-65909285D01*
X110938318Y-65909295D01*
X110994250Y-66081441D01*
X110994252Y-66081447D01*
X111076434Y-66242734D01*
X111182823Y-66389169D01*
X111310830Y-66517176D01*
X111457265Y-66623565D01*
X111618552Y-66705747D01*
X111618555Y-66705748D01*
X111790706Y-66761682D01*
X111969494Y-66790000D01*
X112760000Y-66790000D01*
X112760000Y-65990000D01*
X113260000Y-65990000D01*
X113260000Y-66790000D01*
X114050506Y-66790000D01*
X114229293Y-66761682D01*
X114401444Y-66705748D01*
X114401447Y-66705747D01*
X114562734Y-66623565D01*
X114709169Y-66517176D01*
X114837176Y-66389169D01*
X114943565Y-66242734D01*
X115025747Y-66081447D01*
X115025749Y-66081441D01*
X115081681Y-65909295D01*
X115081684Y-65909285D01*
X115084739Y-65890000D01*
X113904975Y-65890000D01*
X113940070Y-65854905D01*
X113986148Y-65775095D01*
X114010000Y-65686078D01*
X114010000Y-65593922D01*
X113986148Y-65504905D01*
X113940070Y-65425095D01*
X113904975Y-65390000D01*
X115084739Y-65390000D01*
X115435261Y-65390000D01*
X116465025Y-65390000D01*
X116429930Y-65425095D01*
X116383852Y-65504905D01*
X116360000Y-65593922D01*
X116360000Y-65686078D01*
X116383852Y-65775095D01*
X116429930Y-65854905D01*
X116465025Y-65890000D01*
X115435261Y-65890000D01*
X115438315Y-65909285D01*
X115438318Y-65909295D01*
X115494250Y-66081441D01*
X115494252Y-66081447D01*
X115576434Y-66242734D01*
X115682823Y-66389169D01*
X115810830Y-66517176D01*
X115957265Y-66623565D01*
X116118552Y-66705747D01*
X116118555Y-66705748D01*
X116290706Y-66761682D01*
X116469494Y-66790000D01*
X116910000Y-66790000D01*
X116910000Y-65990000D01*
X117410000Y-65990000D01*
X117410000Y-66790000D01*
X117850506Y-66790000D01*
X118029293Y-66761682D01*
X118201444Y-66705748D01*
X118201447Y-66705747D01*
X118362734Y-66623565D01*
X118509169Y-66517176D01*
X118637176Y-66389169D01*
X118743565Y-66242734D01*
X118825747Y-66081447D01*
X118825749Y-66081441D01*
X118881681Y-65909295D01*
X118881684Y-65909285D01*
X118884739Y-65890000D01*
X117854975Y-65890000D01*
X117890070Y-65854905D01*
X117936148Y-65775095D01*
X117960000Y-65686078D01*
X117960000Y-65593922D01*
X117936148Y-65504905D01*
X117890070Y-65425095D01*
X117854975Y-65390000D01*
X118884739Y-65390000D01*
X118881684Y-65370714D01*
X118881681Y-65370704D01*
X118825749Y-65198558D01*
X118825747Y-65198552D01*
X118743565Y-65037265D01*
X118637176Y-64890830D01*
X118509169Y-64762823D01*
X118362734Y-64656434D01*
X118201447Y-64574252D01*
X118201444Y-64574251D01*
X118029293Y-64518317D01*
X117850506Y-64490000D01*
X117410000Y-64490000D01*
X117410000Y-65290000D01*
X116910000Y-65290000D01*
X116910000Y-64490000D01*
X116469494Y-64490000D01*
X116290706Y-64518317D01*
X116118555Y-64574251D01*
X116118552Y-64574252D01*
X115957265Y-64656434D01*
X115810830Y-64762823D01*
X115682823Y-64890830D01*
X115576434Y-65037265D01*
X115494252Y-65198552D01*
X115494250Y-65198558D01*
X115438318Y-65370704D01*
X115438315Y-65370714D01*
X115435261Y-65390000D01*
X115084739Y-65390000D01*
X115081684Y-65370714D01*
X115081681Y-65370704D01*
X115025749Y-65198558D01*
X115025747Y-65198552D01*
X114943565Y-65037265D01*
X114837176Y-64890830D01*
X114709171Y-64762825D01*
X114673023Y-64736563D01*
X114630357Y-64681234D01*
X114624378Y-64611620D01*
X114627977Y-64597926D01*
X114670432Y-64467264D01*
X114688538Y-64295000D01*
X114670432Y-64122735D01*
X114670431Y-64122732D01*
X114616907Y-63958002D01*
X114592618Y-63915933D01*
X114592577Y-63915927D01*
X114531354Y-63949358D01*
X114461662Y-63944372D01*
X114405729Y-63902500D01*
X114381313Y-63837036D01*
X114396165Y-63768763D01*
X114402941Y-63757760D01*
X114417029Y-63737351D01*
X114470807Y-63595550D01*
X114489087Y-63445000D01*
X114470807Y-63294450D01*
X114417029Y-63152649D01*
X114374088Y-63090438D01*
X114352205Y-63024087D01*
X114369670Y-62956435D01*
X114374088Y-62949561D01*
X114417029Y-62887351D01*
X114470807Y-62745550D01*
X114489087Y-62595000D01*
X114470807Y-62444450D01*
X114459621Y-62414956D01*
X114450411Y-62390671D01*
X114417029Y-62302649D01*
X114374088Y-62240438D01*
X114352205Y-62174087D01*
X114369670Y-62106435D01*
X114374088Y-62099561D01*
X114417029Y-62037351D01*
X114470807Y-61895550D01*
X114489087Y-61745000D01*
X114470807Y-61594450D01*
X114465015Y-61579179D01*
X114450411Y-61540671D01*
X114417029Y-61452649D01*
X114374088Y-61390438D01*
X114352205Y-61324087D01*
X114369670Y-61256435D01*
X114374088Y-61249561D01*
X114417029Y-61187351D01*
X114470807Y-61045550D01*
X114489087Y-60895000D01*
X114480081Y-60820824D01*
X114470807Y-60744449D01*
X114450046Y-60689707D01*
X114417029Y-60602649D01*
X114374088Y-60540438D01*
X114352205Y-60474087D01*
X114369670Y-60406435D01*
X114374088Y-60399561D01*
X114417029Y-60337351D01*
X114470807Y-60195550D01*
X114489087Y-60045000D01*
X114470807Y-59894450D01*
X114417029Y-59752649D01*
X114374088Y-59690438D01*
X114352205Y-59624087D01*
X114369670Y-59556435D01*
X114374088Y-59549561D01*
X114417029Y-59487351D01*
X114470807Y-59345550D01*
X114489087Y-59195000D01*
X114470807Y-59044450D01*
X114417029Y-58902649D01*
X114402944Y-58882243D01*
X114381062Y-58815891D01*
X114398527Y-58748240D01*
X114449795Y-58700769D01*
X114518588Y-58688552D01*
X114583065Y-58715467D01*
X114592612Y-58724067D01*
X114592618Y-58724066D01*
X114616909Y-58681994D01*
X114670431Y-58517267D01*
X114670432Y-58517264D01*
X114688538Y-58345000D01*
X114670432Y-58172735D01*
X114670431Y-58172733D01*
X114627977Y-58042072D01*
X114625982Y-57972231D01*
X114662062Y-57912398D01*
X114673025Y-57903434D01*
X114709176Y-57877169D01*
X114837176Y-57749169D01*
X114943565Y-57602734D01*
X115025747Y-57441447D01*
X115025749Y-57441441D01*
X115081681Y-57269295D01*
X115081684Y-57269285D01*
X115084739Y-57250000D01*
X113904975Y-57250000D01*
X113940070Y-57214905D01*
X113986148Y-57135095D01*
X114010000Y-57046078D01*
X114010000Y-56953922D01*
X113986148Y-56864905D01*
X113940070Y-56785095D01*
X113904975Y-56750000D01*
X115084739Y-56750000D01*
X115435261Y-56750000D01*
X116465025Y-56750000D01*
X116429930Y-56785095D01*
X116383852Y-56864905D01*
X116360000Y-56953922D01*
X116360000Y-57046078D01*
X116383852Y-57135095D01*
X116429930Y-57214905D01*
X116465025Y-57250000D01*
X115435261Y-57250000D01*
X115438315Y-57269285D01*
X115438318Y-57269295D01*
X115494250Y-57441441D01*
X115494252Y-57441447D01*
X115576434Y-57602734D01*
X115682823Y-57749169D01*
X115810830Y-57877176D01*
X115957265Y-57983565D01*
X116118552Y-58065747D01*
X116118555Y-58065748D01*
X116290706Y-58121682D01*
X116469494Y-58150000D01*
X116910000Y-58150000D01*
X116910000Y-57350000D01*
X117410000Y-57350000D01*
X117410000Y-58150000D01*
X117850506Y-58150000D01*
X118029293Y-58121682D01*
X118201444Y-58065748D01*
X118201447Y-58065747D01*
X118362734Y-57983565D01*
X118509169Y-57877176D01*
X118637176Y-57749169D01*
X118743565Y-57602734D01*
X118825747Y-57441447D01*
X118825749Y-57441441D01*
X118881681Y-57269295D01*
X118881684Y-57269285D01*
X118884739Y-57250000D01*
X117854975Y-57250000D01*
X117890070Y-57214905D01*
X117936148Y-57135095D01*
X117960000Y-57046078D01*
X117960000Y-56953922D01*
X117936148Y-56864905D01*
X117890070Y-56785095D01*
X117854975Y-56750000D01*
X118884739Y-56750000D01*
X118881684Y-56730714D01*
X118881681Y-56730704D01*
X118825749Y-56558558D01*
X118825747Y-56558552D01*
X118743565Y-56397265D01*
X118637176Y-56250830D01*
X118509169Y-56122823D01*
X118362734Y-56016434D01*
X118201447Y-55934252D01*
X118201444Y-55934251D01*
X118029293Y-55878317D01*
X117850506Y-55850000D01*
X117410000Y-55850000D01*
X117410000Y-56650000D01*
X116910000Y-56650000D01*
X116910000Y-55850000D01*
X116469494Y-55850000D01*
X116290706Y-55878317D01*
X116118555Y-55934251D01*
X116118552Y-55934252D01*
X115957265Y-56016434D01*
X115810830Y-56122823D01*
X115682823Y-56250830D01*
X115576434Y-56397265D01*
X115494252Y-56558552D01*
X115494250Y-56558558D01*
X115438318Y-56730704D01*
X115438315Y-56730714D01*
X115435261Y-56750000D01*
X115084739Y-56750000D01*
X115081684Y-56730714D01*
X115081681Y-56730704D01*
X115025749Y-56558558D01*
X115025747Y-56558552D01*
X114943565Y-56397265D01*
X114837176Y-56250830D01*
X114709169Y-56122823D01*
X114562734Y-56016434D01*
X114401447Y-55934252D01*
X114401444Y-55934251D01*
X114229293Y-55878317D01*
X114050506Y-55850000D01*
X113260000Y-55850000D01*
X113260000Y-56650000D01*
X112760000Y-56650000D01*
X112760000Y-55850000D01*
X111969494Y-55850000D01*
X111790706Y-55878317D01*
X111618555Y-55934251D01*
X111618552Y-55934252D01*
X111457265Y-56016434D01*
X111310830Y-56122823D01*
X111182823Y-56250830D01*
X111076434Y-56397265D01*
X110994252Y-56558552D01*
X110994250Y-56558558D01*
X110938318Y-56730704D01*
X110938315Y-56730714D01*
X110935261Y-56750000D01*
X95600500Y-56750000D01*
X95600500Y-55547487D01*
X95601561Y-55531301D01*
X95605682Y-55500000D01*
X95605682Y-55499998D01*
X95601561Y-55468697D01*
X95600500Y-55452512D01*
X95600500Y-55420945D01*
X95600500Y-55420943D01*
X95592327Y-55390441D01*
X95589164Y-55374536D01*
X95585044Y-55343239D01*
X95585044Y-55343238D01*
X95572957Y-55314060D01*
X95567745Y-55298703D01*
X95559576Y-55268214D01*
X95543791Y-55240873D01*
X95536617Y-55226326D01*
X95535657Y-55224009D01*
X95524536Y-55197159D01*
X95505311Y-55172104D01*
X95496305Y-55158625D01*
X95480522Y-55131287D01*
X95480518Y-55131282D01*
X95458196Y-55108960D01*
X95447501Y-55096765D01*
X95428281Y-55071717D01*
X95403233Y-55052497D01*
X95391039Y-55041803D01*
X95368718Y-55019482D01*
X95368717Y-55019481D01*
X95368716Y-55019480D01*
X95368713Y-55019478D01*
X95368709Y-55019475D01*
X95341372Y-55003692D01*
X95327887Y-54994682D01*
X95302840Y-54975463D01*
X95302839Y-54975462D01*
X95273668Y-54963379D01*
X95259123Y-54956207D01*
X95231784Y-54940423D01*
X95231781Y-54940422D01*
X95201288Y-54932251D01*
X95185932Y-54927038D01*
X95156764Y-54914956D01*
X95125450Y-54910833D01*
X95109552Y-54907670D01*
X95079057Y-54899500D01*
X95047487Y-54899500D01*
X95031302Y-54898439D01*
X95000000Y-54894318D01*
X94968697Y-54898439D01*
X94952513Y-54899500D01*
X90586669Y-54899500D01*
X90586653Y-54899499D01*
X90579057Y-54899499D01*
X90420943Y-54899499D01*
X90318168Y-54927038D01*
X90268210Y-54940424D01*
X90268209Y-54940425D01*
X90218096Y-54969359D01*
X90218095Y-54969360D01*
X90174689Y-54994420D01*
X90131285Y-55019479D01*
X90131282Y-55019481D01*
X86419481Y-58731282D01*
X86419479Y-58731285D01*
X86382984Y-58794498D01*
X86382983Y-58794500D01*
X86340423Y-58868214D01*
X86340423Y-58868215D01*
X86299499Y-59020943D01*
X86299499Y-59020945D01*
X86299499Y-59189046D01*
X86299500Y-59189059D01*
X86299500Y-68925500D01*
X86279815Y-68992539D01*
X86227011Y-69038294D01*
X86175500Y-69049500D01*
X71429057Y-69049500D01*
X71270942Y-69049500D01*
X71118215Y-69090423D01*
X71118214Y-69090423D01*
X71118212Y-69090424D01*
X71118209Y-69090425D01*
X71068096Y-69119359D01*
X71068095Y-69119360D01*
X71047447Y-69131281D01*
X70981285Y-69169479D01*
X70981282Y-69169481D01*
X70869478Y-69281286D01*
X69608965Y-70541798D01*
X69596773Y-70552491D01*
X69571717Y-70571718D01*
X69552492Y-70596771D01*
X69541803Y-70608959D01*
X69519482Y-70631280D01*
X69503693Y-70658628D01*
X69494685Y-70672108D01*
X69475464Y-70697157D01*
X69475464Y-70697158D01*
X69463380Y-70726331D01*
X69456208Y-70740873D01*
X69440424Y-70768212D01*
X69432248Y-70798718D01*
X69427038Y-70814065D01*
X69414956Y-70843235D01*
X69410834Y-70874541D01*
X69407670Y-70890442D01*
X69399500Y-70920935D01*
X69399499Y-70920943D01*
X69399499Y-70952519D01*
X69398438Y-70968704D01*
X69394318Y-70999998D01*
X69394318Y-71000000D01*
X69398438Y-71031293D01*
X69399499Y-71047479D01*
X69399499Y-71079056D01*
X69407671Y-71109557D01*
X69410834Y-71125458D01*
X69414956Y-71156763D01*
X69414957Y-71156765D01*
X69427038Y-71185934D01*
X69432250Y-71201288D01*
X69440421Y-71231780D01*
X69440425Y-71231790D01*
X69456205Y-71259121D01*
X69463378Y-71273665D01*
X69475464Y-71302841D01*
X69475466Y-71302843D01*
X69475468Y-71302847D01*
X69494683Y-71327888D01*
X69503694Y-71341373D01*
X69519481Y-71368716D01*
X69541806Y-71391041D01*
X69552488Y-71403221D01*
X69571717Y-71428281D01*
X69571719Y-71428283D01*
X69589385Y-71441838D01*
X69596758Y-71447496D01*
X69596769Y-71447504D01*
X69608964Y-71458199D01*
X69631284Y-71480519D01*
X69658621Y-71496302D01*
X69672100Y-71505308D01*
X69697159Y-71524536D01*
X69726330Y-71536618D01*
X69740868Y-71543788D01*
X69768215Y-71559577D01*
X69798718Y-71567750D01*
X69814069Y-71572962D01*
X69843236Y-71585043D01*
X69843235Y-71585043D01*
X69843238Y-71585044D01*
X69874536Y-71589164D01*
X69890445Y-71592329D01*
X69907401Y-71596872D01*
X69920943Y-71600501D01*
X69952520Y-71600501D01*
X69968705Y-71601562D01*
X69999999Y-71605682D01*
X70000000Y-71605682D01*
X70000001Y-71605682D01*
X70031295Y-71601562D01*
X70047480Y-71600501D01*
X70079057Y-71600501D01*
X70109554Y-71592328D01*
X70125456Y-71589165D01*
X70156762Y-71585044D01*
X70185943Y-71572956D01*
X70201284Y-71567749D01*
X70231785Y-71559577D01*
X70259131Y-71543787D01*
X70273668Y-71536619D01*
X70302841Y-71524536D01*
X70327899Y-71505307D01*
X70341378Y-71496302D01*
X70368716Y-71480519D01*
X70391047Y-71458186D01*
X70403230Y-71447504D01*
X70428282Y-71428282D01*
X70447510Y-71403222D01*
X70458189Y-71391044D01*
X71562416Y-70286819D01*
X71623739Y-70253334D01*
X71650097Y-70250500D01*
X74818059Y-70250500D01*
X74885098Y-70270185D01*
X74930853Y-70322989D01*
X74940797Y-70392147D01*
X74911772Y-70455703D01*
X74905740Y-70462181D01*
X74878213Y-70489707D01*
X74878210Y-70489711D01*
X74790609Y-70620814D01*
X74790602Y-70620827D01*
X74730264Y-70766498D01*
X74730261Y-70766510D01*
X74699500Y-70921153D01*
X74699500Y-71078846D01*
X74730261Y-71233489D01*
X74730264Y-71233501D01*
X74790602Y-71379172D01*
X74790609Y-71379185D01*
X74878210Y-71510288D01*
X74878213Y-71510292D01*
X74913180Y-71545258D01*
X74946666Y-71606580D01*
X74949500Y-71632940D01*
X74949500Y-84075500D01*
X74929815Y-84142539D01*
X74877011Y-84188294D01*
X74825500Y-84199500D01*
X66882940Y-84199500D01*
X66815901Y-84179815D01*
X66795259Y-84163181D01*
X66410291Y-83778212D01*
X66410288Y-83778210D01*
X66279185Y-83690609D01*
X66279172Y-83690602D01*
X66133501Y-83630264D01*
X66133489Y-83630261D01*
X65978845Y-83599500D01*
X65978842Y-83599500D01*
X65178842Y-83599500D01*
X65021157Y-83599500D01*
X65021154Y-83599500D01*
X64866509Y-83630261D01*
X64866497Y-83630264D01*
X64823832Y-83647936D01*
X64823833Y-83647937D01*
X64720823Y-83690604D01*
X64720814Y-83690609D01*
X64589712Y-83778209D01*
X64589711Y-83778211D01*
X64589710Y-83778212D01*
X64189711Y-84178211D01*
X64133960Y-84233962D01*
X64078209Y-84289712D01*
X63990609Y-84420814D01*
X63990602Y-84420827D01*
X63930264Y-84566498D01*
X63930261Y-84566510D01*
X63899500Y-84721153D01*
X60500500Y-84721153D01*
X60500500Y-81249999D01*
X65650884Y-81249999D01*
X65650885Y-81250000D01*
X66719670Y-81250000D01*
X66699925Y-81269745D01*
X66650556Y-81355255D01*
X66625000Y-81450630D01*
X66625000Y-81549370D01*
X66650556Y-81644745D01*
X66699925Y-81730255D01*
X66719670Y-81750000D01*
X65650885Y-81750000D01*
X65652085Y-81757584D01*
X65705591Y-81922255D01*
X65784195Y-82076524D01*
X65885967Y-82216602D01*
X66008397Y-82339032D01*
X66148475Y-82440804D01*
X66302742Y-82519408D01*
X66467415Y-82572914D01*
X66638429Y-82600000D01*
X66750000Y-82600000D01*
X66750000Y-81780330D01*
X66769745Y-81800075D01*
X66855255Y-81849444D01*
X66950630Y-81875000D01*
X67049370Y-81875000D01*
X67144745Y-81849444D01*
X67230255Y-81800075D01*
X67250000Y-81780330D01*
X67250000Y-82600000D01*
X67361571Y-82600000D01*
X67532584Y-82572914D01*
X67697257Y-82519408D01*
X67851524Y-82440804D01*
X67991602Y-82339032D01*
X68114032Y-82216602D01*
X68215804Y-82076524D01*
X68294408Y-81922255D01*
X68347914Y-81757584D01*
X68349115Y-81750000D01*
X67280330Y-81750000D01*
X67300075Y-81730255D01*
X67349444Y-81644745D01*
X67375000Y-81549370D01*
X67375000Y-81450630D01*
X67349444Y-81355255D01*
X67300075Y-81269745D01*
X67280330Y-81250000D01*
X68349115Y-81250000D01*
X68349115Y-81249999D01*
X68347914Y-81242415D01*
X68294408Y-81077744D01*
X68215804Y-80923475D01*
X68114032Y-80783397D01*
X67991596Y-80660961D01*
X67849832Y-80557965D01*
X67807166Y-80502636D01*
X67801187Y-80433022D01*
X67833792Y-80371227D01*
X67877228Y-80342292D01*
X67897342Y-80334361D01*
X68017922Y-80242922D01*
X68109361Y-80122342D01*
X68164877Y-79981564D01*
X68175500Y-79893102D01*
X68175500Y-79106898D01*
X68164877Y-79018436D01*
X68109361Y-78877658D01*
X68109360Y-78877657D01*
X68109360Y-78877656D01*
X68017922Y-78757077D01*
X67897343Y-78665639D01*
X67756561Y-78610122D01*
X67710926Y-78604642D01*
X67668102Y-78599500D01*
X66331898Y-78599500D01*
X66292853Y-78604188D01*
X66243438Y-78610122D01*
X66102656Y-78665639D01*
X65982077Y-78757077D01*
X65890639Y-78877656D01*
X65835122Y-79018438D01*
X65829188Y-79067853D01*
X65824500Y-79106898D01*
X65824500Y-79893102D01*
X65828725Y-79928282D01*
X65835122Y-79981561D01*
X65890639Y-80122343D01*
X65982077Y-80242922D01*
X66102656Y-80334360D01*
X66102657Y-80334360D01*
X66102658Y-80334361D01*
X66122771Y-80342292D01*
X66177914Y-80385196D01*
X66201109Y-80451103D01*
X66184990Y-80519088D01*
X66150167Y-80557965D01*
X66008404Y-80660961D01*
X66008399Y-80660965D01*
X65885967Y-80783397D01*
X65784195Y-80923475D01*
X65705591Y-81077744D01*
X65652085Y-81242415D01*
X65650884Y-81249999D01*
X60500500Y-81249999D01*
X60500500Y-61621153D01*
X65199500Y-61621153D01*
X65199500Y-71278846D01*
X65230261Y-71433489D01*
X65230264Y-71433501D01*
X65290602Y-71579172D01*
X65290609Y-71579185D01*
X65378210Y-71710288D01*
X65378213Y-71710292D01*
X65489707Y-71821786D01*
X65489711Y-71821789D01*
X65620814Y-71909390D01*
X65620827Y-71909397D01*
X65720374Y-71950630D01*
X65766503Y-71969737D01*
X65921153Y-72000499D01*
X65921156Y-72000500D01*
X65921158Y-72000500D01*
X66078844Y-72000500D01*
X66078845Y-72000499D01*
X66233497Y-71969737D01*
X66379179Y-71909394D01*
X66510289Y-71821789D01*
X66621789Y-71710289D01*
X66709394Y-71579179D01*
X66769737Y-71433497D01*
X66800500Y-71278842D01*
X66800500Y-62082940D01*
X66820185Y-62015901D01*
X66836819Y-61995259D01*
X67121786Y-61710292D01*
X67121789Y-61710289D01*
X67209394Y-61579179D01*
X67269738Y-61433497D01*
X67300500Y-61278842D01*
X67300500Y-61121157D01*
X67269738Y-60966503D01*
X67209394Y-60820821D01*
X67209392Y-60820818D01*
X67209390Y-60820814D01*
X67121789Y-60689711D01*
X67121786Y-60689707D01*
X67010292Y-60578213D01*
X67010288Y-60578210D01*
X66879185Y-60490609D01*
X66879175Y-60490604D01*
X66733497Y-60430262D01*
X66733489Y-60430260D01*
X66578847Y-60399500D01*
X66578843Y-60399500D01*
X66421158Y-60399500D01*
X66421153Y-60399500D01*
X66266510Y-60430260D01*
X66266502Y-60430262D01*
X66120824Y-60490604D01*
X66120814Y-60490609D01*
X65989711Y-60578210D01*
X65989707Y-60578213D01*
X65601420Y-60966502D01*
X65489711Y-61078211D01*
X65446770Y-61121152D01*
X65378209Y-61189712D01*
X65290609Y-61320814D01*
X65290602Y-61320827D01*
X65230264Y-61466498D01*
X65230261Y-61466510D01*
X65199500Y-61621153D01*
X60500500Y-61621153D01*
X60500500Y-52378711D01*
X61649500Y-52378711D01*
X61649500Y-52621288D01*
X61681161Y-52861785D01*
X61743947Y-53096104D01*
X61836773Y-53320205D01*
X61836776Y-53320212D01*
X61958064Y-53530289D01*
X61958066Y-53530292D01*
X61958067Y-53530293D01*
X62105733Y-53722736D01*
X62105739Y-53722743D01*
X62277256Y-53894260D01*
X62277262Y-53894265D01*
X62469711Y-54041936D01*
X62679788Y-54163224D01*
X62903900Y-54256054D01*
X63138211Y-54318838D01*
X63318586Y-54342584D01*
X63378711Y-54350500D01*
X63378712Y-54350500D01*
X63621289Y-54350500D01*
X63669388Y-54344167D01*
X63861789Y-54318838D01*
X64096100Y-54256054D01*
X64320212Y-54163224D01*
X64530289Y-54041936D01*
X64722738Y-53894265D01*
X64894265Y-53722738D01*
X65041936Y-53530289D01*
X65163224Y-53320212D01*
X65256054Y-53096100D01*
X65318838Y-52861789D01*
X65350500Y-52621288D01*
X65350500Y-52378712D01*
X65350500Y-52378711D01*
X114649500Y-52378711D01*
X114649500Y-52621288D01*
X114681161Y-52861785D01*
X114743947Y-53096104D01*
X114836773Y-53320205D01*
X114836776Y-53320212D01*
X114958064Y-53530289D01*
X114958066Y-53530292D01*
X114958067Y-53530293D01*
X115105733Y-53722736D01*
X115105739Y-53722743D01*
X115277256Y-53894260D01*
X115277262Y-53894265D01*
X115469711Y-54041936D01*
X115679788Y-54163224D01*
X115903900Y-54256054D01*
X116138211Y-54318838D01*
X116318586Y-54342584D01*
X116378711Y-54350500D01*
X116378712Y-54350500D01*
X116621289Y-54350500D01*
X116669388Y-54344167D01*
X116861789Y-54318838D01*
X117096100Y-54256054D01*
X117320212Y-54163224D01*
X117530289Y-54041936D01*
X117722738Y-53894265D01*
X117894265Y-53722738D01*
X118041936Y-53530289D01*
X118163224Y-53320212D01*
X118256054Y-53096100D01*
X118318838Y-52861789D01*
X118350500Y-52621288D01*
X118350500Y-52378712D01*
X118318838Y-52138211D01*
X118256054Y-51903900D01*
X118163224Y-51679788D01*
X118041936Y-51469711D01*
X117894265Y-51277262D01*
X117894260Y-51277256D01*
X117722743Y-51105739D01*
X117722736Y-51105733D01*
X117530293Y-50958067D01*
X117530292Y-50958066D01*
X117530289Y-50958064D01*
X117320212Y-50836776D01*
X117320205Y-50836773D01*
X117096104Y-50743947D01*
X116861785Y-50681161D01*
X116621289Y-50649500D01*
X116621288Y-50649500D01*
X116378712Y-50649500D01*
X116378711Y-50649500D01*
X116138214Y-50681161D01*
X115903895Y-50743947D01*
X115679794Y-50836773D01*
X115679785Y-50836777D01*
X115469706Y-50958067D01*
X115277263Y-51105733D01*
X115277256Y-51105739D01*
X115105739Y-51277256D01*
X115105733Y-51277263D01*
X114958067Y-51469706D01*
X114836777Y-51679785D01*
X114836773Y-51679794D01*
X114743947Y-51903895D01*
X114681161Y-52138214D01*
X114649500Y-52378711D01*
X65350500Y-52378711D01*
X65318838Y-52138211D01*
X65256054Y-51903900D01*
X65163224Y-51679788D01*
X65041936Y-51469711D01*
X64894265Y-51277262D01*
X64894260Y-51277256D01*
X64722743Y-51105739D01*
X64722736Y-51105733D01*
X64530293Y-50958067D01*
X64530292Y-50958066D01*
X64530289Y-50958064D01*
X64320212Y-50836776D01*
X64320205Y-50836773D01*
X64096104Y-50743947D01*
X63861785Y-50681161D01*
X63621289Y-50649500D01*
X63621288Y-50649500D01*
X63378712Y-50649500D01*
X63378711Y-50649500D01*
X63138214Y-50681161D01*
X62903895Y-50743947D01*
X62679794Y-50836773D01*
X62679785Y-50836777D01*
X62469706Y-50958067D01*
X62277263Y-51105733D01*
X62277256Y-51105739D01*
X62105739Y-51277256D01*
X62105733Y-51277263D01*
X61958067Y-51469706D01*
X61836777Y-51679785D01*
X61836773Y-51679794D01*
X61743947Y-51903895D01*
X61681161Y-52138214D01*
X61649500Y-52378711D01*
X60500500Y-52378711D01*
X60500500Y-49624500D01*
X60520185Y-49557461D01*
X60572989Y-49511706D01*
X60624500Y-49500500D01*
X119375500Y-49500500D01*
X119442539Y-49520185D01*
G37*
%TD.AperFunction*%
%TD*%
D29*
X89000000Y-145750000D03*
X72250000Y-142500000D03*
X70500000Y-145000000D03*
D30*
X98500000Y-99000000D03*
X65100000Y-84400000D03*
X89000000Y-92000000D03*
X88500000Y-84500000D03*
X79000000Y-107000000D03*
X76160975Y-97650000D03*
X67200000Y-86300000D03*
X76000000Y-86000000D03*
X66300000Y-87700000D03*
X65800000Y-86500000D03*
X66500000Y-85000000D03*
X91500000Y-114500000D03*
X70860662Y-105880331D03*
X64900000Y-87600000D03*
X80000000Y-83500000D03*
X64700000Y-85600000D03*
X75500000Y-102500000D03*
X84000000Y-83000000D03*
X93500000Y-128000000D03*
X75500000Y-71000000D03*
X71000000Y-92500000D03*
X78500000Y-103500000D03*
D29*
X71200000Y-57600000D03*
X107000000Y-84100000D03*
X108200000Y-129800000D03*
X109000000Y-57500000D03*
X114800000Y-118400000D03*
X62500000Y-140000000D03*
X66700000Y-141300000D03*
X118100000Y-139200000D03*
X77300000Y-70900000D03*
X87700000Y-51600000D03*
X92800000Y-140200000D03*
X118500000Y-125500000D03*
X112700000Y-120400000D03*
X106200000Y-79200000D03*
X118600000Y-131800000D03*
X97900000Y-72400000D03*
X65100000Y-82200000D03*
X91600000Y-112700000D03*
X118500000Y-89000000D03*
X96000000Y-68000000D03*
X97100000Y-114000000D03*
X94600000Y-138800000D03*
X107000000Y-56500000D03*
X91800000Y-70600000D03*
X94700000Y-130800000D03*
X66900000Y-107000000D03*
X113000000Y-86500000D03*
X109900000Y-56200000D03*
X103750000Y-60750000D03*
X84800000Y-79500000D03*
X109800000Y-52500000D03*
X118400000Y-109000000D03*
X112300000Y-142400000D03*
X114800000Y-104800000D03*
X109000000Y-143000000D03*
X112700000Y-54900000D03*
X118000000Y-59500000D03*
X64300000Y-60300000D03*
X93400000Y-54400000D03*
X68700000Y-60400000D03*
X84000000Y-106600000D03*
X82200000Y-101600000D03*
X104200000Y-97000000D03*
X61800000Y-57900000D03*
X63500000Y-108000000D03*
X118400000Y-91400000D03*
X118400000Y-114000000D03*
X83000000Y-107900000D03*
X82900000Y-121200000D03*
X96400000Y-97800000D03*
X112600000Y-129000000D03*
X103600000Y-127800000D03*
X107700000Y-53500000D03*
X108500000Y-71500000D03*
X62000000Y-117500000D03*
X112000000Y-70500000D03*
X102400000Y-58800000D03*
X116400000Y-61600000D03*
X105800000Y-98200000D03*
X104300000Y-81700000D03*
X96250000Y-72250000D03*
X96900000Y-142000000D03*
X99400000Y-114100000D03*
X112000000Y-112000000D03*
X83200000Y-81400000D03*
X105800000Y-83400000D03*
X118400000Y-61400000D03*
X76500000Y-142500000D03*
X96700000Y-51100000D03*
X104500000Y-69300000D03*
X104900000Y-78000000D03*
X90500000Y-116100000D03*
X74500000Y-64000000D03*
X94200000Y-80600000D03*
X118400000Y-141300000D03*
X118500000Y-104500000D03*
X62100000Y-124300000D03*
X84000000Y-58500000D03*
X91200000Y-142300000D03*
X76800000Y-65400000D03*
X84800000Y-73200000D03*
X117000000Y-68500000D03*
X98100000Y-147500000D03*
X63400000Y-131800000D03*
X96000000Y-70700000D03*
X116100000Y-86400000D03*
X62000000Y-62500000D03*
X102000000Y-81800000D03*
X69000000Y-139000000D03*
X102800000Y-74400000D03*
X105800000Y-94200000D03*
X100400000Y-68000000D03*
X105800000Y-92200000D03*
X114800000Y-101400000D03*
X112600000Y-139900000D03*
X98800000Y-68000000D03*
X116500000Y-80500000D03*
X110500000Y-60100000D03*
X108000000Y-65000000D03*
X116500000Y-63500000D03*
X103200000Y-52400000D03*
X100200000Y-92600000D03*
X118500000Y-73500000D03*
X87500000Y-144000000D03*
X94200000Y-92400000D03*
X78750000Y-143250000D03*
X118000000Y-135500000D03*
X87000000Y-102000000D03*
X69800000Y-78900000D03*
X90000000Y-73500000D03*
X106500000Y-77500000D03*
X95000000Y-51000000D03*
X103250000Y-70200000D03*
X104500000Y-85500000D03*
X100000000Y-89500000D03*
X82800000Y-66400000D03*
X100100000Y-99100000D03*
X106500000Y-75000000D03*
X99600000Y-141900000D03*
X110500000Y-120400000D03*
X112800000Y-79700000D03*
X99200000Y-84800000D03*
D30*
X105900000Y-142000000D03*
D29*
X105000000Y-75100000D03*
X106100000Y-85500000D03*
X108400000Y-112000000D03*
X94000000Y-114500000D03*
X80200000Y-79700000D03*
X74500000Y-68600000D03*
X118500000Y-79000000D03*
X94000000Y-141500000D03*
X61600000Y-74900000D03*
X97500000Y-53000000D03*
X72000000Y-59500000D03*
X118500000Y-117000000D03*
X84000000Y-102000000D03*
X115000000Y-74000000D03*
X118400000Y-102800000D03*
X73526092Y-94153295D03*
X71500000Y-64800000D03*
X108600000Y-116600000D03*
X118400000Y-123800000D03*
X106300000Y-55100000D03*
X103750000Y-58750000D03*
X68000000Y-113000000D03*
X81000000Y-98000000D03*
X118600000Y-127600000D03*
X110100000Y-147400000D03*
X95200000Y-129000000D03*
X82000000Y-143750000D03*
X61800000Y-82400000D03*
X85500000Y-98500000D03*
X118400000Y-95200000D03*
X105500000Y-53500000D03*
X88000000Y-88500000D03*
X91300000Y-147200000D03*
X80800000Y-147200000D03*
X94400000Y-78800000D03*
X100300000Y-52500000D03*
X89500000Y-63000000D03*
X72800000Y-50400000D03*
X64200000Y-68700000D03*
X103400000Y-114100000D03*
X115800000Y-112200000D03*
X80500000Y-123600000D03*
X108300000Y-77300000D03*
X72800000Y-63500000D03*
X64100000Y-118600000D03*
X84100000Y-147200000D03*
X62100000Y-130000000D03*
X95500000Y-52500000D03*
X104200000Y-95000000D03*
X94200000Y-60900000D03*
X108000000Y-79000000D03*
X73600000Y-57600000D03*
X92500000Y-53250000D03*
X85900000Y-51600000D03*
X91700000Y-60300000D03*
X85700000Y-80900000D03*
X67200000Y-111200000D03*
X75750000Y-140750000D03*
X62000000Y-133500000D03*
X118400000Y-119600000D03*
X103000000Y-80500000D03*
X108500000Y-55000000D03*
X75700000Y-58800000D03*
X113000000Y-126000000D03*
X101400000Y-147400000D03*
X95000000Y-126500000D03*
X74000000Y-140000000D03*
X116200000Y-83100000D03*
X82000000Y-65400000D03*
X74000000Y-79500000D03*
X82400000Y-60800000D03*
X73500000Y-142000000D03*
X93600000Y-86400000D03*
X109600000Y-101400000D03*
X62100000Y-127000000D03*
X78900000Y-108800000D03*
X91100000Y-51600000D03*
X100400000Y-69500000D03*
X100800000Y-127800000D03*
X70500000Y-138000000D03*
X108600000Y-144800000D03*
X111400000Y-101400000D03*
X89600000Y-87200000D03*
X114800000Y-120000000D03*
X118600000Y-129800000D03*
X62600000Y-87800000D03*
X92300000Y-103100000D03*
X62500000Y-86200000D03*
X92800000Y-51600000D03*
X110500000Y-54500000D03*
X77800000Y-112200000D03*
X85500000Y-60400000D03*
X73500000Y-91000000D03*
X107700000Y-58300000D03*
X114600000Y-141500000D03*
X66600000Y-76000000D03*
X99700000Y-81000000D03*
X95500000Y-96500000D03*
X105500000Y-60500000D03*
X117700000Y-137600000D03*
X68000000Y-115000000D03*
X89800000Y-60300000D03*
X104200000Y-91000000D03*
X102600000Y-142100000D03*
D30*
X76750000Y-99920094D03*
D29*
X103100000Y-68900000D03*
X108000000Y-51500000D03*
X89500000Y-64500000D03*
X109500000Y-66000000D03*
X111900000Y-53700000D03*
X93800000Y-147600000D03*
X102700000Y-85500000D03*
X62000000Y-105500000D03*
X115400000Y-139000000D03*
X88600000Y-78800000D03*
X111500000Y-144500000D03*
X82200000Y-58900000D03*
X90000000Y-78800000D03*
X118400000Y-121800000D03*
X86900000Y-73500000D03*
X109500000Y-64500000D03*
X100000000Y-91000000D03*
X90900000Y-101700000D03*
X91500000Y-62000000D03*
X66500000Y-117200000D03*
X101500000Y-51500000D03*
X74200000Y-62300000D03*
X114800000Y-103000000D03*
X85000000Y-143750000D03*
X118400000Y-98800000D03*
X113500000Y-77500000D03*
X70700000Y-146900000D03*
X67900000Y-146900000D03*
X88400000Y-67400000D03*
X118400000Y-87000000D03*
X107600000Y-93400000D03*
X61700000Y-59500000D03*
X78400000Y-66400000D03*
X116500000Y-140500000D03*
X114800000Y-116600000D03*
D30*
X65000000Y-137500000D03*
D29*
X73800000Y-65200000D03*
X77200000Y-58800000D03*
X91000000Y-64500000D03*
X61700000Y-76400000D03*
X65400000Y-139300000D03*
X70000000Y-94000000D03*
X62500000Y-68000000D03*
X79500000Y-82000000D03*
X71700000Y-62100000D03*
X97300000Y-68000000D03*
X114800000Y-106600000D03*
X72500000Y-138750000D03*
X68500000Y-142000000D03*
X65300000Y-78300000D03*
X89400000Y-129500000D03*
X100400000Y-70800000D03*
X118500000Y-70000000D03*
X62000000Y-121000000D03*
X118400000Y-107000000D03*
X80900000Y-51400000D03*
X69700000Y-82400000D03*
X82100000Y-106500000D03*
X110000000Y-112000000D03*
X104900000Y-59400000D03*
X108200000Y-87200000D03*
X69200000Y-105400000D03*
X68600000Y-75900000D03*
X61600000Y-72600000D03*
X110200000Y-116600000D03*
X83500000Y-53000000D03*
X76900000Y-110800000D03*
X115000000Y-125100000D03*
X86900000Y-82000000D03*
X61700000Y-78100000D03*
X76200000Y-50800000D03*
X108000000Y-85600000D03*
X68700000Y-61800000D03*
X62100000Y-137500000D03*
X75600000Y-57200000D03*
X91000000Y-53500000D03*
X96800000Y-84800000D03*
D30*
X111500000Y-98000000D03*
D29*
X107600000Y-95200000D03*
X111000000Y-129000000D03*
X77300000Y-147100000D03*
X69500000Y-115700000D03*
X86750000Y-145500000D03*
X84900000Y-78200000D03*
X64200000Y-62000000D03*
X107600000Y-91000000D03*
X118500000Y-67500000D03*
X80300000Y-120900000D03*
X104200000Y-93200000D03*
X107600000Y-97200000D03*
X74000000Y-59000000D03*
X91500000Y-58000000D03*
X92000000Y-127000000D03*
X118500000Y-111000000D03*
X62700000Y-122600000D03*
D30*
X104300000Y-147600000D03*
D29*
X89400000Y-51600000D03*
X89800000Y-58500000D03*
X74500000Y-87500000D03*
D30*
X87200000Y-147200000D03*
D29*
X109500000Y-129000000D03*
X78000000Y-57400000D03*
X118500000Y-63200000D03*
X96000000Y-69300000D03*
X94500000Y-58700000D03*
X95000000Y-102000000D03*
X64600000Y-109300000D03*
X108500000Y-72700000D03*
X76300000Y-106300000D03*
X77200000Y-113800000D03*
X62500000Y-84700000D03*
X97700000Y-77000000D03*
X80100000Y-102800000D03*
D30*
X81500000Y-81000000D03*
D29*
X105800000Y-96200000D03*
X108200000Y-126200000D03*
X116000000Y-59500000D03*
X98600000Y-127700000D03*
X108500000Y-70000000D03*
X106600000Y-127700000D03*
X101500000Y-99500000D03*
X113500000Y-71500000D03*
X84000000Y-60000000D03*
X106000000Y-64500000D03*
X98700000Y-51200000D03*
X90300000Y-144400000D03*
X107500000Y-146500000D03*
X67500000Y-105500000D03*
X93500000Y-112500000D03*
X112000000Y-68500000D03*
X93000000Y-71400000D03*
X82000000Y-71000000D03*
X103600000Y-87000000D03*
X62000000Y-66400000D03*
X62500000Y-70100000D03*
X61500000Y-64500000D03*
X66200000Y-73900000D03*
X82800000Y-51900000D03*
X118500000Y-84500000D03*
X74250000Y-147250000D03*
X94800000Y-116700000D03*
X118500000Y-97000000D03*
X118500000Y-93500000D03*
X113200000Y-101400000D03*
X62500000Y-110000000D03*
X111800000Y-116600000D03*
X70900000Y-143300000D03*
X104700000Y-51300000D03*
X115300000Y-123500000D03*
D30*
X71000000Y-141000000D03*
D29*
X65500000Y-108000000D03*
X93600000Y-84200000D03*
X94000000Y-82600000D03*
X105800000Y-90000000D03*
X84200000Y-71200000D03*
X80000000Y-65300000D03*
X80500000Y-101000000D03*
X116500000Y-77000000D03*
X82500000Y-62400000D03*
X80200000Y-110400000D03*
X114100000Y-83000000D03*
X93900000Y-56600000D03*
X116500000Y-71500000D03*
X118400000Y-100800000D03*
X80000000Y-73000000D03*
X112000000Y-94000000D03*
X103000000Y-72000000D03*
D30*
X93500000Y-100500000D03*
X115255000Y-109540000D03*
X83474952Y-116824952D03*
X70860662Y-107024468D03*
X87000000Y-99500000D03*
X87479406Y-92979406D03*
X115500000Y-121500000D03*
X96000000Y-92000000D03*
X92500000Y-69500000D03*
X70000000Y-71000000D03*
X103000000Y-65500000D03*
X95000000Y-55500000D03*
X66000000Y-71200000D03*
X66500000Y-61200000D03*
X100565686Y-65065686D03*
X94500000Y-63000000D03*
X100500000Y-77000000D03*
D29*
X79000000Y-132000000D03*
X68500000Y-117500000D03*
D30*
X115065000Y-137000000D03*
X90500000Y-99500000D03*
X98000000Y-93550000D03*
D29*
X104500000Y-72987500D03*
D30*
X101500000Y-79500000D03*
X103500000Y-77000000D03*
D29*
X111050000Y-76000000D03*
X111050000Y-74000000D03*
X111050000Y-72000000D03*
X112510000Y-64295000D03*
X112510000Y-63445000D03*
X112510000Y-62595000D03*
X112510000Y-61745000D03*
X112510000Y-60895000D03*
X112510000Y-60045000D03*
X112510000Y-59195000D03*
X112510000Y-58345000D03*
X113860000Y-58345000D03*
X113860000Y-59195000D03*
X113860000Y-60045000D03*
X113860000Y-60895000D03*
X113860000Y-61745000D03*
X113860000Y-62595000D03*
X113860000Y-63445000D03*
X113860000Y-64295000D03*
D31*
X117160000Y-65640000D03*
X117160000Y-57000000D03*
D32*
X113010000Y-65640000D03*
X113010000Y-57000000D03*
D29*
X67000000Y-122705000D03*
X67000000Y-127705000D03*
X67000000Y-132705000D03*
X65000000Y-100100000D03*
X65000000Y-92900000D03*
X63500000Y-145000000D03*
X116500000Y-145500000D03*
X63500000Y-52500000D03*
X109810000Y-97620000D03*
X109810000Y-95080000D03*
X109810000Y-92540000D03*
X109810000Y-90000000D03*
X102190000Y-90000000D03*
X102190000Y-92540000D03*
X102190000Y-95080000D03*
X102190000Y-97620000D03*
X116500000Y-52500000D03*
X67000000Y-79500000D03*
X67000000Y-81500000D03*
X111050000Y-85000000D03*
X111050000Y-83000000D03*
X111050000Y-81000000D03*
M02*
