M48
METRIC,TZ
T1C0.300
T2C0.400
T3C0.400
T4C0.700
T5C0.750
T6C0.813
T7C1.320
T8C4.550
%
G90
G05
T1
X64700Y-85600
X64900Y-87600
X65000Y-137500
X65100Y-84400
X65800Y-86500
X66000Y-71200
X66300Y-87700
X66500Y-61200
X66500Y-85000
X67200Y-86300
X70000Y-71000
X70861Y-105880
X70861Y-107024
X71000Y-92500
X71000Y-141000
X75500Y-71000
X75500Y-102500
X76000Y-86000
X76161Y-97650
X76750Y-99920
X78500Y-103500
X79000Y-107000
X80000Y-83500
X81500Y-81000
X83475Y-116825
X84000Y-83000
X87000Y-99500
X87200Y-147200
X87479Y-92979
X88500Y-84500
X89000Y-92000
X90500Y-99500
X91500Y-114500
X92500Y-69500
X93500Y-100500
X93500Y-128000
X94500Y-63000
X95000Y-55500
X96000Y-92000
X98000Y-93550
X98500Y-99000
X100500Y-77000
X100566Y-65066
X101500Y-79500
X103000Y-65500
X103500Y-77000
X104300Y-147600
X105900Y-142000
X111500Y-98000
X115065Y-137000
X115255Y-109540
X115500Y-121500
T2
X61500Y-64500
X61600Y-72600
X61600Y-74900
X61700Y-59500
X61700Y-76400
X61700Y-78100
X61800Y-57900
X61800Y-82400
X62000Y-62500
X62000Y-66400
X62000Y-105500
X62000Y-117500
X62000Y-121000
X62000Y-133500
X62100Y-124300
X62100Y-127000
X62100Y-130000
X62100Y-137500
X62500Y-68000
X62500Y-70100
X62500Y-84700
X62500Y-86200
X62500Y-110000
X62500Y-140000
X62600Y-87800
X62700Y-122600
X63400Y-131800
X63500Y-108000
X64100Y-118600
X64200Y-62000
X64200Y-68700
X64300Y-60300
X64600Y-109300
X65100Y-82200
X65300Y-78300
X65400Y-139300
X65500Y-108000
X66200Y-73900
X66500Y-117200
X66600Y-76000
X66700Y-141300
X66900Y-107000
X67200Y-111200
X67500Y-105500
X67900Y-146900
X68000Y-113000
X68000Y-115000
X68500Y-117500
X68500Y-142000
X68600Y-75900
X68700Y-60400
X68700Y-61800
X69000Y-139000
X69200Y-105400
X69500Y-115700
X69700Y-82400
X69800Y-78900
X70000Y-94000
X70500Y-138000
X70500Y-145000
X70700Y-146900
X70900Y-143300
X71200Y-57600
X71500Y-64800
X71700Y-62100
X72000Y-59500
X72250Y-142500
X72500Y-138750
X72800Y-50400
X72800Y-63500
X73500Y-91000
X73500Y-142000
X73526Y-94153
X73600Y-57600
X73800Y-65200
X74000Y-59000
X74000Y-79500
X74000Y-140000
X74200Y-62300
X74250Y-147250
X74500Y-64000
X74500Y-68600
X74500Y-87500
X75600Y-57200
X75700Y-58800
X75750Y-140750
X76200Y-50800
X76300Y-106300
X76500Y-142500
X76800Y-65400
X76900Y-110800
X77200Y-58800
X77200Y-113800
X77300Y-70900
X77300Y-147100
X77800Y-112200
X78000Y-57400
X78400Y-66400
X78750Y-143250
X78900Y-108800
X79000Y-132000
X79500Y-82000
X80000Y-65300
X80000Y-73000
X80100Y-102800
X80200Y-79700
X80200Y-110400
X80300Y-120900
X80500Y-101000
X80500Y-123600
X80800Y-147200
X80900Y-51400
X81000Y-98000
X82000Y-65400
X82000Y-71000
X82000Y-143750
X82100Y-106500
X82200Y-58900
X82200Y-101600
X82400Y-60800
X82500Y-62400
X82800Y-51900
X82800Y-66400
X82900Y-121200
X83000Y-107900
X83200Y-81400
X83500Y-53000
X84000Y-58500
X84000Y-60000
X84000Y-102000
X84000Y-106600
X84100Y-147200
X84200Y-71200
X84800Y-73200
X84800Y-79500
X84900Y-78200
X85000Y-143750
X85500Y-60400
X85500Y-98500
X85700Y-80900
X85900Y-51600
X86750Y-145500
X86900Y-73500
X86900Y-82000
X87000Y-102000
X87500Y-144000
X87700Y-51600
X88000Y-88500
X88400Y-67400
X88600Y-78800
X89000Y-145750
X89400Y-51600
X89400Y-129500
X89500Y-63000
X89500Y-64500
X89600Y-87200
X89800Y-58500
X89800Y-60300
X90000Y-73500
X90000Y-78800
X90300Y-144400
X90500Y-116100
X90900Y-101700
X91000Y-53500
X91000Y-64500
X91100Y-51600
X91200Y-142300
X91300Y-147200
X91500Y-58000
X91500Y-62000
X91600Y-112700
X91700Y-60300
X91800Y-70600
X92000Y-127000
X92300Y-103100
X92500Y-53250
X92800Y-51600
X92800Y-140200
X93000Y-71400
X93400Y-54400
X93500Y-112500
X93600Y-84200
X93600Y-86400
X93800Y-147600
X93900Y-56600
X94000Y-82600
X94000Y-114500
X94000Y-141500
X94200Y-60900
X94200Y-80600
X94200Y-92400
X94400Y-78800
X94500Y-58700
X94600Y-138800
X94700Y-130800
X94800Y-116700
X95000Y-51000
X95000Y-102000
X95000Y-126500
X95200Y-129000
X95500Y-52500
X95500Y-96500
X96000Y-68000
X96000Y-69300
X96000Y-70700
X96250Y-72250
X96400Y-97800
X96700Y-51100
X96800Y-84800
X96900Y-142000
X97100Y-114000
X97300Y-68000
X97500Y-53000
X97700Y-77000
X97900Y-72400
X98100Y-147500
X98600Y-127700
X98700Y-51200
X98800Y-68000
X99200Y-84800
X99400Y-114100
X99600Y-141900
X99700Y-81000
X100000Y-89500
X100000Y-91000
X100100Y-99100
X100200Y-92600
X100300Y-52500
X100400Y-68000
X100400Y-69500
X100400Y-70800
X100800Y-127800
X101400Y-147400
X101500Y-51500
X101500Y-99500
X102000Y-81800
X102400Y-58800
X102600Y-142100
X102700Y-85500
X102800Y-74400
X103000Y-72000
X103000Y-80500
X103100Y-68900
X103200Y-52400
X103250Y-70200
X103400Y-114100
X103600Y-87000
X103600Y-127800
X103750Y-58750
X103750Y-60750
X104200Y-91000
X104200Y-93200
X104200Y-95000
X104200Y-97000
X104300Y-81700
X104500Y-69300
X104500Y-72988
X104500Y-85500
X104700Y-51300
X104900Y-59400
X104900Y-78000
X105000Y-75100
X105500Y-53500
X105500Y-60500
X105800Y-83400
X105800Y-90000
X105800Y-92200
X105800Y-94200
X105800Y-96200
X105800Y-98200
X106000Y-64500
X106100Y-85500
X106200Y-79200
X106300Y-55100
X106500Y-75000
X106500Y-77500
X106600Y-127700
X107000Y-56500
X107000Y-84100
X107500Y-146500
X107600Y-91000
X107600Y-93400
X107600Y-95200
X107600Y-97200
X107700Y-53500
X107700Y-58300
X108000Y-51500
X108000Y-65000
X108000Y-79000
X108000Y-85600
X108200Y-87200
X108200Y-126200
X108200Y-129800
X108300Y-77300
X108400Y-112000
X108500Y-55000
X108500Y-70000
X108500Y-71500
X108500Y-72700
X108600Y-116600
X108600Y-144800
X109000Y-57500
X109000Y-143000
X109500Y-64500
X109500Y-66000
X109500Y-129000
X109600Y-101400
X109800Y-52500
X109900Y-56200
X110000Y-112000
X110100Y-147400
X110200Y-116600
X110500Y-54500
X110500Y-60100
X110500Y-120400
X111000Y-129000
X111400Y-101400
X111500Y-144500
X111800Y-116600
X111900Y-53700
X112000Y-68500
X112000Y-70500
X112000Y-94000
X112000Y-112000
X112300Y-142400
X112600Y-129000
X112600Y-139900
X112700Y-54900
X112700Y-120400
X112800Y-79700
X113000Y-86500
X113000Y-126000
X113200Y-101400
X113500Y-71500
X113500Y-77500
X114100Y-83000
X114600Y-141500
X114800Y-101400
X114800Y-103000
X114800Y-104800
X114800Y-106600
X114800Y-116600
X114800Y-118400
X114800Y-120000
X115000Y-74000
X115000Y-125100
X115300Y-123500
X115400Y-139000
X115800Y-112200
X116000Y-59500
X116100Y-86400
X116200Y-83100
X116400Y-61600
X116500Y-63500
X116500Y-71500
X116500Y-77000
X116500Y-80500
X116500Y-140500
X117000Y-68500
X117700Y-137600
X118000Y-59500
X118000Y-135500
X118100Y-139200
X118400Y-61400
X118400Y-87000
X118400Y-91400
X118400Y-95200
X118400Y-98800
X118400Y-100800
X118400Y-102800
X118400Y-107000
X118400Y-109000
X118400Y-114000
X118400Y-119600
X118400Y-121800
X118400Y-123800
X118400Y-141300
X118500Y-63200
X118500Y-67500
X118500Y-70000
X118500Y-73500
X118500Y-79000
X118500Y-84500
X118500Y-89000
X118500Y-93500
X118500Y-97000
X118500Y-104500
X118500Y-111000
X118500Y-117000
X118500Y-125500
X118600Y-127600
X118600Y-129800
X118600Y-131800
T3
X112510Y-58345
X112510Y-59195
X112510Y-60045
X112510Y-60895
X112510Y-61745
X112510Y-62595
X112510Y-63445
X112510Y-64295
X113860Y-58345
X113860Y-59195
X113860Y-60045
X113860Y-60895
X113860Y-61745
X113860Y-62595
X113860Y-63445
X113860Y-64295
T5
X67000Y-79500
X67000Y-81500
X111050Y-72000
X111050Y-74000
X111050Y-76000
X111050Y-81000
X111050Y-83000
X111050Y-85000
T6
X102190Y-90000
X102190Y-92540
X102190Y-95080
X102190Y-97620
X109810Y-90000
X109810Y-92540
X109810Y-95080
X109810Y-97620
T7
X67000Y-122705
X67000Y-127705
X67000Y-132705
T8
X65000Y-92900
X65000Y-100100
T4
G00X112360Y-57000
M15
G01X113660Y-57000
M16
G05
G00X112360Y-65640
M15
G01X113660Y-65640
M16
G05
G00X116710Y-57000
M15
G01X117610Y-57000
M16
G05
G00X116710Y-65640
M15
G01X117610Y-65640
M16
G05
M30
