%TF.GenerationSoftware,KiCad,Pcbnew,8.0.5*%
%TF.CreationDate,2024-11-27T19:54:23+01:00*%
%TF.ProjectId,escPCB,65736350-4342-42e6-9b69-6361645f7063,1.0*%
%TF.SameCoordinates,Original*%
%TF.FileFunction,Profile,NP*%
%FSLAX46Y46*%
G04 Gerber Fmt 4.6, Leading zero omitted, Abs format (unit mm)*
G04 Created by KiCad (PCBNEW 8.0.5) date 2024-11-27 19:54:23*
%MOMM*%
%LPD*%
G01*
G04 APERTURE LIST*
%TA.AperFunction,Profile*%
%ADD10C,0.050000*%
%TD*%
%ADD11C,0.350000*%
%ADD12O,1.600000X0.700000*%
%ADD13O,2.000000X0.700000*%
G04 APERTURE END LIST*
D10*
X60000000Y-49000000D02*
X120000000Y-49000000D01*
X120000000Y-149000000D01*
X60000000Y-149000000D01*
X60000000Y-49000000D01*
D11*
X111050000Y-76000000D03*
X111050000Y-74000000D03*
X111050000Y-72000000D03*
X112510000Y-64295000D03*
X112510000Y-63445000D03*
X112510000Y-62595000D03*
X112510000Y-61745000D03*
X112510000Y-60895000D03*
X112510000Y-60045000D03*
X112510000Y-59195000D03*
X112510000Y-58345000D03*
X113860000Y-58345000D03*
X113860000Y-59195000D03*
X113860000Y-60045000D03*
X113860000Y-60895000D03*
X113860000Y-61745000D03*
X113860000Y-62595000D03*
X113860000Y-63445000D03*
X113860000Y-64295000D03*
D12*
X117160000Y-65640000D03*
X117160000Y-57000000D03*
D13*
X113010000Y-65640000D03*
X113010000Y-57000000D03*
D11*
X67000000Y-122705000D03*
X67000000Y-127705000D03*
X67000000Y-132705000D03*
X65000000Y-100100000D03*
X65000000Y-92900000D03*
X63500000Y-145000000D03*
X116500000Y-145500000D03*
X63500000Y-52500000D03*
X109810000Y-97620000D03*
X109810000Y-95080000D03*
X109810000Y-92540000D03*
X109810000Y-90000000D03*
X102190000Y-90000000D03*
X102190000Y-92540000D03*
X102190000Y-95080000D03*
X102190000Y-97620000D03*
X116500000Y-52500000D03*
X67000000Y-79500000D03*
X67000000Y-81500000D03*
X111050000Y-85000000D03*
X111050000Y-83000000D03*
X111050000Y-81000000D03*
M02*
