M48
; DRILL file {KiCad 8.0.5} date 2024-11-27T15:50:40+0100
; FORMAT={-:-/ absolute / metric / decimal}
; #@! TF.CreationDate,2024-11-27T15:50:40+01:00
; #@! TF.GenerationSoftware,Kicad,Pcbnew,8.0.5
; #@! TF.FileFunction,Plated,1,2,PTH
FMAT,2
METRIC
; #@! TA.AperFunction,Plated,PTH,ViaDrill
T1C0.300
; #@! TA.AperFunction,Plated,PTH,ViaDrill
T2C0.400
; #@! TA.AperFunction,Plated,PTH,ComponentDrill
T3C0.400
; #@! TA.AperFunction,Plated,PTH,ComponentDrill
T4C0.700
; #@! TA.AperFunction,Plated,PTH,ComponentDrill
T5C0.750
; #@! TA.AperFunction,Plated,PTH,ComponentDrill
T6C0.813
; #@! TA.AperFunction,Plated,PTH,ComponentDrill
T7C1.320
; #@! TA.AperFunction,Plated,PTH,ComponentDrill
T8C4.550
%
G90
G05
T1
X62.5Y-86.0
X64.0Y-114.0
X65.0Y-137.5
X66.0Y-71.2
X66.5Y-61.2
X66.5Y-85.0
X70.0Y-71.0
X70.861Y-105.88
X70.861Y-107.024
X71.0Y-92.5
X71.0Y-141.0
X74.0Y-59.0
X75.5Y-71.0
X75.5Y-102.5
X76.0Y-55.0
X76.0Y-86.0
X76.161Y-97.65
X76.5Y-145.0
X76.75Y-99.92
X77.0Y-112.0
X78.5Y-103.5
X79.0Y-107.0
X80.0Y-83.5
X80.5Y-52.0
X81.5Y-81.0
X83.475Y-116.825
X84.0Y-83.0
X85.0Y-79.5
X86.5Y-73.5
X87.0Y-99.5
X87.479Y-92.979
X88.5Y-84.5
X89.0Y-51.5
X89.0Y-92.0
X89.0Y-146.0
X90.5Y-99.5
X91.0Y-69.0
X91.5Y-114.5
X92.5Y-69.5
X93.5Y-100.5
X93.5Y-128.0
X94.5Y-63.0
X95.0Y-55.5
X96.0Y-92.0
X98.0Y-93.55
X98.5Y-99.0
X98.5Y-145.5
X100.5Y-77.0
X100.566Y-65.066
X101.5Y-79.5
X103.0Y-65.5
X103.5Y-77.0
X104.5Y-144.0
X105.5Y-85.5
X111.5Y-98.0
X114.5Y-102.0
X115.065Y-137.0
X115.255Y-109.54
X115.5Y-121.5
T2
X61.5Y-58.0
X61.5Y-64.5
X62.0Y-62.5
X62.0Y-105.5
X62.0Y-117.5
X62.0Y-121.0
X62.0Y-133.5
X62.5Y-68.0
X62.5Y-110.0
X62.5Y-112.0
X62.5Y-140.0
X63.5Y-108.0
X64.5Y-111.0
X65.0Y-116.0
X65.5Y-108.0
X66.5Y-118.0
X67.5Y-105.5
X68.0Y-113.0
X68.0Y-115.0
X68.5Y-117.5
X68.5Y-142.0
X69.0Y-139.0
X70.0Y-94.0
X70.5Y-138.0
X71.0Y-124.5
X72.0Y-51.5
X72.0Y-59.5
X72.0Y-62.5
X72.5Y-53.5
X72.5Y-145.5
X73.5Y-91.0
X73.5Y-142.0
X73.526Y-94.153
X74.0Y-79.5
X74.0Y-140.0
X74.0Y-144.5
X74.5Y-87.5
X76.5Y-142.5
X78.5Y-145.5
X79.0Y-132.0
X79.5Y-82.0
X80.0Y-73.0
X80.5Y-101.0
X80.5Y-144.5
X81.0Y-98.0
X82.0Y-71.0
X82.5Y-145.5
X84.0Y-102.0
X85.0Y-145.5
X85.5Y-98.5
X87.0Y-102.0
X87.5Y-144.0
X88.0Y-88.5
X89.5Y-59.5
X89.5Y-63.0
X89.5Y-64.5
X90.0Y-56.5
X90.0Y-128.5
X91.0Y-59.5
X91.0Y-64.5
X91.0Y-143.5
X91.5Y-58.0
X91.5Y-62.0
X91.5Y-146.0
X92.0Y-51.0
X92.5Y-53.25
X93.0Y-55.25
X93.5Y-112.5
X94.0Y-114.5
X94.0Y-141.5
X94.0Y-144.0
X94.0Y-146.0
X94.5Y-60.5
X95.0Y-51.0
X95.0Y-59.0
X95.0Y-102.0
X95.0Y-126.5
X95.5Y-52.5
X95.5Y-96.5
X96.0Y-70.0
X96.25Y-68.0
X96.25Y-72.25
X96.5Y-143.0
X97.5Y-53.0
X97.5Y-72.5
X97.5Y-77.0
X98.0Y-68.0
X99.0Y-72.25
X100.0Y-68.25
X100.0Y-89.5
X100.0Y-91.0
X100.25Y-69.75
X100.25Y-71.5
X101.5Y-51.5
X101.5Y-144.0
X102.5Y-82.0
X102.5Y-86.5
X103.0Y-72.0
X103.0Y-80.5
X103.25Y-69.5
X103.5Y-84.0
X103.75Y-58.75
X103.75Y-60.75
X104.5Y-72.987
X105.25Y-68.75
X105.5Y-53.5
X105.5Y-60.5
X106.0Y-64.5
X106.5Y-75.0
X106.5Y-77.5
X107.0Y-56.5
X107.5Y-146.5
X108.0Y-51.5
X108.0Y-65.0
X108.0Y-79.0
X108.5Y-55.0
X108.5Y-70.0
X108.5Y-71.5
X109.0Y-57.5
X109.0Y-143.0
X109.5Y-64.5
X109.5Y-66.0
X109.5Y-129.0
X110.0Y-59.5
X110.0Y-112.0
X110.5Y-54.5
X111.5Y-102.0
X111.5Y-144.5
X112.0Y-68.5
X112.0Y-70.5
X112.0Y-94.0
X113.0Y-86.5
X113.0Y-126.0
X113.5Y-71.5
X113.5Y-77.5
X113.5Y-80.0
X114.5Y-82.5
X115.0Y-74.0
X116.0Y-59.5
X116.0Y-85.5
X116.5Y-62.0
X116.5Y-63.5
X116.5Y-71.5
X116.5Y-77.0
X116.5Y-80.5
X116.5Y-140.5
X117.0Y-68.5
X118.0Y-59.5
X118.0Y-61.0
X118.0Y-135.5
X118.5Y-62.5
X118.5Y-67.5
X118.5Y-70.0
X118.5Y-73.5
X118.5Y-79.0
X118.5Y-84.5
X118.5Y-89.0
X118.5Y-93.5
X118.5Y-97.0
X118.5Y-104.5
X118.5Y-111.0
X118.5Y-117.0
X118.5Y-125.5
T3
X112.51Y-58.345
X112.51Y-59.195
X112.51Y-60.045
X112.51Y-60.895
X112.51Y-61.745
X112.51Y-62.595
X112.51Y-63.445
X112.51Y-64.295
X113.86Y-58.345
X113.86Y-59.195
X113.86Y-60.045
X113.86Y-60.895
X113.86Y-61.745
X113.86Y-62.595
X113.86Y-63.445
X113.86Y-64.295
T5
X67.0Y-79.5
X67.0Y-81.5
X111.05Y-72.0
X111.05Y-74.0
X111.05Y-76.0
X111.05Y-81.0
X111.05Y-83.0
X111.05Y-85.0
T6
X102.19Y-90.0
X102.19Y-92.54
X102.19Y-95.08
X102.19Y-97.62
X109.81Y-90.0
X109.81Y-92.54
X109.81Y-95.08
X109.81Y-97.62
T7
X67.0Y-122.705
X67.0Y-127.705
X67.0Y-132.705
T8
X65.0Y-92.9
X65.0Y-100.1
T4
G00X112.36Y-57.0
M15
G01X113.66Y-57.0
M16
G05
G00X112.36Y-65.64
M15
G01X113.66Y-65.64
M16
G05
G00X116.71Y-57.0
M15
G01X117.61Y-57.0
M16
G05
G00X116.71Y-65.64
M15
G01X117.61Y-65.64
M16
G05
M30
