%TF.GenerationSoftware,KiCad,Pcbnew,8.0.5*%
%TF.CreationDate,2024-11-27T19:54:23+01:00*%
%TF.ProjectId,escPCB,65736350-4342-42e6-9b69-6361645f7063,1.0*%
%TF.SameCoordinates,Original*%
%TF.FileFunction,Paste,Top*%
%TF.FilePolarity,Positive*%
%FSLAX46Y46*%
G04 Gerber Fmt 4.6, Leading zero omitted, Abs format (unit mm)*
G04 Created by KiCad (PCBNEW 8.0.5) date 2024-11-27 19:54:23*
%MOMM*%
%LPD*%
G01*
G04 APERTURE LIST*
G04 Aperture macros list*
%AMRoundRect*
0 Rectangle with rounded corners*
0 $1 Rounding radius*
0 $2 $3 $4 $5 $6 $7 $8 $9 X,Y pos of 4 corners*
0 Add a 4 corners polygon primitive as box body*
4,1,4,$2,$3,$4,$5,$6,$7,$8,$9,$2,$3,0*
0 Add four circle primitives for the rounded corners*
1,1,$1+$1,$2,$3*
1,1,$1+$1,$4,$5*
1,1,$1+$1,$6,$7*
1,1,$1+$1,$8,$9*
0 Add four rect primitives between the rounded corners*
20,1,$1+$1,$2,$3,$4,$5,0*
20,1,$1+$1,$4,$5,$6,$7,0*
20,1,$1+$1,$6,$7,$8,$9,0*
20,1,$1+$1,$8,$9,$2,$3,0*%
G04 Aperture macros list end*
%ADD10RoundRect,0.250000X0.475000X-0.250000X0.475000X0.250000X-0.475000X0.250000X-0.475000X-0.250000X0*%
%ADD11R,1.400000X1.100000*%
%ADD12R,0.600000X2.286000*%
%ADD13RoundRect,0.250000X-0.450000X0.262500X-0.450000X-0.262500X0.450000X-0.262500X0.450000X0.262500X0*%
%ADD14RoundRect,0.250000X0.262500X0.450000X-0.262500X0.450000X-0.262500X-0.450000X0.262500X-0.450000X0*%
%ADD15RoundRect,0.150000X0.587500X0.150000X-0.587500X0.150000X-0.587500X-0.150000X0.587500X-0.150000X0*%
%ADD16RoundRect,0.250000X-0.262500X-0.450000X0.262500X-0.450000X0.262500X0.450000X-0.262500X0.450000X0*%
%ADD17R,0.800000X0.600000*%
%ADD18R,1.000000X0.450000*%
%ADD19RoundRect,0.250000X-0.250000X-0.475000X0.250000X-0.475000X0.250000X0.475000X-0.250000X0.475000X0*%
%ADD20RoundRect,0.150000X-0.587500X-0.150000X0.587500X-0.150000X0.587500X0.150000X-0.587500X0.150000X0*%
%ADD21RoundRect,0.250000X-0.475000X0.250000X-0.475000X-0.250000X0.475000X-0.250000X0.475000X0.250000X0*%
%ADD22RoundRect,0.250000X0.250000X0.475000X-0.250000X0.475000X-0.250000X-0.475000X0.250000X-0.475000X0*%
%ADD23R,2.200000X1.200000*%
%ADD24R,6.400000X5.800000*%
%ADD25R,4.600000X1.350000*%
%ADD26R,9.500000X10.900000*%
%ADD27RoundRect,0.375000X0.375000X-0.625000X0.375000X0.625000X-0.375000X0.625000X-0.375000X-0.625000X0*%
%ADD28RoundRect,0.500000X1.400000X-0.500000X1.400000X0.500000X-1.400000X0.500000X-1.400000X-0.500000X0*%
%ADD29RoundRect,0.249999X-0.395001X-0.395001X0.395001X-0.395001X0.395001X0.395001X-0.395001X0.395001X0*%
%ADD30RoundRect,0.050000X-0.387500X-0.050000X0.387500X-0.050000X0.387500X0.050000X-0.387500X0.050000X0*%
%ADD31RoundRect,0.050000X-0.050000X-0.387500X0.050000X-0.387500X0.050000X0.387500X-0.050000X0.387500X0*%
G04 APERTURE END LIST*
D10*
%TO.C,C13*%
X96000000Y-63500000D03*
X96000000Y-61600000D03*
%TD*%
D11*
%TO.C,X1*%
X89500000Y-82100002D03*
X91700000Y-82100002D03*
X91700000Y-80500000D03*
X89500000Y-80500000D03*
%TD*%
D12*
%TO.C,IC1*%
X84095000Y-62830000D03*
X85365000Y-62830000D03*
X86635000Y-62830000D03*
X87905000Y-62830000D03*
X87905000Y-56170000D03*
X86635000Y-56170000D03*
X85365000Y-56170000D03*
X84095000Y-56170000D03*
%TD*%
D13*
%TO.C,R15*%
X91500000Y-85087500D03*
X91500000Y-86912500D03*
%TD*%
D14*
%TO.C,R7*%
X83315232Y-74010732D03*
X81490232Y-74010732D03*
%TD*%
D15*
%TO.C,Q8*%
X73402732Y-97010732D03*
X73402732Y-95110732D03*
X71527732Y-96060732D03*
%TD*%
D14*
%TO.C,R9*%
X83315232Y-78010732D03*
X81490232Y-78010732D03*
%TD*%
D16*
%TO.C,R23*%
X113675000Y-88810000D03*
X115500000Y-88810000D03*
%TD*%
D15*
%TO.C,Q10*%
X81500000Y-94950000D03*
X81500000Y-93050000D03*
X79625000Y-94000000D03*
%TD*%
D17*
%TO.C,S1*%
X95700000Y-86850000D03*
X95700000Y-83150000D03*
X100300000Y-86850000D03*
X100300000Y-83150000D03*
D18*
X98000000Y-82475000D03*
X98000000Y-87525000D03*
%TD*%
D19*
%TO.C,C10*%
X108600000Y-68000000D03*
X110500000Y-68000000D03*
%TD*%
D15*
%TO.C,Q9*%
X73277732Y-109960732D03*
X73277732Y-108060732D03*
X71402732Y-109010732D03*
%TD*%
D13*
%TO.C,R26*%
X96500000Y-78000000D03*
X96500000Y-79825000D03*
%TD*%
D17*
%TO.C,S2*%
X76102732Y-67360732D03*
X76102732Y-63660732D03*
X80702732Y-67360732D03*
X80702732Y-63660732D03*
D18*
X78402732Y-62985732D03*
X78402732Y-68035732D03*
%TD*%
D13*
%TO.C,R10*%
X79500000Y-96500000D03*
X79500000Y-98325000D03*
%TD*%
%TO.C,R20*%
X102000000Y-55587500D03*
X102000000Y-57412500D03*
%TD*%
D16*
%TO.C,R17*%
X106087500Y-62500000D03*
X107912500Y-62500000D03*
%TD*%
D14*
%TO.C,R18*%
X115412500Y-68000000D03*
X113587500Y-68000000D03*
%TD*%
D16*
%TO.C,R16*%
X92675000Y-77000000D03*
X94500000Y-77000000D03*
%TD*%
D14*
%TO.C,R5*%
X74412500Y-92912500D03*
X72587500Y-92912500D03*
%TD*%
D20*
%TO.C,Q14*%
X84125000Y-89050000D03*
X84125000Y-90950000D03*
X86000000Y-90000000D03*
%TD*%
%TO.C,Q6*%
X71402732Y-111610732D03*
X71402732Y-113510732D03*
X73277732Y-112560732D03*
%TD*%
D21*
%TO.C,C4*%
X69000000Y-66700000D03*
X69000000Y-68600000D03*
%TD*%
D20*
%TO.C,Q11*%
X84125000Y-93050000D03*
X84125000Y-94950000D03*
X86000000Y-94000000D03*
%TD*%
D15*
%TO.C,Q7*%
X73240000Y-82960732D03*
X73240000Y-81060732D03*
X71365000Y-82010732D03*
%TD*%
D20*
%TO.C,Q3*%
X71402732Y-115060732D03*
X71402732Y-116960732D03*
X73277732Y-116010732D03*
%TD*%
D14*
%TO.C,R24*%
X114412500Y-98000000D03*
X112587500Y-98000000D03*
%TD*%
D20*
%TO.C,Q4*%
X71365000Y-84720000D03*
X71365000Y-86620000D03*
X73240000Y-85670000D03*
%TD*%
D22*
%TO.C,C8*%
X90950000Y-77000000D03*
X89050000Y-77000000D03*
%TD*%
D16*
%TO.C,R22*%
X113675000Y-92310000D03*
X115500000Y-92310000D03*
%TD*%
D13*
%TO.C,R6*%
X69000000Y-108087500D03*
X69000000Y-109912500D03*
%TD*%
D21*
%TO.C,C6*%
X81500000Y-55050000D03*
X81500000Y-56950000D03*
%TD*%
D23*
%TO.C,AH1*%
X83150000Y-104900000D03*
D24*
X89450000Y-107180000D03*
D23*
X83150000Y-109460000D03*
%TD*%
D13*
%TO.C,R13*%
X85500000Y-85175000D03*
X85500000Y-87000000D03*
%TD*%
D19*
%TO.C,C11*%
X105100000Y-71500000D03*
X107000000Y-71500000D03*
%TD*%
D10*
%TO.C,C2*%
X98000000Y-63500000D03*
X98000000Y-61600000D03*
%TD*%
D13*
%TO.C,R19*%
X100000000Y-55500000D03*
X100000000Y-57325000D03*
%TD*%
D23*
%TO.C,CH1*%
X83150000Y-132400000D03*
D24*
X89450000Y-134680000D03*
D23*
X83150000Y-136960000D03*
%TD*%
D22*
%TO.C,C3*%
X92000000Y-67500000D03*
X90100000Y-67500000D03*
%TD*%
D14*
%TO.C,R4*%
X73412500Y-77500000D03*
X71587500Y-77500000D03*
%TD*%
D23*
%TO.C,BH1*%
X83150000Y-118960000D03*
D24*
X89450000Y-121240000D03*
D23*
X83150000Y-123520000D03*
%TD*%
D20*
%TO.C,Q1*%
X71377500Y-88782500D03*
X71377500Y-90682500D03*
X73252500Y-89732500D03*
%TD*%
D13*
%TO.C,R25*%
X98000000Y-95137500D03*
X98000000Y-96962500D03*
%TD*%
D14*
%TO.C,R2*%
X87902732Y-70010732D03*
X86077732Y-70010732D03*
%TD*%
D10*
%TO.C,C12*%
X98000000Y-57400000D03*
X98000000Y-55500000D03*
%TD*%
D13*
%TO.C,R14*%
X81500000Y-85587500D03*
X81500000Y-87412500D03*
%TD*%
D16*
%TO.C,R27*%
X79087500Y-61000000D03*
X80912500Y-61000000D03*
%TD*%
D14*
%TO.C,R3*%
X89902732Y-72010732D03*
X88077732Y-72010732D03*
%TD*%
D13*
%TO.C,R11*%
X84000000Y-96587500D03*
X84000000Y-98412500D03*
%TD*%
D14*
%TO.C,R1*%
X86315232Y-68010732D03*
X84490232Y-68010732D03*
%TD*%
D25*
%TO.C,CL1*%
X110650000Y-137040000D03*
D26*
X101500000Y-134500000D03*
D25*
X110650000Y-131960000D03*
%TD*%
D27*
%TO.C,U2*%
X64200000Y-64200000D03*
X66500000Y-64200000D03*
D28*
X66500000Y-57900000D03*
D27*
X68800000Y-64200000D03*
%TD*%
D10*
%TO.C,C15*%
X102000000Y-63500000D03*
X102000000Y-61600000D03*
%TD*%
D20*
%TO.C,Q5*%
X71490000Y-98720000D03*
X71490000Y-100620000D03*
X73365000Y-99670000D03*
%TD*%
D16*
%TO.C,R21*%
X113675000Y-95810000D03*
X115500000Y-95810000D03*
%TD*%
D21*
%TO.C,C5*%
X66500000Y-66700000D03*
X66500000Y-68600000D03*
%TD*%
D29*
%TO.C,U1*%
X97400000Y-69400000D03*
X97400000Y-71000000D03*
X99000000Y-69400000D03*
X99000000Y-71000000D03*
D30*
X94762500Y-67600000D03*
X94762500Y-68000000D03*
X94762500Y-68400000D03*
X94762500Y-68800000D03*
X94762500Y-69200000D03*
X94762500Y-69600000D03*
X94762500Y-70000000D03*
X94762500Y-70400000D03*
X94762500Y-70800000D03*
X94762500Y-71200000D03*
X94762500Y-71600000D03*
X94762500Y-72000000D03*
X94762500Y-72400000D03*
X94762500Y-72800000D03*
D31*
X95600000Y-73637500D03*
X96000000Y-73637500D03*
X96400000Y-73637500D03*
X96800000Y-73637500D03*
X97200000Y-73637500D03*
X97600000Y-73637500D03*
X98000000Y-73637500D03*
X98400000Y-73637500D03*
X98800000Y-73637500D03*
X99200000Y-73637500D03*
X99600000Y-73637500D03*
X100000000Y-73637500D03*
X100400000Y-73637500D03*
X100800000Y-73637500D03*
D30*
X101637500Y-72800000D03*
X101637500Y-72400000D03*
X101637500Y-72000000D03*
X101637500Y-71600000D03*
X101637500Y-71200000D03*
X101637500Y-70800000D03*
X101637500Y-70400000D03*
X101637500Y-70000000D03*
X101637500Y-69600000D03*
X101637500Y-69200000D03*
X101637500Y-68800000D03*
X101637500Y-68400000D03*
X101637500Y-68000000D03*
X101637500Y-67600000D03*
D31*
X100800000Y-66762500D03*
X100400000Y-66762500D03*
X100000000Y-66762500D03*
X99600000Y-66762500D03*
X99200000Y-66762500D03*
X98800000Y-66762500D03*
X98400000Y-66762500D03*
X98000000Y-66762500D03*
X97600000Y-66762500D03*
X97200000Y-66762500D03*
X96800000Y-66762500D03*
X96400000Y-66762500D03*
X96000000Y-66762500D03*
X95600000Y-66762500D03*
%TD*%
D13*
%TO.C,R12*%
X93000000Y-96087500D03*
X93000000Y-97912500D03*
%TD*%
D19*
%TO.C,C9*%
X105050000Y-66500000D03*
X106950000Y-66500000D03*
%TD*%
D20*
%TO.C,Q13*%
X79625000Y-89050000D03*
X79625000Y-90950000D03*
X81500000Y-90000000D03*
%TD*%
D14*
%TO.C,R8*%
X83315232Y-76010732D03*
X81490232Y-76010732D03*
%TD*%
D20*
%TO.C,Q15*%
X91125000Y-89050000D03*
X91125000Y-90950000D03*
X93000000Y-90000000D03*
%TD*%
D25*
%TO.C,BL1*%
X110650000Y-123540000D03*
D26*
X101500000Y-121000000D03*
D25*
X110650000Y-118460000D03*
%TD*%
D10*
%TO.C,C7*%
X87000000Y-78950000D03*
X87000000Y-77050000D03*
%TD*%
D25*
%TO.C,AL1*%
X110650000Y-109540000D03*
D26*
X101500000Y-107000000D03*
D25*
X110650000Y-104460000D03*
%TD*%
D21*
%TO.C,C14*%
X99000000Y-76500000D03*
X99000000Y-78400000D03*
%TD*%
D20*
%TO.C,Q2*%
X71490000Y-102720000D03*
X71490000Y-104620000D03*
X73365000Y-103670000D03*
%TD*%
%TO.C,Q12*%
X91125000Y-92550000D03*
X91125000Y-94450000D03*
X93000000Y-93500000D03*
%TD*%
D10*
%TO.C,C1*%
X104000000Y-64500000D03*
X104000000Y-62600000D03*
%TD*%
%TO.C,C16*%
X98000000Y-91450000D03*
X98000000Y-89550000D03*
%TD*%
M02*
