M48
; DRILL file {KiCad 8.0.5} date 2024-11-27T19:54:23+0100
; FORMAT={-:-/ absolute / metric / decimal}
; #@! TF.CreationDate,2024-11-27T19:54:23+01:00
; #@! TF.GenerationSoftware,Kicad,Pcbnew,8.0.5
; #@! TF.FileFunction,Plated,1,2,PTH
FMAT,2
METRIC
; #@! TA.AperFunction,Plated,PTH,ViaDrill
T1C0.300
; #@! TA.AperFunction,Plated,PTH,ViaDrill
T2C0.400
; #@! TA.AperFunction,Plated,PTH,ComponentDrill
T3C0.400
; #@! TA.AperFunction,Plated,PTH,ComponentDrill
T4C0.700
; #@! TA.AperFunction,Plated,PTH,ComponentDrill
T5C0.750
; #@! TA.AperFunction,Plated,PTH,ComponentDrill
T6C0.813
; #@! TA.AperFunction,Plated,PTH,ComponentDrill
T7C1.320
; #@! TA.AperFunction,Plated,PTH,ComponentDrill
T8C4.550
%
G90
G05
T1
X64.7Y-85.6
X64.9Y-87.6
X65.0Y-137.5
X65.1Y-84.4
X65.8Y-86.5
X66.0Y-71.2
X66.3Y-87.7
X66.5Y-61.2
X66.5Y-85.0
X67.2Y-86.3
X70.0Y-71.0
X70.861Y-105.88
X70.861Y-107.024
X71.0Y-92.5
X71.0Y-141.0
X75.5Y-71.0
X75.5Y-102.5
X76.0Y-86.0
X76.161Y-97.65
X76.75Y-99.92
X78.5Y-103.5
X79.0Y-107.0
X80.0Y-83.5
X81.5Y-81.0
X83.475Y-116.825
X84.0Y-83.0
X87.0Y-99.5
X87.2Y-147.2
X87.479Y-92.979
X88.5Y-84.5
X89.0Y-92.0
X90.5Y-99.5
X91.5Y-114.5
X92.5Y-69.5
X93.5Y-100.5
X93.5Y-128.0
X94.5Y-63.0
X95.0Y-55.5
X96.0Y-92.0
X98.0Y-93.55
X98.5Y-99.0
X100.5Y-77.0
X100.566Y-65.066
X101.5Y-79.5
X103.0Y-65.5
X103.5Y-77.0
X104.3Y-147.6
X105.9Y-142.0
X111.5Y-98.0
X115.065Y-137.0
X115.255Y-109.54
X115.5Y-121.5
T2
X61.5Y-64.5
X61.6Y-72.6
X61.6Y-74.9
X61.7Y-59.5
X61.7Y-76.4
X61.7Y-78.1
X61.8Y-57.9
X61.8Y-82.4
X62.0Y-62.5
X62.0Y-66.4
X62.0Y-105.5
X62.0Y-117.5
X62.0Y-121.0
X62.0Y-133.5
X62.1Y-124.3
X62.1Y-127.0
X62.1Y-130.0
X62.1Y-137.5
X62.5Y-68.0
X62.5Y-70.1
X62.5Y-84.7
X62.5Y-86.2
X62.5Y-110.0
X62.5Y-140.0
X62.6Y-87.8
X62.7Y-122.6
X63.4Y-131.8
X63.5Y-108.0
X64.1Y-118.6
X64.2Y-62.0
X64.2Y-68.7
X64.3Y-60.3
X64.6Y-109.3
X65.1Y-82.2
X65.3Y-78.3
X65.4Y-139.3
X65.5Y-108.0
X66.2Y-73.9
X66.5Y-117.2
X66.6Y-76.0
X66.7Y-141.3
X66.9Y-107.0
X67.2Y-111.2
X67.5Y-105.5
X67.9Y-146.9
X68.0Y-113.0
X68.0Y-115.0
X68.5Y-117.5
X68.5Y-142.0
X68.6Y-75.9
X68.7Y-60.4
X68.7Y-61.8
X69.0Y-139.0
X69.2Y-105.4
X69.5Y-115.7
X69.7Y-82.4
X69.8Y-78.9
X70.0Y-94.0
X70.5Y-138.0
X70.5Y-145.0
X70.7Y-146.9
X70.9Y-143.3
X71.2Y-57.6
X71.5Y-64.8
X71.7Y-62.1
X72.0Y-59.5
X72.25Y-142.5
X72.5Y-138.75
X72.8Y-50.4
X72.8Y-63.5
X73.5Y-91.0
X73.5Y-142.0
X73.526Y-94.153
X73.6Y-57.6
X73.8Y-65.2
X74.0Y-59.0
X74.0Y-79.5
X74.0Y-140.0
X74.2Y-62.3
X74.25Y-147.25
X74.5Y-64.0
X74.5Y-68.6
X74.5Y-87.5
X75.6Y-57.2
X75.7Y-58.8
X75.75Y-140.75
X76.2Y-50.8
X76.3Y-106.3
X76.5Y-142.5
X76.8Y-65.4
X76.9Y-110.8
X77.2Y-58.8
X77.2Y-113.8
X77.3Y-70.9
X77.3Y-147.1
X77.8Y-112.2
X78.0Y-57.4
X78.4Y-66.4
X78.75Y-143.25
X78.9Y-108.8
X79.0Y-132.0
X79.5Y-82.0
X80.0Y-65.3
X80.0Y-73.0
X80.1Y-102.8
X80.2Y-79.7
X80.2Y-110.4
X80.3Y-120.9
X80.5Y-101.0
X80.5Y-123.6
X80.8Y-147.2
X80.9Y-51.4
X81.0Y-98.0
X82.0Y-65.4
X82.0Y-71.0
X82.0Y-143.75
X82.1Y-106.5
X82.2Y-58.9
X82.2Y-101.6
X82.4Y-60.8
X82.5Y-62.4
X82.8Y-51.9
X82.8Y-66.4
X82.9Y-121.2
X83.0Y-107.9
X83.2Y-81.4
X83.5Y-53.0
X84.0Y-58.5
X84.0Y-60.0
X84.0Y-102.0
X84.0Y-106.6
X84.1Y-147.2
X84.2Y-71.2
X84.8Y-73.2
X84.8Y-79.5
X84.9Y-78.2
X85.0Y-143.75
X85.5Y-60.4
X85.5Y-98.5
X85.7Y-80.9
X85.9Y-51.6
X86.75Y-145.5
X86.9Y-73.5
X86.9Y-82.0
X87.0Y-102.0
X87.5Y-144.0
X87.7Y-51.6
X88.0Y-88.5
X88.4Y-67.4
X88.6Y-78.8
X89.0Y-145.75
X89.4Y-51.6
X89.4Y-129.5
X89.5Y-63.0
X89.5Y-64.5
X89.6Y-87.2
X89.8Y-58.5
X89.8Y-60.3
X90.0Y-73.5
X90.0Y-78.8
X90.3Y-144.4
X90.5Y-116.1
X90.9Y-101.7
X91.0Y-53.5
X91.0Y-64.5
X91.1Y-51.6
X91.2Y-142.3
X91.3Y-147.2
X91.5Y-58.0
X91.5Y-62.0
X91.6Y-112.7
X91.7Y-60.3
X91.8Y-70.6
X92.0Y-127.0
X92.3Y-103.1
X92.5Y-53.25
X92.8Y-51.6
X92.8Y-140.2
X93.0Y-71.4
X93.4Y-54.4
X93.5Y-112.5
X93.6Y-84.2
X93.6Y-86.4
X93.8Y-147.6
X93.9Y-56.6
X94.0Y-82.6
X94.0Y-114.5
X94.0Y-141.5
X94.2Y-60.9
X94.2Y-80.6
X94.2Y-92.4
X94.4Y-78.8
X94.5Y-58.7
X94.6Y-138.8
X94.7Y-130.8
X94.8Y-116.7
X95.0Y-51.0
X95.0Y-102.0
X95.0Y-126.5
X95.2Y-129.0
X95.5Y-52.5
X95.5Y-96.5
X96.0Y-68.0
X96.0Y-69.3
X96.0Y-70.7
X96.25Y-72.25
X96.4Y-97.8
X96.7Y-51.1
X96.8Y-84.8
X96.9Y-142.0
X97.1Y-114.0
X97.3Y-68.0
X97.5Y-53.0
X97.7Y-77.0
X97.9Y-72.4
X98.1Y-147.5
X98.6Y-127.7
X98.7Y-51.2
X98.8Y-68.0
X99.2Y-84.8
X99.4Y-114.1
X99.6Y-141.9
X99.7Y-81.0
X100.0Y-89.5
X100.0Y-91.0
X100.1Y-99.1
X100.2Y-92.6
X100.3Y-52.5
X100.4Y-68.0
X100.4Y-69.5
X100.4Y-70.8
X100.8Y-127.8
X101.4Y-147.4
X101.5Y-51.5
X101.5Y-99.5
X102.0Y-81.8
X102.4Y-58.8
X102.6Y-142.1
X102.7Y-85.5
X102.8Y-74.4
X103.0Y-72.0
X103.0Y-80.5
X103.1Y-68.9
X103.2Y-52.4
X103.25Y-70.2
X103.4Y-114.1
X103.6Y-87.0
X103.6Y-127.8
X103.75Y-58.75
X103.75Y-60.75
X104.2Y-91.0
X104.2Y-93.2
X104.2Y-95.0
X104.2Y-97.0
X104.3Y-81.7
X104.5Y-69.3
X104.5Y-72.987
X104.5Y-85.5
X104.7Y-51.3
X104.9Y-59.4
X104.9Y-78.0
X105.0Y-75.1
X105.5Y-53.5
X105.5Y-60.5
X105.8Y-83.4
X105.8Y-90.0
X105.8Y-92.2
X105.8Y-94.2
X105.8Y-96.2
X105.8Y-98.2
X106.0Y-64.5
X106.1Y-85.5
X106.2Y-79.2
X106.3Y-55.1
X106.5Y-75.0
X106.5Y-77.5
X106.6Y-127.7
X107.0Y-56.5
X107.0Y-84.1
X107.5Y-146.5
X107.6Y-91.0
X107.6Y-93.4
X107.6Y-95.2
X107.6Y-97.2
X107.7Y-53.5
X107.7Y-58.3
X108.0Y-51.5
X108.0Y-65.0
X108.0Y-79.0
X108.0Y-85.6
X108.2Y-87.2
X108.2Y-126.2
X108.2Y-129.8
X108.3Y-77.3
X108.4Y-112.0
X108.5Y-55.0
X108.5Y-70.0
X108.5Y-71.5
X108.5Y-72.7
X108.6Y-116.6
X108.6Y-144.8
X109.0Y-57.5
X109.0Y-143.0
X109.5Y-64.5
X109.5Y-66.0
X109.5Y-129.0
X109.6Y-101.4
X109.8Y-52.5
X109.9Y-56.2
X110.0Y-112.0
X110.1Y-147.4
X110.2Y-116.6
X110.5Y-54.5
X110.5Y-60.1
X110.5Y-120.4
X111.0Y-129.0
X111.4Y-101.4
X111.5Y-144.5
X111.8Y-116.6
X111.9Y-53.7
X112.0Y-68.5
X112.0Y-70.5
X112.0Y-94.0
X112.0Y-112.0
X112.3Y-142.4
X112.6Y-129.0
X112.6Y-139.9
X112.7Y-54.9
X112.7Y-120.4
X112.8Y-79.7
X113.0Y-86.5
X113.0Y-126.0
X113.2Y-101.4
X113.5Y-71.5
X113.5Y-77.5
X114.1Y-83.0
X114.6Y-141.5
X114.8Y-101.4
X114.8Y-103.0
X114.8Y-104.8
X114.8Y-106.6
X114.8Y-116.6
X114.8Y-118.4
X114.8Y-120.0
X115.0Y-74.0
X115.0Y-125.1
X115.3Y-123.5
X115.4Y-139.0
X115.8Y-112.2
X116.0Y-59.5
X116.1Y-86.4
X116.2Y-83.1
X116.4Y-61.6
X116.5Y-63.5
X116.5Y-71.5
X116.5Y-77.0
X116.5Y-80.5
X116.5Y-140.5
X117.0Y-68.5
X117.7Y-137.6
X118.0Y-59.5
X118.0Y-135.5
X118.1Y-139.2
X118.4Y-61.4
X118.4Y-87.0
X118.4Y-91.4
X118.4Y-95.2
X118.4Y-98.8
X118.4Y-100.8
X118.4Y-102.8
X118.4Y-107.0
X118.4Y-109.0
X118.4Y-114.0
X118.4Y-119.6
X118.4Y-121.8
X118.4Y-123.8
X118.4Y-141.3
X118.5Y-63.2
X118.5Y-67.5
X118.5Y-70.0
X118.5Y-73.5
X118.5Y-79.0
X118.5Y-84.5
X118.5Y-89.0
X118.5Y-93.5
X118.5Y-97.0
X118.5Y-104.5
X118.5Y-111.0
X118.5Y-117.0
X118.5Y-125.5
X118.6Y-127.6
X118.6Y-129.8
X118.6Y-131.8
T3
X112.51Y-58.345
X112.51Y-59.195
X112.51Y-60.045
X112.51Y-60.895
X112.51Y-61.745
X112.51Y-62.595
X112.51Y-63.445
X112.51Y-64.295
X113.86Y-58.345
X113.86Y-59.195
X113.86Y-60.045
X113.86Y-60.895
X113.86Y-61.745
X113.86Y-62.595
X113.86Y-63.445
X113.86Y-64.295
T5
X67.0Y-79.5
X67.0Y-81.5
X111.05Y-72.0
X111.05Y-74.0
X111.05Y-76.0
X111.05Y-81.0
X111.05Y-83.0
X111.05Y-85.0
T6
X102.19Y-90.0
X102.19Y-92.54
X102.19Y-95.08
X102.19Y-97.62
X109.81Y-90.0
X109.81Y-92.54
X109.81Y-95.08
X109.81Y-97.62
T7
X67.0Y-122.705
X67.0Y-127.705
X67.0Y-132.705
T8
X65.0Y-92.9
X65.0Y-100.1
T4
G00X112.36Y-57.0
M15
G01X113.66Y-57.0
M16
G05
G00X112.36Y-65.64
M15
G01X113.66Y-65.64
M16
G05
G00X116.71Y-57.0
M15
G01X117.61Y-57.0
M16
G05
G00X116.71Y-65.64
M15
G01X117.61Y-65.64
M16
G05
M30
