M48
METRIC,TZ
T1C0.300
T2C0.400
T3C0.400
T4C0.700
T5C0.750
T6C0.813
T7C1.320
T8C4.550
%
G90
G05
T1
X62500Y-86000
X64000Y-114000
X65000Y-137500
X66000Y-71200
X66500Y-61200
X66500Y-85000
X70000Y-71000
X70861Y-105880
X70861Y-107024
X71000Y-92500
X71000Y-141000
X74000Y-59000
X75500Y-71000
X75500Y-102500
X76000Y-55000
X76000Y-86000
X76161Y-97650
X76500Y-145000
X76750Y-99920
X77000Y-112000
X78500Y-103500
X79000Y-107000
X80000Y-83500
X80500Y-52000
X81500Y-81000
X83475Y-116825
X84000Y-83000
X85000Y-79500
X86500Y-73500
X87000Y-99500
X87479Y-92979
X88500Y-84500
X89000Y-51500
X89000Y-92000
X89000Y-146000
X90500Y-99500
X91000Y-69000
X91500Y-114500
X92500Y-69500
X93500Y-100500
X93500Y-128000
X94500Y-63000
X95000Y-55500
X96000Y-92000
X98000Y-93550
X98500Y-99000
X98500Y-145500
X100500Y-77000
X100566Y-65066
X101500Y-79500
X103000Y-65500
X103500Y-77000
X104500Y-144000
X105500Y-85500
X111500Y-98000
X114500Y-102000
X115065Y-137000
X115255Y-109540
X115500Y-121500
T2
X61500Y-58000
X61500Y-64500
X62000Y-62500
X62000Y-105500
X62000Y-117500
X62000Y-121000
X62000Y-133500
X62500Y-68000
X62500Y-110000
X62500Y-112000
X62500Y-140000
X63500Y-108000
X64500Y-111000
X65000Y-116000
X65500Y-108000
X66500Y-118000
X67500Y-105500
X68000Y-113000
X68000Y-115000
X68500Y-117500
X68500Y-142000
X69000Y-139000
X70000Y-94000
X70500Y-138000
X71000Y-124500
X72000Y-51500
X72000Y-59500
X72000Y-62500
X72500Y-53500
X72500Y-145500
X73500Y-91000
X73500Y-142000
X73526Y-94153
X74000Y-79500
X74000Y-140000
X74000Y-144500
X74500Y-87500
X76500Y-142500
X78500Y-145500
X79000Y-132000
X79500Y-82000
X80000Y-73000
X80500Y-101000
X80500Y-144500
X81000Y-98000
X82000Y-71000
X82500Y-145500
X84000Y-102000
X85000Y-145500
X85500Y-98500
X87000Y-102000
X87500Y-144000
X88000Y-88500
X89500Y-59500
X89500Y-63000
X89500Y-64500
X90000Y-56500
X90000Y-128500
X91000Y-59500
X91000Y-64500
X91000Y-143500
X91500Y-58000
X91500Y-62000
X91500Y-146000
X92000Y-51000
X92500Y-53250
X93000Y-55250
X93500Y-112500
X94000Y-114500
X94000Y-141500
X94000Y-144000
X94000Y-146000
X94500Y-60500
X95000Y-51000
X95000Y-59000
X95000Y-102000
X95000Y-126500
X95500Y-52500
X95500Y-96500
X96000Y-70000
X96250Y-68000
X96250Y-72250
X96500Y-143000
X97500Y-53000
X97500Y-72500
X97500Y-77000
X98000Y-68000
X99000Y-72250
X100000Y-68250
X100000Y-89500
X100000Y-91000
X100250Y-69750
X100250Y-71500
X101500Y-51500
X101500Y-144000
X102500Y-82000
X102500Y-86500
X103000Y-72000
X103000Y-80500
X103250Y-69500
X103500Y-84000
X103750Y-58750
X103750Y-60750
X104500Y-72988
X105250Y-68750
X105500Y-53500
X105500Y-60500
X106000Y-64500
X106500Y-75000
X106500Y-77500
X107000Y-56500
X107500Y-146500
X108000Y-51500
X108000Y-65000
X108000Y-79000
X108500Y-55000
X108500Y-70000
X108500Y-71500
X109000Y-57500
X109000Y-143000
X109500Y-64500
X109500Y-66000
X109500Y-129000
X110000Y-59500
X110000Y-112000
X110500Y-54500
X111500Y-102000
X111500Y-144500
X112000Y-68500
X112000Y-70500
X112000Y-94000
X113000Y-86500
X113000Y-126000
X113500Y-71500
X113500Y-77500
X113500Y-80000
X114500Y-82500
X115000Y-74000
X116000Y-59500
X116000Y-85500
X116500Y-62000
X116500Y-63500
X116500Y-71500
X116500Y-77000
X116500Y-80500
X116500Y-140500
X117000Y-68500
X118000Y-59500
X118000Y-61000
X118000Y-135500
X118500Y-62500
X118500Y-67500
X118500Y-70000
X118500Y-73500
X118500Y-79000
X118500Y-84500
X118500Y-89000
X118500Y-93500
X118500Y-97000
X118500Y-104500
X118500Y-111000
X118500Y-117000
X118500Y-125500
T3
X112510Y-58345
X112510Y-59195
X112510Y-60045
X112510Y-60895
X112510Y-61745
X112510Y-62595
X112510Y-63445
X112510Y-64295
X113860Y-58345
X113860Y-59195
X113860Y-60045
X113860Y-60895
X113860Y-61745
X113860Y-62595
X113860Y-63445
X113860Y-64295
T5
X67000Y-79500
X67000Y-81500
X111050Y-72000
X111050Y-74000
X111050Y-76000
X111050Y-81000
X111050Y-83000
X111050Y-85000
T6
X102190Y-90000
X102190Y-92540
X102190Y-95080
X102190Y-97620
X109810Y-90000
X109810Y-92540
X109810Y-95080
X109810Y-97620
T7
X67000Y-122705
X67000Y-127705
X67000Y-132705
T8
X65000Y-92900
X65000Y-100100
T4
G00X112360Y-57000
M15
G01X113660Y-57000
M16
G05
G00X112360Y-65640
M15
G01X113660Y-65640
M16
G05
G00X116710Y-57000
M15
G01X117610Y-57000
M16
G05
G00X116710Y-65640
M15
G01X117610Y-65640
M16
G05
M30
